<?xml version="1.0" encoding="utf-8" standalone="no"?>
<!DOCTYPE svg PUBLIC "-//W3C//DTD SVG 1.1//EN"
  "http://www.w3.org/Graphics/SVG/1.1/DTD/svg11.dtd">
<svg xmlns:xlink="http://www.w3.org/1999/xlink" width="141.183797pt" height="149.289108pt" viewBox="0 0 141.183797 149.289108" xmlns="http://www.w3.org/2000/svg" version="1.1">
 <metadata>
  <rdf:RDF xmlns:dc="http://purl.org/dc/elements/1.1/" xmlns:cc="http://creativecommons.org/ns#" xmlns:rdf="http://www.w3.org/1999/02/22-rdf-syntax-ns#">
   <cc:Work>
    <dc:type rdf:resource="http://purl.org/dc/dcmitype/StillImage"/>
    <dc:date>2025-04-17T11:16:59.738816</dc:date>
    <dc:format>image/svg+xml</dc:format>
    <dc:creator>
     <cc:Agent>
      <dc:title>Matplotlib v3.9.4, https://matplotlib.org/</dc:title>
     </cc:Agent>
    </dc:creator>
   </cc:Work>
  </rdf:RDF>
 </metadata>
 <defs>
  <style type="text/css">*{stroke-linejoin: round; stroke-linecap: butt}</style>
 </defs>
 <g id="figure_1">
  <g id="patch_1">
   <path d="M 0 149.289108 
L 141.183797 149.289108 
L 141.183797 0 
L 0 0 
z
" style="fill: #ffffff"/>
  </g>
  <g id="axes_1">
   <g id="patch_2">
    <path d="M 38.382812 134.016452 
L 130.508797 134.016452 
L 130.508797 23.465271 
L 38.382812 23.465271 
z
" style="fill: #ffffff"/>
   </g>
   <g id="matplotlib.axis_1">
    <g id="xtick_1">
     <g id="line2d_1">
      <path d="M 38.382812 134.016452 
L 38.382812 23.465271 
" clip-path="url(#pf005074bea)" style="fill: none; stroke: #d3d3d3; stroke-width: 0.3; stroke-linecap: round"/>
     </g>
     <g id="text_1">
      <!-- 0.0 -->
      <g style="fill: #262626" transform="translate(34.907812 141.095358) scale(0.05 -0.05)">
       <defs>
        <path id="ArialMT-30" d="M 266 2259 
Q 266 3072 433 3567 
Q 600 4063 929 4331 
Q 1259 4600 1759 4600 
Q 2128 4600 2406 4451 
Q 2684 4303 2865 4023 
Q 3047 3744 3150 3342 
Q 3253 2941 3253 2259 
Q 3253 1453 3087 958 
Q 2922 463 2592 192 
Q 2263 -78 1759 -78 
Q 1097 -78 719 397 
Q 266 969 266 2259 
z
M 844 2259 
Q 844 1131 1108 757 
Q 1372 384 1759 384 
Q 2147 384 2411 759 
Q 2675 1134 2675 2259 
Q 2675 3391 2411 3762 
Q 2147 4134 1753 4134 
Q 1366 4134 1134 3806 
Q 844 3388 844 2259 
z
" transform="scale(0.015625)"/>
        <path id="ArialMT-2e" d="M 581 0 
L 581 641 
L 1222 641 
L 1222 0 
L 581 0 
z
" transform="scale(0.015625)"/>
       </defs>
       <use xlink:href="#ArialMT-30"/>
       <use xlink:href="#ArialMT-2e" x="55.615234"/>
       <use xlink:href="#ArialMT-30" x="83.398438"/>
      </g>
     </g>
    </g>
    <g id="xtick_2">
     <g id="line2d_2">
      <path d="M 56.808009 134.016452 
L 56.808009 23.465271 
" clip-path="url(#pf005074bea)" style="fill: none; stroke: #d3d3d3; stroke-width: 0.3; stroke-linecap: round"/>
     </g>
     <g id="text_2">
      <!-- 0.2 -->
      <g style="fill: #262626" transform="translate(53.333009 141.095358) scale(0.05 -0.05)">
       <defs>
        <path id="ArialMT-32" d="M 3222 541 
L 3222 0 
L 194 0 
Q 188 203 259 391 
Q 375 700 629 1000 
Q 884 1300 1366 1694 
Q 2113 2306 2375 2664 
Q 2638 3022 2638 3341 
Q 2638 3675 2398 3904 
Q 2159 4134 1775 4134 
Q 1369 4134 1125 3890 
Q 881 3647 878 3216 
L 300 3275 
Q 359 3922 746 4261 
Q 1134 4600 1788 4600 
Q 2447 4600 2831 4234 
Q 3216 3869 3216 3328 
Q 3216 3053 3103 2787 
Q 2991 2522 2730 2228 
Q 2469 1934 1863 1422 
Q 1356 997 1212 845 
Q 1069 694 975 541 
L 3222 541 
z
" transform="scale(0.015625)"/>
       </defs>
       <use xlink:href="#ArialMT-30"/>
       <use xlink:href="#ArialMT-2e" x="55.615234"/>
       <use xlink:href="#ArialMT-32" x="83.398438"/>
      </g>
     </g>
    </g>
    <g id="xtick_3">
     <g id="line2d_3">
      <path d="M 75.233206 134.016452 
L 75.233206 23.465271 
" clip-path="url(#pf005074bea)" style="fill: none; stroke: #d3d3d3; stroke-width: 0.3; stroke-linecap: round"/>
     </g>
     <g id="text_3">
      <!-- 0.4 -->
      <g style="fill: #262626" transform="translate(71.758206 141.095358) scale(0.05 -0.05)">
       <defs>
        <path id="ArialMT-34" d="M 2069 0 
L 2069 1097 
L 81 1097 
L 81 1613 
L 2172 4581 
L 2631 4581 
L 2631 1613 
L 3250 1613 
L 3250 1097 
L 2631 1097 
L 2631 0 
L 2069 0 
z
M 2069 1613 
L 2069 3678 
L 634 1613 
L 2069 1613 
z
" transform="scale(0.015625)"/>
       </defs>
       <use xlink:href="#ArialMT-30"/>
       <use xlink:href="#ArialMT-2e" x="55.615234"/>
       <use xlink:href="#ArialMT-34" x="83.398438"/>
      </g>
     </g>
    </g>
    <g id="xtick_4">
     <g id="line2d_4">
      <path d="M 93.658403 134.016452 
L 93.658403 23.465271 
" clip-path="url(#pf005074bea)" style="fill: none; stroke: #d3d3d3; stroke-width: 0.3; stroke-linecap: round"/>
     </g>
     <g id="text_4">
      <!-- 0.6 -->
      <g style="fill: #262626" transform="translate(90.183403 141.095358) scale(0.05 -0.05)">
       <defs>
        <path id="ArialMT-36" d="M 3184 3459 
L 2625 3416 
Q 2550 3747 2413 3897 
Q 2184 4138 1850 4138 
Q 1581 4138 1378 3988 
Q 1113 3794 959 3422 
Q 806 3050 800 2363 
Q 1003 2672 1297 2822 
Q 1591 2972 1913 2972 
Q 2475 2972 2870 2558 
Q 3266 2144 3266 1488 
Q 3266 1056 3080 686 
Q 2894 316 2569 119 
Q 2244 -78 1831 -78 
Q 1128 -78 684 439 
Q 241 956 241 2144 
Q 241 3472 731 4075 
Q 1159 4600 1884 4600 
Q 2425 4600 2770 4297 
Q 3116 3994 3184 3459 
z
M 888 1484 
Q 888 1194 1011 928 
Q 1134 663 1356 523 
Q 1578 384 1822 384 
Q 2178 384 2434 671 
Q 2691 959 2691 1453 
Q 2691 1928 2437 2201 
Q 2184 2475 1800 2475 
Q 1419 2475 1153 2201 
Q 888 1928 888 1484 
z
" transform="scale(0.015625)"/>
       </defs>
       <use xlink:href="#ArialMT-30"/>
       <use xlink:href="#ArialMT-2e" x="55.615234"/>
       <use xlink:href="#ArialMT-36" x="83.398438"/>
      </g>
     </g>
    </g>
    <g id="xtick_5">
     <g id="line2d_5">
      <path d="M 112.0836 134.016452 
L 112.0836 23.465271 
" clip-path="url(#pf005074bea)" style="fill: none; stroke: #d3d3d3; stroke-width: 0.3; stroke-linecap: round"/>
     </g>
     <g id="text_5">
      <!-- 0.8 -->
      <g style="fill: #262626" transform="translate(108.6086 141.095358) scale(0.05 -0.05)">
       <defs>
        <path id="ArialMT-38" d="M 1131 2484 
Q 781 2613 612 2850 
Q 444 3088 444 3419 
Q 444 3919 803 4259 
Q 1163 4600 1759 4600 
Q 2359 4600 2725 4251 
Q 3091 3903 3091 3403 
Q 3091 3084 2923 2848 
Q 2756 2613 2416 2484 
Q 2838 2347 3058 2040 
Q 3278 1734 3278 1309 
Q 3278 722 2862 322 
Q 2447 -78 1769 -78 
Q 1091 -78 675 323 
Q 259 725 259 1325 
Q 259 1772 486 2073 
Q 713 2375 1131 2484 
z
M 1019 3438 
Q 1019 3113 1228 2906 
Q 1438 2700 1772 2700 
Q 2097 2700 2305 2904 
Q 2513 3109 2513 3406 
Q 2513 3716 2298 3927 
Q 2084 4138 1766 4138 
Q 1444 4138 1231 3931 
Q 1019 3725 1019 3438 
z
M 838 1322 
Q 838 1081 952 856 
Q 1066 631 1291 507 
Q 1516 384 1775 384 
Q 2178 384 2440 643 
Q 2703 903 2703 1303 
Q 2703 1709 2433 1975 
Q 2163 2241 1756 2241 
Q 1359 2241 1098 1978 
Q 838 1716 838 1322 
z
" transform="scale(0.015625)"/>
       </defs>
       <use xlink:href="#ArialMT-30"/>
       <use xlink:href="#ArialMT-2e" x="55.615234"/>
       <use xlink:href="#ArialMT-38" x="83.398438"/>
      </g>
     </g>
    </g>
    <g id="xtick_6">
     <g id="line2d_6">
      <path d="M 130.508797 134.016452 
L 130.508797 23.465271 
" clip-path="url(#pf005074bea)" style="fill: none; stroke: #d3d3d3; stroke-width: 0.3; stroke-linecap: round"/>
     </g>
     <g id="text_6">
      <!-- 1.0 -->
      <g style="fill: #262626" transform="translate(127.033797 141.095358) scale(0.05 -0.05)">
       <defs>
        <path id="ArialMT-31" d="M 2384 0 
L 1822 0 
L 1822 3584 
Q 1619 3391 1289 3197 
Q 959 3003 697 2906 
L 697 3450 
Q 1169 3672 1522 3987 
Q 1875 4303 2022 4600 
L 2384 4600 
L 2384 0 
z
" transform="scale(0.015625)"/>
       </defs>
       <use xlink:href="#ArialMT-31"/>
       <use xlink:href="#ArialMT-2e" x="55.615234"/>
       <use xlink:href="#ArialMT-30" x="83.398438"/>
      </g>
     </g>
    </g>
   </g>
   <g id="matplotlib.axis_2">
    <g id="ytick_1">
     <g id="line2d_7">
      <path d="M 38.382812 37.284168 
L 130.508797 37.284168 
" clip-path="url(#pf005074bea)" style="fill: none; stroke: #d3d3d3; stroke-width: 0.3; stroke-linecap: round"/>
     </g>
     <g id="text_7">
      <!-- gpt-4o -->
      <g style="fill: #262626" transform="translate(14.707031 36.757996) scale(0.05 -0.05)">
       <defs>
        <path id="ArialMT-67" d="M 319 -275 
L 866 -356 
Q 900 -609 1056 -725 
Q 1266 -881 1628 -881 
Q 2019 -881 2231 -725 
Q 2444 -569 2519 -288 
Q 2563 -116 2559 434 
Q 2191 0 1641 0 
Q 956 0 581 494 
Q 206 988 206 1678 
Q 206 2153 378 2554 
Q 550 2956 876 3175 
Q 1203 3394 1644 3394 
Q 2231 3394 2613 2919 
L 2613 3319 
L 3131 3319 
L 3131 450 
Q 3131 -325 2973 -648 
Q 2816 -972 2473 -1159 
Q 2131 -1347 1631 -1347 
Q 1038 -1347 672 -1080 
Q 306 -813 319 -275 
z
M 784 1719 
Q 784 1066 1043 766 
Q 1303 466 1694 466 
Q 2081 466 2343 764 
Q 2606 1063 2606 1700 
Q 2606 2309 2336 2618 
Q 2066 2928 1684 2928 
Q 1309 2928 1046 2623 
Q 784 2319 784 1719 
z
" transform="scale(0.015625)"/>
        <path id="ArialMT-70" d="M 422 -1272 
L 422 3319 
L 934 3319 
L 934 2888 
Q 1116 3141 1344 3267 
Q 1572 3394 1897 3394 
Q 2322 3394 2647 3175 
Q 2972 2956 3137 2557 
Q 3303 2159 3303 1684 
Q 3303 1175 3120 767 
Q 2938 359 2589 142 
Q 2241 -75 1856 -75 
Q 1575 -75 1351 44 
Q 1128 163 984 344 
L 984 -1272 
L 422 -1272 
z
M 931 1641 
Q 931 1000 1190 694 
Q 1450 388 1819 388 
Q 2194 388 2461 705 
Q 2728 1022 2728 1688 
Q 2728 2322 2467 2637 
Q 2206 2953 1844 2953 
Q 1484 2953 1207 2617 
Q 931 2281 931 1641 
z
" transform="scale(0.015625)"/>
        <path id="ArialMT-74" d="M 1650 503 
L 1731 6 
Q 1494 -44 1306 -44 
Q 1000 -44 831 53 
Q 663 150 594 308 
Q 525 466 525 972 
L 525 2881 
L 113 2881 
L 113 3319 
L 525 3319 
L 525 4141 
L 1084 4478 
L 1084 3319 
L 1650 3319 
L 1650 2881 
L 1084 2881 
L 1084 941 
Q 1084 700 1114 631 
Q 1144 563 1211 522 
Q 1278 481 1403 481 
Q 1497 481 1650 503 
z
" transform="scale(0.015625)"/>
        <path id="ArialMT-2d" d="M 203 1375 
L 203 1941 
L 1931 1941 
L 1931 1375 
L 203 1375 
z
" transform="scale(0.015625)"/>
        <path id="ArialMT-6f" d="M 213 1659 
Q 213 2581 725 3025 
Q 1153 3394 1769 3394 
Q 2453 3394 2887 2945 
Q 3322 2497 3322 1706 
Q 3322 1066 3130 698 
Q 2938 331 2570 128 
Q 2203 -75 1769 -75 
Q 1072 -75 642 372 
Q 213 819 213 1659 
z
M 791 1659 
Q 791 1022 1069 705 
Q 1347 388 1769 388 
Q 2188 388 2466 706 
Q 2744 1025 2744 1678 
Q 2744 2294 2464 2611 
Q 2184 2928 1769 2928 
Q 1347 2928 1069 2612 
Q 791 2297 791 1659 
z
" transform="scale(0.015625)"/>
       </defs>
       <use xlink:href="#ArialMT-67"/>
       <use xlink:href="#ArialMT-70" x="55.615234"/>
       <use xlink:href="#ArialMT-74" x="111.230469"/>
       <use xlink:href="#ArialMT-2d" x="139.013672"/>
       <use xlink:href="#ArialMT-34" x="172.314453"/>
       <use xlink:href="#ArialMT-6f" x="227.929688"/>
      </g>
      <!-- mini -->
      <g style="fill: #262626" transform="translate(19.715625 42.105028) scale(0.05 -0.05)">
       <defs>
        <path id="ArialMT-6d" d="M 422 0 
L 422 3319 
L 925 3319 
L 925 2853 
Q 1081 3097 1340 3245 
Q 1600 3394 1931 3394 
Q 2300 3394 2536 3241 
Q 2772 3088 2869 2813 
Q 3263 3394 3894 3394 
Q 4388 3394 4653 3120 
Q 4919 2847 4919 2278 
L 4919 0 
L 4359 0 
L 4359 2091 
Q 4359 2428 4304 2576 
Q 4250 2725 4106 2815 
Q 3963 2906 3769 2906 
Q 3419 2906 3187 2673 
Q 2956 2441 2956 1928 
L 2956 0 
L 2394 0 
L 2394 2156 
Q 2394 2531 2256 2718 
Q 2119 2906 1806 2906 
Q 1569 2906 1367 2781 
Q 1166 2656 1075 2415 
Q 984 2175 984 1722 
L 984 0 
L 422 0 
z
" transform="scale(0.015625)"/>
        <path id="ArialMT-69" d="M 425 3934 
L 425 4581 
L 988 4581 
L 988 3934 
L 425 3934 
z
M 425 0 
L 425 3319 
L 988 3319 
L 988 0 
L 425 0 
z
" transform="scale(0.015625)"/>
        <path id="ArialMT-6e" d="M 422 0 
L 422 3319 
L 928 3319 
L 928 2847 
Q 1294 3394 1984 3394 
Q 2284 3394 2536 3286 
Q 2788 3178 2913 3003 
Q 3038 2828 3088 2588 
Q 3119 2431 3119 2041 
L 3119 0 
L 2556 0 
L 2556 2019 
Q 2556 2363 2490 2533 
Q 2425 2703 2258 2804 
Q 2091 2906 1866 2906 
Q 1506 2906 1245 2678 
Q 984 2450 984 1813 
L 984 0 
L 422 0 
z
" transform="scale(0.015625)"/>
       </defs>
       <use xlink:href="#ArialMT-6d"/>
       <use xlink:href="#ArialMT-69" x="83.300781"/>
       <use xlink:href="#ArialMT-6e" x="105.517578"/>
       <use xlink:href="#ArialMT-69" x="161.132812"/>
      </g>
     </g>
    </g>
    <g id="ytick_2">
     <g id="line2d_8">
      <path d="M 38.382812 64.921964 
L 130.508797 64.921964 
" clip-path="url(#pf005074bea)" style="fill: none; stroke: #d3d3d3; stroke-width: 0.3; stroke-linecap: round"/>
     </g>
     <g id="text_8">
      <!-- gpt-4o -->
      <g style="fill: #262626" transform="translate(14.707031 66.711417) scale(0.05 -0.05)">
       <use xlink:href="#ArialMT-67"/>
       <use xlink:href="#ArialMT-70" x="55.615234"/>
       <use xlink:href="#ArialMT-74" x="111.230469"/>
       <use xlink:href="#ArialMT-2d" x="139.013672"/>
       <use xlink:href="#ArialMT-34" x="172.314453"/>
       <use xlink:href="#ArialMT-6f" x="227.929688"/>
      </g>
     </g>
    </g>
    <g id="ytick_3">
     <g id="line2d_9">
      <path d="M 38.382812 92.559759 
L 130.508797 92.559759 
" clip-path="url(#pf005074bea)" style="fill: none; stroke: #d3d3d3; stroke-width: 0.3; stroke-linecap: round"/>
     </g>
     <g id="text_9">
      <!-- deepseek -->
      <g style="fill: #262626" transform="translate(7.2 92.062884) scale(0.05 -0.05)">
       <defs>
        <path id="ArialMT-64" d="M 2575 0 
L 2575 419 
Q 2259 -75 1647 -75 
Q 1250 -75 917 144 
Q 584 363 401 755 
Q 219 1147 219 1656 
Q 219 2153 384 2558 
Q 550 2963 881 3178 
Q 1213 3394 1622 3394 
Q 1922 3394 2156 3267 
Q 2391 3141 2538 2938 
L 2538 4581 
L 3097 4581 
L 3097 0 
L 2575 0 
z
M 797 1656 
Q 797 1019 1065 703 
Q 1334 388 1700 388 
Q 2069 388 2326 689 
Q 2584 991 2584 1609 
Q 2584 2291 2321 2609 
Q 2059 2928 1675 2928 
Q 1300 2928 1048 2622 
Q 797 2316 797 1656 
z
" transform="scale(0.015625)"/>
        <path id="ArialMT-65" d="M 2694 1069 
L 3275 997 
Q 3138 488 2766 206 
Q 2394 -75 1816 -75 
Q 1088 -75 661 373 
Q 234 822 234 1631 
Q 234 2469 665 2931 
Q 1097 3394 1784 3394 
Q 2450 3394 2872 2941 
Q 3294 2488 3294 1666 
Q 3294 1616 3291 1516 
L 816 1516 
Q 847 969 1125 678 
Q 1403 388 1819 388 
Q 2128 388 2347 550 
Q 2566 713 2694 1069 
z
M 847 1978 
L 2700 1978 
Q 2663 2397 2488 2606 
Q 2219 2931 1791 2931 
Q 1403 2931 1139 2672 
Q 875 2413 847 1978 
z
" transform="scale(0.015625)"/>
        <path id="ArialMT-73" d="M 197 991 
L 753 1078 
Q 800 744 1014 566 
Q 1228 388 1613 388 
Q 2000 388 2187 545 
Q 2375 703 2375 916 
Q 2375 1106 2209 1216 
Q 2094 1291 1634 1406 
Q 1016 1563 777 1677 
Q 538 1791 414 1992 
Q 291 2194 291 2438 
Q 291 2659 392 2848 
Q 494 3038 669 3163 
Q 800 3259 1026 3326 
Q 1253 3394 1513 3394 
Q 1903 3394 2198 3281 
Q 2494 3169 2634 2976 
Q 2775 2784 2828 2463 
L 2278 2388 
Q 2241 2644 2061 2787 
Q 1881 2931 1553 2931 
Q 1166 2931 1000 2803 
Q 834 2675 834 2503 
Q 834 2394 903 2306 
Q 972 2216 1119 2156 
Q 1203 2125 1616 2013 
Q 2213 1853 2448 1751 
Q 2684 1650 2818 1456 
Q 2953 1263 2953 975 
Q 2953 694 2789 445 
Q 2625 197 2315 61 
Q 2006 -75 1616 -75 
Q 969 -75 630 194 
Q 291 463 197 991 
z
" transform="scale(0.015625)"/>
        <path id="ArialMT-6b" d="M 425 0 
L 425 4581 
L 988 4581 
L 988 1969 
L 2319 3319 
L 3047 3319 
L 1778 2088 
L 3175 0 
L 2481 0 
L 1384 1697 
L 988 1316 
L 988 0 
L 425 0 
z
" transform="scale(0.015625)"/>
       </defs>
       <use xlink:href="#ArialMT-64"/>
       <use xlink:href="#ArialMT-65" x="55.615234"/>
       <use xlink:href="#ArialMT-65" x="111.230469"/>
       <use xlink:href="#ArialMT-70" x="166.845703"/>
       <use xlink:href="#ArialMT-73" x="222.460938"/>
       <use xlink:href="#ArialMT-65" x="272.460938"/>
       <use xlink:href="#ArialMT-65" x="328.076172"/>
       <use xlink:href="#ArialMT-6b" x="383.691406"/>
      </g>
      <!-- chat -->
      <g style="fill: #262626" transform="translate(19.432812 97.351321) scale(0.05 -0.05)">
       <defs>
        <path id="ArialMT-63" d="M 2588 1216 
L 3141 1144 
Q 3050 572 2676 248 
Q 2303 -75 1759 -75 
Q 1078 -75 664 370 
Q 250 816 250 1647 
Q 250 2184 428 2587 
Q 606 2991 970 3192 
Q 1334 3394 1763 3394 
Q 2303 3394 2647 3120 
Q 2991 2847 3088 2344 
L 2541 2259 
Q 2463 2594 2264 2762 
Q 2066 2931 1784 2931 
Q 1359 2931 1093 2626 
Q 828 2322 828 1663 
Q 828 994 1084 691 
Q 1341 388 1753 388 
Q 2084 388 2306 591 
Q 2528 794 2588 1216 
z
" transform="scale(0.015625)"/>
        <path id="ArialMT-68" d="M 422 0 
L 422 4581 
L 984 4581 
L 984 2938 
Q 1378 3394 1978 3394 
Q 2347 3394 2619 3248 
Q 2891 3103 3008 2847 
Q 3125 2591 3125 2103 
L 3125 0 
L 2563 0 
L 2563 2103 
Q 2563 2525 2380 2717 
Q 2197 2909 1863 2909 
Q 1613 2909 1392 2779 
Q 1172 2650 1078 2428 
Q 984 2206 984 1816 
L 984 0 
L 422 0 
z
" transform="scale(0.015625)"/>
        <path id="ArialMT-61" d="M 2588 409 
Q 2275 144 1986 34 
Q 1697 -75 1366 -75 
Q 819 -75 525 192 
Q 231 459 231 875 
Q 231 1119 342 1320 
Q 453 1522 633 1644 
Q 813 1766 1038 1828 
Q 1203 1872 1538 1913 
Q 2219 1994 2541 2106 
Q 2544 2222 2544 2253 
Q 2544 2597 2384 2738 
Q 2169 2928 1744 2928 
Q 1347 2928 1158 2789 
Q 969 2650 878 2297 
L 328 2372 
Q 403 2725 575 2942 
Q 747 3159 1072 3276 
Q 1397 3394 1825 3394 
Q 2250 3394 2515 3294 
Q 2781 3194 2906 3042 
Q 3031 2891 3081 2659 
Q 3109 2516 3109 2141 
L 3109 1391 
Q 3109 606 3145 398 
Q 3181 191 3288 0 
L 2700 0 
Q 2613 175 2588 409 
z
M 2541 1666 
Q 2234 1541 1622 1453 
Q 1275 1403 1131 1340 
Q 988 1278 909 1158 
Q 831 1038 831 891 
Q 831 666 1001 516 
Q 1172 366 1500 366 
Q 1825 366 2078 508 
Q 2331 650 2450 897 
Q 2541 1088 2541 1459 
L 2541 1666 
z
" transform="scale(0.015625)"/>
       </defs>
       <use xlink:href="#ArialMT-63"/>
       <use xlink:href="#ArialMT-68" x="50"/>
       <use xlink:href="#ArialMT-61" x="105.615234"/>
       <use xlink:href="#ArialMT-74" x="161.230469"/>
      </g>
     </g>
    </g>
    <g id="ytick_4">
     <g id="line2d_10">
      <path d="M 38.382812 120.197554 
L 130.508797 120.197554 
" clip-path="url(#pf005074bea)" style="fill: none; stroke: #d3d3d3; stroke-width: 0.3; stroke-linecap: round"/>
     </g>
     <g id="text_10">
      <!-- claude3.7 -->
      <g style="fill: #262626" transform="translate(7.2 121.987007) scale(0.05 -0.05)">
       <defs>
        <path id="ArialMT-6c" d="M 409 0 
L 409 4581 
L 972 4581 
L 972 0 
L 409 0 
z
" transform="scale(0.015625)"/>
        <path id="ArialMT-75" d="M 2597 0 
L 2597 488 
Q 2209 -75 1544 -75 
Q 1250 -75 995 37 
Q 741 150 617 320 
Q 494 491 444 738 
Q 409 903 409 1263 
L 409 3319 
L 972 3319 
L 972 1478 
Q 972 1038 1006 884 
Q 1059 663 1231 536 
Q 1403 409 1656 409 
Q 1909 409 2131 539 
Q 2353 669 2445 892 
Q 2538 1116 2538 1541 
L 2538 3319 
L 3100 3319 
L 3100 0 
L 2597 0 
z
" transform="scale(0.015625)"/>
        <path id="ArialMT-33" d="M 269 1209 
L 831 1284 
Q 928 806 1161 595 
Q 1394 384 1728 384 
Q 2125 384 2398 659 
Q 2672 934 2672 1341 
Q 2672 1728 2419 1979 
Q 2166 2231 1775 2231 
Q 1616 2231 1378 2169 
L 1441 2663 
Q 1497 2656 1531 2656 
Q 1891 2656 2178 2843 
Q 2466 3031 2466 3422 
Q 2466 3731 2256 3934 
Q 2047 4138 1716 4138 
Q 1388 4138 1169 3931 
Q 950 3725 888 3313 
L 325 3413 
Q 428 3978 793 4289 
Q 1159 4600 1703 4600 
Q 2078 4600 2393 4439 
Q 2709 4278 2876 4000 
Q 3044 3722 3044 3409 
Q 3044 3113 2884 2869 
Q 2725 2625 2413 2481 
Q 2819 2388 3044 2092 
Q 3269 1797 3269 1353 
Q 3269 753 2831 336 
Q 2394 -81 1725 -81 
Q 1122 -81 723 278 
Q 325 638 269 1209 
z
" transform="scale(0.015625)"/>
        <path id="ArialMT-37" d="M 303 3981 
L 303 4522 
L 3269 4522 
L 3269 4084 
Q 2831 3619 2401 2847 
Q 1972 2075 1738 1259 
Q 1569 684 1522 0 
L 944 0 
Q 953 541 1156 1306 
Q 1359 2072 1739 2783 
Q 2119 3494 2547 3981 
L 303 3981 
z
" transform="scale(0.015625)"/>
       </defs>
       <use xlink:href="#ArialMT-63"/>
       <use xlink:href="#ArialMT-6c" x="50"/>
       <use xlink:href="#ArialMT-61" x="72.216797"/>
       <use xlink:href="#ArialMT-75" x="127.832031"/>
       <use xlink:href="#ArialMT-64" x="183.447266"/>
       <use xlink:href="#ArialMT-65" x="239.0625"/>
       <use xlink:href="#ArialMT-33" x="294.677734"/>
       <use xlink:href="#ArialMT-2e" x="350.292969"/>
       <use xlink:href="#ArialMT-37" x="378.076172"/>
      </g>
     </g>
    </g>
   </g>
   <g id="PolyCollection_1">
    <defs>
     <path id="ma54485605d" d="M 47.983055 -112.00494 
L 47.983055 -112.005438 
L 48.841773 -112.006582 
L 49.700492 -112.008545 
L 50.55921 -112.010812 
L 51.417929 -112.013615 
L 52.276648 -112.018396 
L 53.135366 -112.025843 
L 53.994085 -112.037794 
L 54.852803 -112.064693 
L 55.711522 -112.12504 
L 56.57024 -112.22843 
L 57.428959 -112.362517 
L 58.287677 -112.507244 
L 59.146396 -112.661505 
L 60.005115 -112.862159 
L 60.863833 -113.181103 
L 61.722552 -113.672162 
L 62.58127 -114.318686 
L 63.439989 -115.066551 
L 64.298707 -115.881845 
L 65.157426 -116.749717 
L 66.016145 -117.660869 
L 66.874863 -118.58082 
L 67.733582 -119.425024 
L 68.5923 -120.176162 
L 69.451019 -120.959039 
L 70.309737 -121.818729 
L 71.168456 -122.532541 
L 72.027175 -122.796927 
L 72.885893 -122.54429 
L 73.744612 -122.016615 
L 74.60333 -121.524686 
L 75.462049 -121.23502 
L 76.320767 -121.133172 
L 77.179486 -121.007351 
L 78.038205 -120.632045 
L 78.896923 -120.024156 
L 79.755642 -119.417833 
L 80.61436 -118.969978 
L 81.473079 -118.505096 
L 82.331797 -117.78501 
L 83.190516 -116.879578 
L 84.049235 -116.036185 
L 84.907953 -115.3982 
L 85.766672 -114.92293 
L 86.62539 -114.509458 
L 87.484109 -114.150411 
L 88.342827 -113.896291 
L 89.201546 -113.709944 
L 90.060265 -113.500161 
L 90.918983 -113.257489 
L 91.777702 -113.018701 
L 92.63642 -112.80787 
L 93.495139 -112.663753 
L 94.353857 -112.613485 
L 95.212576 -112.637275 
L 96.071294 -112.673549 
L 96.930013 -112.646171 
L 97.788732 -112.537677 
L 98.64745 -112.41944 
L 99.506169 -112.366769 
L 100.364887 -112.387571 
L 101.223606 -112.43272 
L 102.082324 -112.439053 
L 102.941043 -112.391413 
L 103.799762 -112.332477 
L 104.65848 -112.307927 
L 105.517199 -112.321583 
L 106.375917 -112.343332 
L 107.234636 -112.3482 
L 108.093354 -112.323165 
L 108.952073 -112.26458 
L 109.810792 -112.193757 
L 110.66951 -112.136723 
L 111.528229 -112.096628 
L 112.386947 -112.073565 
L 113.245666 -112.08157 
L 114.104384 -112.122225 
L 114.963103 -112.155622 
L 115.821822 -112.138824 
L 116.68054 -112.088115 
L 117.539259 -112.047926 
L 118.397977 -112.03118 
L 119.256696 -112.027091 
L 120.115414 -112.025818 
L 120.974133 -112.023675 
L 121.832852 -112.022486 
L 122.69157 -112.025803 
L 123.550289 -112.034983 
L 124.409007 -112.049464 
L 125.267726 -112.064736 
L 126.126444 -112.07553 
L 126.985163 -112.09044 
L 127.843882 -112.15292 
L 128.7026 -112.349928 
L 129.561319 -112.680141 
L 130.420037 -112.885915 
L 131.278756 -112.729592 
L 132.137474 -112.376325 
L 132.996193 -112.123226 
L 132.996193 -112.00494 
L 132.996193 -112.00494 
L 132.137474 -112.00494 
L 131.278756 -112.00494 
L 130.420037 -112.00494 
L 129.561319 -112.00494 
L 128.7026 -112.00494 
L 127.843882 -112.00494 
L 126.985163 -112.00494 
L 126.126444 -112.00494 
L 125.267726 -112.00494 
L 124.409007 -112.00494 
L 123.550289 -112.00494 
L 122.69157 -112.00494 
L 121.832852 -112.00494 
L 120.974133 -112.00494 
L 120.115414 -112.00494 
L 119.256696 -112.00494 
L 118.397977 -112.00494 
L 117.539259 -112.00494 
L 116.68054 -112.00494 
L 115.821822 -112.00494 
L 114.963103 -112.00494 
L 114.104384 -112.00494 
L 113.245666 -112.00494 
L 112.386947 -112.00494 
L 111.528229 -112.00494 
L 110.66951 -112.00494 
L 109.810792 -112.00494 
L 108.952073 -112.00494 
L 108.093354 -112.00494 
L 107.234636 -112.00494 
L 106.375917 -112.00494 
L 105.517199 -112.00494 
L 104.65848 -112.00494 
L 103.799762 -112.00494 
L 102.941043 -112.00494 
L 102.082324 -112.00494 
L 101.223606 -112.00494 
L 100.364887 -112.00494 
L 99.506169 -112.00494 
L 98.64745 -112.00494 
L 97.788732 -112.00494 
L 96.930013 -112.00494 
L 96.071294 -112.00494 
L 95.212576 -112.00494 
L 94.353857 -112.00494 
L 93.495139 -112.00494 
L 92.63642 -112.00494 
L 91.777702 -112.00494 
L 90.918983 -112.00494 
L 90.060265 -112.00494 
L 89.201546 -112.00494 
L 88.342827 -112.00494 
L 87.484109 -112.00494 
L 86.62539 -112.00494 
L 85.766672 -112.00494 
L 84.907953 -112.00494 
L 84.049235 -112.00494 
L 83.190516 -112.00494 
L 82.331797 -112.00494 
L 81.473079 -112.00494 
L 80.61436 -112.00494 
L 79.755642 -112.00494 
L 78.896923 -112.00494 
L 78.038205 -112.00494 
L 77.179486 -112.00494 
L 76.320767 -112.00494 
L 75.462049 -112.00494 
L 74.60333 -112.00494 
L 73.744612 -112.00494 
L 72.885893 -112.00494 
L 72.027175 -112.00494 
L 71.168456 -112.00494 
L 70.309737 -112.00494 
L 69.451019 -112.00494 
L 68.5923 -112.00494 
L 67.733582 -112.00494 
L 66.874863 -112.00494 
L 66.016145 -112.00494 
L 65.157426 -112.00494 
L 64.298707 -112.00494 
L 63.439989 -112.00494 
L 62.58127 -112.00494 
L 61.722552 -112.00494 
L 60.863833 -112.00494 
L 60.005115 -112.00494 
L 59.146396 -112.00494 
L 58.287677 -112.00494 
L 57.428959 -112.00494 
L 56.57024 -112.00494 
L 55.711522 -112.00494 
L 54.852803 -112.00494 
L 53.994085 -112.00494 
L 53.135366 -112.00494 
L 52.276648 -112.00494 
L 51.417929 -112.00494 
L 50.55921 -112.00494 
L 49.700492 -112.00494 
L 48.841773 -112.00494 
L 47.983055 -112.00494 
z
"/>
    </defs>
    <g clip-path="url(#pf005074bea)">
     <use xlink:href="#ma54485605d" x="0" y="149.289108" style="fill: #b9c1e5; fill-opacity: 0.7"/>
    </g>
   </g>
   <g id="PolyCollection_2">
    <defs>
     <path id="mf4c1f85969" d="M 52.378817 -112.003627 
L 52.378817 -112.00494 
L 53.19614 -112.00494 
L 54.013463 -112.00494 
L 54.830787 -112.00494 
L 55.64811 -112.00494 
L 56.465433 -112.00494 
L 57.282757 -112.00494 
L 58.10008 -112.00494 
L 58.917403 -112.00494 
L 59.734727 -112.00494 
L 60.55205 -112.00494 
L 61.369373 -112.00494 
L 62.186697 -112.00494 
L 63.00402 -112.00494 
L 63.821344 -112.00494 
L 64.638667 -112.00494 
L 65.45599 -112.00494 
L 66.273314 -112.00494 
L 67.090637 -112.00494 
L 67.90796 -112.00494 
L 68.725284 -112.00494 
L 69.542607 -112.00494 
L 70.35993 -112.00494 
L 71.177254 -112.00494 
L 71.994577 -112.00494 
L 72.8119 -112.00494 
L 73.629224 -112.00494 
L 74.446547 -112.00494 
L 75.263871 -112.00494 
L 76.081194 -112.00494 
L 76.898517 -112.00494 
L 77.715841 -112.00494 
L 78.533164 -112.00494 
L 79.350487 -112.00494 
L 80.167811 -112.00494 
L 80.985134 -112.00494 
L 81.802457 -112.00494 
L 82.619781 -112.00494 
L 83.437104 -112.00494 
L 84.254428 -112.00494 
L 85.071751 -112.00494 
L 85.889074 -112.00494 
L 86.706398 -112.00494 
L 87.523721 -112.00494 
L 88.341044 -112.00494 
L 89.158368 -112.00494 
L 89.975691 -112.00494 
L 90.793014 -112.00494 
L 91.610338 -112.00494 
L 92.427661 -112.00494 
L 93.244984 -112.00494 
L 94.062308 -112.00494 
L 94.879631 -112.00494 
L 95.696955 -112.00494 
L 96.514278 -112.00494 
L 97.331601 -112.00494 
L 98.148925 -112.00494 
L 98.966248 -112.00494 
L 99.783571 -112.00494 
L 100.600895 -112.00494 
L 101.418218 -112.00494 
L 102.235541 -112.00494 
L 103.052865 -112.00494 
L 103.870188 -112.00494 
L 104.687511 -112.00494 
L 105.504835 -112.00494 
L 106.322158 -112.00494 
L 107.139482 -112.00494 
L 107.956805 -112.00494 
L 108.774128 -112.00494 
L 109.591452 -112.00494 
L 110.408775 -112.00494 
L 111.226098 -112.00494 
L 112.043422 -112.00494 
L 112.860745 -112.00494 
L 113.678068 -112.00494 
L 114.495392 -112.00494 
L 115.312715 -112.00494 
L 116.130038 -112.00494 
L 116.947362 -112.00494 
L 117.764685 -112.00494 
L 118.582009 -112.00494 
L 119.399332 -112.00494 
L 120.216655 -112.00494 
L 121.033979 -112.00494 
L 121.851302 -112.00494 
L 122.668625 -112.00494 
L 123.485949 -112.00494 
L 124.303272 -112.00494 
L 125.120595 -112.00494 
L 125.937919 -112.00494 
L 126.755242 -112.00494 
L 127.572566 -112.00494 
L 128.389889 -112.00494 
L 129.207212 -112.00494 
L 130.024536 -112.00494 
L 130.841859 -112.00494 
L 131.659182 -112.00494 
L 132.476506 -112.00494 
L 133.293829 -112.00494 
L 133.293829 -111.789548 
L 133.293829 -111.789548 
L 132.476506 -111.416876 
L 131.659182 -110.86696 
L 130.841859 -110.44371 
L 130.024536 -110.484922 
L 129.207212 -110.949919 
L 128.389889 -111.47099 
L 127.572566 -111.78596 
L 126.755242 -111.904468 
L 125.937919 -111.93938 
L 125.120595 -111.958716 
L 124.303272 -111.975273 
L 123.485949 -111.984326 
L 122.668625 -111.984372 
L 121.851302 -111.978611 
L 121.033979 -111.97223 
L 120.216655 -111.969746 
L 119.399332 -111.971795 
L 118.582009 -111.975726 
L 117.764685 -111.979925 
L 116.947362 -111.984551 
L 116.130038 -111.988795 
L 115.312715 -111.990748 
L 114.495392 -111.989214 
L 113.678068 -111.983553 
L 112.860745 -111.972713 
L 112.043422 -111.956518 
L 111.226098 -111.937922 
L 110.408775 -111.920227 
L 109.591452 -111.895169 
L 108.774128 -111.832201 
L 107.956805 -111.69666 
L 107.139482 -111.508296 
L 106.322158 -111.374429 
L 105.504835 -111.401976 
L 104.687511 -111.565699 
L 103.870188 -111.731048 
L 103.052865 -111.797423 
L 102.235541 -111.759694 
L 101.418218 -111.668187 
L 100.600895 -111.585126 
L 99.783571 -111.556267 
L 98.966248 -111.586663 
L 98.148925 -111.637485 
L 97.331601 -111.647157 
L 96.514278 -111.562929 
L 95.696955 -111.37225 
L 94.879631 -111.118746 
L 94.062308 -110.881122 
L 93.244984 -110.718622 
L 92.427661 -110.63948 
L 91.610338 -110.614407 
L 90.793014 -110.59022 
L 89.975691 -110.512104 
L 89.158368 -110.36894 
L 88.341044 -110.190321 
L 87.523721 -109.967927 
L 86.706398 -109.595816 
L 85.889074 -108.947982 
L 85.071751 -108.046581 
L 84.254428 -107.069181 
L 83.437104 -106.162815 
L 82.619781 -105.370883 
L 81.802457 -104.707502 
L 80.985134 -104.148762 
L 80.167811 -103.617055 
L 79.350487 -103.092035 
L 78.533164 -102.659924 
L 77.715841 -102.377567 
L 76.898517 -102.13864 
L 76.081194 -101.788009 
L 75.263871 -101.4004 
L 74.446547 -101.252834 
L 73.629224 -101.439149 
L 72.8119 -101.743391 
L 71.994577 -101.973521 
L 71.177254 -102.213411 
L 70.35993 -102.635508 
L 69.542607 -103.220664 
L 68.725284 -103.840301 
L 67.90796 -104.509392 
L 67.090637 -105.364136 
L 66.273314 -106.440296 
L 65.45599 -107.588084 
L 64.638667 -108.564771 
L 63.821344 -109.189345 
L 63.00402 -109.477451 
L 62.186697 -109.625964 
L 61.369373 -109.842658 
L 60.55205 -110.203766 
L 59.734727 -110.641258 
L 58.917403 -111.034737 
L 58.10008 -111.326067 
L 57.282757 -111.541463 
L 56.465433 -111.717424 
L 55.64811 -111.854005 
L 54.830787 -111.94035 
L 54.013463 -111.982724 
L 53.19614 -111.998852 
L 52.378817 -112.003627 
z
"/>
    </defs>
    <g clip-path="url(#pf005074bea)">
     <use xlink:href="#mf4c1f85969" x="0" y="149.289108" style="fill: #e3bcb6; fill-opacity: 0.7"/>
    </g>
   </g>
   <g id="PolyCollection_3">
    <defs>
     <path id="m927ed68903" d="M 46.140684 -84.367144 
L 46.140684 -84.367519 
L 47.014309 -84.368534 
L 47.887934 -84.369807 
L 48.761559 -84.370025 
L 49.635184 -84.369932 
L 50.508808 -84.371997 
L 51.382433 -84.377402 
L 52.256058 -84.385754 
L 53.129683 -84.400276 
L 54.003307 -84.433469 
L 54.876932 -84.499886 
L 55.750557 -84.602967 
L 56.624182 -84.743817 
L 57.497807 -84.930915 
L 58.371431 -85.173095 
L 59.245056 -85.479367 
L 60.118681 -85.874536 
L 60.992306 -86.394192 
L 61.86593 -87.042123 
L 62.739555 -87.807834 
L 63.61318 -88.725047 
L 64.486805 -89.848769 
L 65.360429 -91.109189 
L 66.234054 -92.252715 
L 67.107679 -93.087459 
L 67.981304 -93.700562 
L 68.854929 -94.230061 
L 69.728553 -94.70347 
L 70.602178 -95.009676 
L 71.475803 -95.073973 
L 72.349428 -95.081496 
L 73.223052 -95.031254 
L 74.096677 -94.735075 
L 74.970302 -94.339445 
L 75.843927 -93.860031 
L 76.717551 -93.037767 
L 77.591176 -92.015434 
L 78.464801 -91.207359 
L 79.338426 -90.75703 
L 80.212051 -90.426823 
L 81.085675 -89.910742 
L 81.9593 -89.240149 
L 82.832925 -88.597659 
L 83.70655 -87.990495 
L 84.580174 -87.408653 
L 85.453799 -86.912592 
L 86.327424 -86.535955 
L 87.201049 -86.189113 
L 88.074674 -85.846345 
L 88.948298 -85.589208 
L 89.821923 -85.395876 
L 90.695548 -85.252263 
L 91.569173 -85.152868 
L 92.442797 -85.029956 
L 93.316422 -84.930707 
L 94.190047 -84.892579 
L 95.063672 -84.834801 
L 95.937296 -84.735675 
L 96.810921 -84.658539 
L 97.684546 -84.627993 
L 98.558171 -84.620603 
L 99.431796 -84.616945 
L 100.30542 -84.614908 
L 101.179045 -84.61061 
L 102.05267 -84.598332 
L 102.926295 -84.584647 
L 103.799919 -84.582169 
L 104.673544 -84.584991 
L 105.547169 -84.58295 
L 106.420794 -84.578301 
L 107.294419 -84.580217 
L 108.168043 -84.589945 
L 109.041668 -84.579133 
L 109.915293 -84.539443 
L 110.788918 -84.497679 
L 111.662542 -84.461013 
L 112.536167 -84.44209 
L 113.409792 -84.45718 
L 114.283417 -84.482168 
L 115.157041 -84.477761 
L 116.030666 -84.448264 
L 116.904291 -84.424784 
L 117.777916 -84.419386 
L 118.651541 -84.420271 
L 119.525165 -84.410825 
L 120.39879 -84.393095 
L 121.272415 -84.37949 
L 122.14604 -84.374685 
L 123.019664 -84.375907 
L 123.893289 -84.376406 
L 124.766914 -84.373989 
L 125.640539 -84.373103 
L 126.514163 -84.375561 
L 127.387788 -84.381825 
L 128.261413 -84.415402 
L 129.135038 -84.53823 
L 130.008663 -84.715441 
L 130.882287 -84.731834 
L 131.755912 -84.56122 
L 132.629537 -84.41956 
L 132.629537 -84.367144 
L 132.629537 -84.367144 
L 131.755912 -84.367144 
L 130.882287 -84.367144 
L 130.008663 -84.367144 
L 129.135038 -84.367144 
L 128.261413 -84.367144 
L 127.387788 -84.367144 
L 126.514163 -84.367144 
L 125.640539 -84.367144 
L 124.766914 -84.367144 
L 123.893289 -84.367144 
L 123.019664 -84.367144 
L 122.14604 -84.367144 
L 121.272415 -84.367144 
L 120.39879 -84.367144 
L 119.525165 -84.367144 
L 118.651541 -84.367144 
L 117.777916 -84.367144 
L 116.904291 -84.367144 
L 116.030666 -84.367144 
L 115.157041 -84.367144 
L 114.283417 -84.367144 
L 113.409792 -84.367144 
L 112.536167 -84.367144 
L 111.662542 -84.367144 
L 110.788918 -84.367144 
L 109.915293 -84.367144 
L 109.041668 -84.367144 
L 108.168043 -84.367144 
L 107.294419 -84.367144 
L 106.420794 -84.367144 
L 105.547169 -84.367144 
L 104.673544 -84.367144 
L 103.799919 -84.367144 
L 102.926295 -84.367144 
L 102.05267 -84.367144 
L 101.179045 -84.367144 
L 100.30542 -84.367144 
L 99.431796 -84.367144 
L 98.558171 -84.367144 
L 97.684546 -84.367144 
L 96.810921 -84.367144 
L 95.937296 -84.367144 
L 95.063672 -84.367144 
L 94.190047 -84.367144 
L 93.316422 -84.367144 
L 92.442797 -84.367144 
L 91.569173 -84.367144 
L 90.695548 -84.367144 
L 89.821923 -84.367144 
L 88.948298 -84.367144 
L 88.074674 -84.367144 
L 87.201049 -84.367144 
L 86.327424 -84.367144 
L 85.453799 -84.367144 
L 84.580174 -84.367144 
L 83.70655 -84.367144 
L 82.832925 -84.367144 
L 81.9593 -84.367144 
L 81.085675 -84.367144 
L 80.212051 -84.367144 
L 79.338426 -84.367144 
L 78.464801 -84.367144 
L 77.591176 -84.367144 
L 76.717551 -84.367144 
L 75.843927 -84.367144 
L 74.970302 -84.367144 
L 74.096677 -84.367144 
L 73.223052 -84.367144 
L 72.349428 -84.367144 
L 71.475803 -84.367144 
L 70.602178 -84.367144 
L 69.728553 -84.367144 
L 68.854929 -84.367144 
L 67.981304 -84.367144 
L 67.107679 -84.367144 
L 66.234054 -84.367144 
L 65.360429 -84.367144 
L 64.486805 -84.367144 
L 63.61318 -84.367144 
L 62.739555 -84.367144 
L 61.86593 -84.367144 
L 60.992306 -84.367144 
L 60.118681 -84.367144 
L 59.245056 -84.367144 
L 58.371431 -84.367144 
L 57.497807 -84.367144 
L 56.624182 -84.367144 
L 55.750557 -84.367144 
L 54.876932 -84.367144 
L 54.003307 -84.367144 
L 53.129683 -84.367144 
L 52.256058 -84.367144 
L 51.382433 -84.367144 
L 50.508808 -84.367144 
L 49.635184 -84.367144 
L 48.761559 -84.367144 
L 47.887934 -84.367144 
L 47.014309 -84.367144 
L 46.140684 -84.367144 
z
"/>
    </defs>
    <g clip-path="url(#pf005074bea)">
     <use xlink:href="#m927ed68903" x="0" y="149.289108" style="fill: #b9c1e5; fill-opacity: 0.7"/>
    </g>
   </g>
   <g id="PolyCollection_4">
    <defs>
     <path id="m40aefbc5ca" d="M 46.905427 -84.366962 
L 46.905427 -84.367144 
L 47.774884 -84.367144 
L 48.64434 -84.367144 
L 49.513797 -84.367144 
L 50.383253 -84.367144 
L 51.25271 -84.367144 
L 52.122166 -84.367144 
L 52.991623 -84.367144 
L 53.861079 -84.367144 
L 54.730536 -84.367144 
L 55.599992 -84.367144 
L 56.469449 -84.367144 
L 57.338905 -84.367144 
L 58.208361 -84.367144 
L 59.077818 -84.367144 
L 59.947274 -84.367144 
L 60.816731 -84.367144 
L 61.686187 -84.367144 
L 62.555644 -84.367144 
L 63.4251 -84.367144 
L 64.294557 -84.367144 
L 65.164013 -84.367144 
L 66.03347 -84.367144 
L 66.902926 -84.367144 
L 67.772383 -84.367144 
L 68.641839 -84.367144 
L 69.511296 -84.367144 
L 70.380752 -84.367144 
L 71.250208 -84.367144 
L 72.119665 -84.367144 
L 72.989121 -84.367144 
L 73.858578 -84.367144 
L 74.728034 -84.367144 
L 75.597491 -84.367144 
L 76.466947 -84.367144 
L 77.336404 -84.367144 
L 78.20586 -84.367144 
L 79.075317 -84.367144 
L 79.944773 -84.367144 
L 80.81423 -84.367144 
L 81.683686 -84.367144 
L 82.553142 -84.367144 
L 83.422599 -84.367144 
L 84.292055 -84.367144 
L 85.161512 -84.367144 
L 86.030968 -84.367144 
L 86.900425 -84.367144 
L 87.769881 -84.367144 
L 88.639338 -84.367144 
L 89.508794 -84.367144 
L 90.378251 -84.367144 
L 91.247707 -84.367144 
L 92.117164 -84.367144 
L 92.98662 -84.367144 
L 93.856077 -84.367144 
L 94.725533 -84.367144 
L 95.594989 -84.367144 
L 96.464446 -84.367144 
L 97.333902 -84.367144 
L 98.203359 -84.367144 
L 99.072815 -84.367144 
L 99.942272 -84.367144 
L 100.811728 -84.367144 
L 101.681185 -84.367144 
L 102.550641 -84.367144 
L 103.420098 -84.367144 
L 104.289554 -84.367144 
L 105.159011 -84.367144 
L 106.028467 -84.367144 
L 106.897924 -84.367144 
L 107.76738 -84.367144 
L 108.636836 -84.367144 
L 109.506293 -84.367144 
L 110.375749 -84.367144 
L 111.245206 -84.367144 
L 112.114662 -84.367144 
L 112.984119 -84.367144 
L 113.853575 -84.367144 
L 114.723032 -84.367144 
L 115.592488 -84.367144 
L 116.461945 -84.367144 
L 117.331401 -84.367144 
L 118.200858 -84.367144 
L 119.070314 -84.367144 
L 119.939771 -84.367144 
L 120.809227 -84.367144 
L 121.678683 -84.367144 
L 122.54814 -84.367144 
L 123.417596 -84.367144 
L 124.287053 -84.367144 
L 125.156509 -84.367144 
L 126.025966 -84.367144 
L 126.895422 -84.367144 
L 127.764879 -84.367144 
L 128.634335 -84.367144 
L 129.503792 -84.367144 
L 130.373248 -84.367144 
L 131.242705 -84.367144 
L 132.112161 -84.367144 
L 132.981617 -84.367144 
L 132.981617 -84.25124 
L 132.981617 -84.25124 
L 132.112161 -83.996905 
L 131.242705 -83.645008 
L 130.373248 -83.504832 
L 129.503792 -83.726752 
L 128.634335 -84.040948 
L 127.764879 -84.195449 
L 126.895422 -84.229143 
L 126.025966 -84.251087 
L 125.156509 -84.285222 
L 124.287053 -84.317652 
L 123.417596 -84.338833 
L 122.54814 -84.341755 
L 121.678683 -84.327388 
L 120.809227 -84.308048 
L 119.939771 -84.295129 
L 119.070314 -84.289687 
L 118.200858 -84.290555 
L 117.331401 -84.297395 
L 116.461945 -84.304757 
L 115.592488 -84.306837 
L 114.723032 -84.30477 
L 113.853575 -84.304777 
L 112.984119 -84.309937 
L 112.114662 -84.313613 
L 111.245206 -84.306547 
L 110.375749 -84.287743 
L 109.506293 -84.258807 
L 108.636836 -84.208014 
L 107.76738 -84.113831 
L 106.897924 -83.986039 
L 106.028467 -83.894348 
L 105.159011 -83.911095 
L 104.289554 -84.006063 
L 103.420098 -84.070317 
L 102.550641 -84.056948 
L 101.681185 -83.995329 
L 100.811728 -83.921028 
L 99.942272 -83.8822 
L 99.072815 -83.906356 
L 98.203359 -83.953081 
L 97.333902 -83.973347 
L 96.464446 -83.95934 
L 95.594989 -83.905069 
L 94.725533 -83.785761 
L 93.856077 -83.603647 
L 92.98662 -83.396463 
L 92.117164 -83.222715 
L 91.247707 -83.111033 
L 90.378251 -82.990568 
L 89.508794 -82.757187 
L 88.639338 -82.38175 
L 87.769881 -81.950205 
L 86.900425 -81.573696 
L 86.030968 -81.194321 
L 85.161512 -80.672832 
L 84.292055 -80.015442 
L 83.422599 -79.270557 
L 82.553142 -78.419829 
L 81.683686 -77.491289 
L 80.81423 -76.573982 
L 79.944773 -75.782012 
L 79.075317 -75.22992 
L 78.20586 -74.903978 
L 77.336404 -74.667187 
L 76.466947 -74.425508 
L 75.597491 -74.17467 
L 74.728034 -73.908732 
L 73.858578 -73.661001 
L 72.989121 -73.583538 
L 72.119665 -73.796897 
L 71.250208 -74.300139 
L 70.380752 -75.014728 
L 69.511296 -75.803133 
L 68.641839 -76.521606 
L 67.772383 -77.121432 
L 66.902926 -77.70298 
L 66.03347 -78.395561 
L 65.164013 -79.187519 
L 64.294557 -79.959789 
L 63.4251 -80.642872 
L 62.555644 -81.270639 
L 61.686187 -81.888061 
L 60.816731 -82.452775 
L 59.947274 -82.893939 
L 59.077818 -83.235894 
L 58.208361 -83.545414 
L 57.338905 -83.822936 
L 56.469449 -84.033111 
L 55.599992 -84.169228 
L 54.730536 -84.252491 
L 53.861079 -84.303694 
L 52.991623 -84.333862 
L 52.122166 -84.349888 
L 51.25271 -84.357578 
L 50.383253 -84.361532 
L 49.513797 -84.363986 
L 48.64434 -84.365558 
L 47.774884 -84.366504 
L 46.905427 -84.366962 
z
"/>
    </defs>
    <g clip-path="url(#pf005074bea)">
     <use xlink:href="#m40aefbc5ca" x="0" y="149.289108" style="fill: #e3bcb6; fill-opacity: 0.7"/>
    </g>
   </g>
   <g id="PolyCollection_5">
    <defs>
     <path id="m58c8be0016" d="M 43.558396 -56.729349 
L 43.558396 -56.729576 
L 44.458641 -56.730511 
L 45.358887 -56.733512 
L 46.259132 -56.740564 
L 47.159378 -56.751908 
L 48.059623 -56.764865 
L 48.959869 -56.77914 
L 49.860114 -56.796848 
L 50.76036 -56.821537 
L 51.660606 -56.86046 
L 52.560851 -56.906647 
L 53.461097 -56.956789 
L 54.361342 -57.038769 
L 55.261588 -57.166601 
L 56.161833 -57.300222 
L 57.062079 -57.417074 
L 57.962324 -57.607285 
L 58.86257 -57.979676 
L 59.762815 -58.549187 
L 60.663061 -59.282581 
L 61.563306 -60.1316 
L 62.463552 -61.011327 
L 63.363797 -61.946585 
L 64.264043 -63.082469 
L 65.164288 -64.396549 
L 66.064534 -65.651424 
L 66.964779 -66.59322 
L 67.865025 -67.169674 
L 68.765271 -67.516999 
L 69.665516 -67.728313 
L 70.565762 -67.784467 
L 71.466007 -67.667657 
L 72.366253 -67.373677 
L 73.266498 -66.801665 
L 74.166744 -66.057768 
L 75.066989 -65.408776 
L 75.967235 -64.854381 
L 76.86748 -64.260539 
L 77.767726 -63.578695 
L 78.667971 -62.84034 
L 79.568217 -62.141418 
L 80.468462 -61.546758 
L 81.368708 -60.939436 
L 82.268953 -60.265658 
L 83.169199 -59.653714 
L 84.069444 -59.178886 
L 84.96969 -58.824065 
L 85.869935 -58.527557 
L 86.770181 -58.232109 
L 87.670427 -57.968484 
L 88.570672 -57.812717 
L 89.470918 -57.754261 
L 90.371163 -57.686518 
L 91.271409 -57.562266 
L 92.171654 -57.419303 
L 93.0719 -57.299025 
L 93.972145 -57.222899 
L 94.872391 -57.186 
L 95.772636 -57.157522 
L 96.672882 -57.119097 
L 97.573127 -57.087064 
L 98.473373 -57.06781 
L 99.373618 -57.045954 
L 100.273864 -57.018951 
L 101.174109 -57.001663 
L 102.074355 -56.989402 
L 102.9746 -56.962758 
L 103.874846 -56.921718 
L 104.775092 -56.882011 
L 105.675337 -56.862261 
L 106.575583 -56.866586 
L 107.475828 -56.872564 
L 108.376074 -56.870153 
L 109.276319 -56.863467 
L 110.176565 -56.852437 
L 111.07681 -56.842477 
L 111.977056 -56.831588 
L 112.877301 -56.815005 
L 113.777547 -56.805962 
L 114.677792 -56.807392 
L 115.578038 -56.802832 
L 116.478283 -56.795641 
L 117.378529 -56.793592 
L 118.278774 -56.794775 
L 119.17902 -56.799666 
L 120.079265 -56.800914 
L 120.979511 -56.793977 
L 121.879756 -56.780725 
L 122.780002 -56.767795 
L 123.680248 -56.7606 
L 124.580493 -56.758058 
L 125.480739 -56.761698 
L 126.380984 -56.767821 
L 127.28123 -56.771181 
L 128.181475 -56.791098 
L 129.081721 -56.881204 
L 129.981966 -57.019411 
L 130.882212 -57.031126 
L 131.782457 -56.889764 
L 132.682703 -56.772427 
L 132.682703 -56.729349 
L 132.682703 -56.729349 
L 131.782457 -56.729349 
L 130.882212 -56.729349 
L 129.981966 -56.729349 
L 129.081721 -56.729349 
L 128.181475 -56.729349 
L 127.28123 -56.729349 
L 126.380984 -56.729349 
L 125.480739 -56.729349 
L 124.580493 -56.729349 
L 123.680248 -56.729349 
L 122.780002 -56.729349 
L 121.879756 -56.729349 
L 120.979511 -56.729349 
L 120.079265 -56.729349 
L 119.17902 -56.729349 
L 118.278774 -56.729349 
L 117.378529 -56.729349 
L 116.478283 -56.729349 
L 115.578038 -56.729349 
L 114.677792 -56.729349 
L 113.777547 -56.729349 
L 112.877301 -56.729349 
L 111.977056 -56.729349 
L 111.07681 -56.729349 
L 110.176565 -56.729349 
L 109.276319 -56.729349 
L 108.376074 -56.729349 
L 107.475828 -56.729349 
L 106.575583 -56.729349 
L 105.675337 -56.729349 
L 104.775092 -56.729349 
L 103.874846 -56.729349 
L 102.9746 -56.729349 
L 102.074355 -56.729349 
L 101.174109 -56.729349 
L 100.273864 -56.729349 
L 99.373618 -56.729349 
L 98.473373 -56.729349 
L 97.573127 -56.729349 
L 96.672882 -56.729349 
L 95.772636 -56.729349 
L 94.872391 -56.729349 
L 93.972145 -56.729349 
L 93.0719 -56.729349 
L 92.171654 -56.729349 
L 91.271409 -56.729349 
L 90.371163 -56.729349 
L 89.470918 -56.729349 
L 88.570672 -56.729349 
L 87.670427 -56.729349 
L 86.770181 -56.729349 
L 85.869935 -56.729349 
L 84.96969 -56.729349 
L 84.069444 -56.729349 
L 83.169199 -56.729349 
L 82.268953 -56.729349 
L 81.368708 -56.729349 
L 80.468462 -56.729349 
L 79.568217 -56.729349 
L 78.667971 -56.729349 
L 77.767726 -56.729349 
L 76.86748 -56.729349 
L 75.967235 -56.729349 
L 75.066989 -56.729349 
L 74.166744 -56.729349 
L 73.266498 -56.729349 
L 72.366253 -56.729349 
L 71.466007 -56.729349 
L 70.565762 -56.729349 
L 69.665516 -56.729349 
L 68.765271 -56.729349 
L 67.865025 -56.729349 
L 66.964779 -56.729349 
L 66.064534 -56.729349 
L 65.164288 -56.729349 
L 64.264043 -56.729349 
L 63.363797 -56.729349 
L 62.463552 -56.729349 
L 61.563306 -56.729349 
L 60.663061 -56.729349 
L 59.762815 -56.729349 
L 58.86257 -56.729349 
L 57.962324 -56.729349 
L 57.062079 -56.729349 
L 56.161833 -56.729349 
L 55.261588 -56.729349 
L 54.361342 -56.729349 
L 53.461097 -56.729349 
L 52.560851 -56.729349 
L 51.660606 -56.729349 
L 50.76036 -56.729349 
L 49.860114 -56.729349 
L 48.959869 -56.729349 
L 48.059623 -56.729349 
L 47.159378 -56.729349 
L 46.259132 -56.729349 
L 45.358887 -56.729349 
L 44.458641 -56.729349 
L 43.558396 -56.729349 
z
"/>
    </defs>
    <g clip-path="url(#pf005074bea)">
     <use xlink:href="#m58c8be0016" x="0" y="149.289108" style="fill: #b9c1e5; fill-opacity: 0.7"/>
    </g>
   </g>
   <g id="PolyCollection_6">
    <defs>
     <path id="mae189ce12b" d="M 45.319305 -56.729013 
L 45.319305 -56.729349 
L 46.205465 -56.729349 
L 47.091625 -56.729349 
L 47.977785 -56.729349 
L 48.863944 -56.729349 
L 49.750104 -56.729349 
L 50.636264 -56.729349 
L 51.522423 -56.729349 
L 52.408583 -56.729349 
L 53.294743 -56.729349 
L 54.180903 -56.729349 
L 55.067062 -56.729349 
L 55.953222 -56.729349 
L 56.839382 -56.729349 
L 57.725541 -56.729349 
L 58.611701 -56.729349 
L 59.497861 -56.729349 
L 60.384021 -56.729349 
L 61.27018 -56.729349 
L 62.15634 -56.729349 
L 63.0425 -56.729349 
L 63.928659 -56.729349 
L 64.814819 -56.729349 
L 65.700979 -56.729349 
L 66.587139 -56.729349 
L 67.473298 -56.729349 
L 68.359458 -56.729349 
L 69.245618 -56.729349 
L 70.131777 -56.729349 
L 71.017937 -56.729349 
L 71.904097 -56.729349 
L 72.790257 -56.729349 
L 73.676416 -56.729349 
L 74.562576 -56.729349 
L 75.448736 -56.729349 
L 76.334895 -56.729349 
L 77.221055 -56.729349 
L 78.107215 -56.729349 
L 78.993375 -56.729349 
L 79.879534 -56.729349 
L 80.765694 -56.729349 
L 81.651854 -56.729349 
L 82.538013 -56.729349 
L 83.424173 -56.729349 
L 84.310333 -56.729349 
L 85.196493 -56.729349 
L 86.082652 -56.729349 
L 86.968812 -56.729349 
L 87.854972 -56.729349 
L 88.741131 -56.729349 
L 89.627291 -56.729349 
L 90.513451 -56.729349 
L 91.399611 -56.729349 
L 92.28577 -56.729349 
L 93.17193 -56.729349 
L 94.05809 -56.729349 
L 94.944249 -56.729349 
L 95.830409 -56.729349 
L 96.716569 -56.729349 
L 97.602729 -56.729349 
L 98.488888 -56.729349 
L 99.375048 -56.729349 
L 100.261208 -56.729349 
L 101.147367 -56.729349 
L 102.033527 -56.729349 
L 102.919687 -56.729349 
L 103.805847 -56.729349 
L 104.692006 -56.729349 
L 105.578166 -56.729349 
L 106.464326 -56.729349 
L 107.350485 -56.729349 
L 108.236645 -56.729349 
L 109.122805 -56.729349 
L 110.008964 -56.729349 
L 110.895124 -56.729349 
L 111.781284 -56.729349 
L 112.667444 -56.729349 
L 113.553603 -56.729349 
L 114.439763 -56.729349 
L 115.325923 -56.729349 
L 116.212082 -56.729349 
L 117.098242 -56.729349 
L 117.984402 -56.729349 
L 118.870562 -56.729349 
L 119.756721 -56.729349 
L 120.642881 -56.729349 
L 121.529041 -56.729349 
L 122.4152 -56.729349 
L 123.30136 -56.729349 
L 124.18752 -56.729349 
L 125.07368 -56.729349 
L 125.959839 -56.729349 
L 126.845999 -56.729349 
L 127.732159 -56.729349 
L 128.618318 -56.729349 
L 129.504478 -56.729349 
L 130.390638 -56.729349 
L 131.276798 -56.729349 
L 132.162957 -56.729349 
L 133.049117 -56.729349 
L 133.049117 -56.570023 
L 133.049117 -56.570023 
L 132.162957 -56.224096 
L 131.276798 -55.744279 
L 130.390638 -55.548148 
L 129.504478 -55.856681 
L 128.618318 -56.327868 
L 127.732159 -56.605161 
L 126.845999 -56.688005 
L 125.959839 -56.697869 
L 125.07368 -56.697561 
L 124.18752 -56.702256 
L 123.30136 -56.707257 
L 122.4152 -56.703837 
L 121.529041 -56.693873 
L 120.642881 -56.686965 
L 119.756721 -56.688029 
L 118.870562 -56.693868 
L 117.984402 -56.697308 
L 117.098242 -56.695557 
L 116.212082 -56.693354 
L 115.325923 -56.696246 
L 114.439763 -56.702908 
L 113.553603 -56.708181 
L 112.667444 -56.710257 
L 111.781284 -56.708914 
L 110.895124 -56.703316 
L 110.008964 -56.692209 
L 109.122805 -56.666743 
L 108.236645 -56.597807 
L 107.350485 -56.461058 
L 106.464326 -56.318255 
L 105.578166 -56.294594 
L 104.692006 -56.398068 
L 103.805847 -56.501883 
L 102.919687 -56.520196 
L 102.033527 -56.454181 
L 101.147367 -56.330311 
L 100.261208 -56.210775 
L 99.375048 -56.190635 
L 98.488888 -56.292231 
L 97.602729 -56.415038 
L 96.716569 -56.430236 
L 95.830409 -56.281563 
L 94.944249 -56.022341 
L 94.05809 -55.813335 
L 93.17193 -55.765979 
L 92.28577 -55.780008 
L 91.399611 -55.682643 
L 90.513451 -55.421349 
L 89.627291 -55.074434 
L 88.741131 -54.778693 
L 87.854972 -54.577963 
L 86.968812 -54.339603 
L 86.082652 -53.894812 
L 85.196493 -53.251451 
L 84.310333 -52.521067 
L 83.424173 -51.653467 
L 82.538013 -50.588806 
L 81.651854 -49.535881 
L 80.765694 -48.738662 
L 79.879534 -48.151128 
L 78.993375 -47.640758 
L 78.107215 -47.325236 
L 77.221055 -47.291575 
L 76.334895 -47.271517 
L 75.448736 -47.040372 
L 74.562576 -46.745952 
L 73.676416 -46.566906 
L 72.790257 -46.443205 
L 71.904097 -46.318741 
L 71.017937 -46.365867 
L 70.131777 -46.771287 
L 69.245618 -47.465186 
L 68.359458 -48.264586 
L 67.473298 -49.12159 
L 66.587139 -50.059643 
L 65.700979 -51.036017 
L 64.814819 -51.942849 
L 63.928659 -52.680412 
L 63.0425 -53.239991 
L 62.15634 -53.733546 
L 61.27018 -54.296623 
L 60.384021 -54.934051 
L 59.497861 -55.523483 
L 58.611701 -55.939551 
L 57.725541 -56.178954 
L 56.839382 -56.335192 
L 55.953222 -56.462512 
L 55.067062 -56.559964 
L 54.180903 -56.626993 
L 53.294743 -56.670107 
L 52.408583 -56.694507 
L 51.522423 -56.706256 
L 50.636264 -56.713359 
L 49.750104 -56.719876 
L 48.863944 -56.724303 
L 47.977785 -56.726111 
L 47.091625 -56.72717 
L 46.205465 -56.728277 
L 45.319305 -56.729013 
z
"/>
    </defs>
    <g clip-path="url(#pf005074bea)">
     <use xlink:href="#mae189ce12b" x="0" y="149.289108" style="fill: #e3bcb6; fill-opacity: 0.7"/>
    </g>
   </g>
   <g id="PolyCollection_7">
    <defs>
     <path id="m5b065554e0" d="M 46.186218 -29.091554 
L 46.186218 -29.091909 
L 47.060599 -29.092811 
L 47.93498 -29.094056 
L 48.809361 -29.09476 
L 49.683741 -29.09576 
L 50.558122 -29.0998 
L 51.432503 -29.109167 
L 52.306884 -29.126023 
L 53.181265 -29.155214 
L 54.055646 -29.207793 
L 54.930027 -29.306098 
L 55.804407 -29.474751 
L 56.678788 -29.692278 
L 57.553169 -29.896517 
L 58.42755 -30.102154 
L 59.301931 -30.414878 
L 60.176312 -30.902908 
L 61.050693 -31.536748 
L 61.925073 -32.287264 
L 62.799454 -33.180282 
L 63.673835 -34.150227 
L 64.548216 -35.1068 
L 65.422597 -36.059732 
L 66.296978 -36.98307 
L 67.171359 -37.819656 
L 68.045739 -38.582482 
L 68.92012 -39.220892 
L 69.794501 -39.619965 
L 70.668882 -39.745381 
L 71.543263 -39.647004 
L 72.417644 -39.439622 
L 73.292025 -39.211776 
L 74.166405 -38.99724 
L 75.040786 -38.790735 
L 75.915167 -38.417383 
L 76.789548 -37.670456 
L 77.663929 -36.708997 
L 78.53831 -35.893646 
L 79.412691 -35.303469 
L 80.287071 -34.760194 
L 81.161452 -34.1681 
L 82.035833 -33.581718 
L 82.910214 -33.011117 
L 83.784595 -32.423547 
L 84.658976 -31.799177 
L 85.533357 -31.16462 
L 86.407737 -30.670338 
L 87.282118 -30.383588 
L 88.156499 -30.187959 
L 89.03088 -30.015203 
L 89.905261 -29.914182 
L 90.779642 -29.897204 
L 91.654023 -29.868066 
L 92.528403 -29.775479 
L 93.402784 -29.669699 
L 94.277165 -29.583907 
L 95.151546 -29.530509 
L 96.025927 -29.522747 
L 96.900308 -29.536973 
L 97.774689 -29.530136 
L 98.64907 -29.505801 
L 99.52345 -29.482378 
L 100.397831 -29.44572 
L 101.272212 -29.399598 
L 102.146593 -29.37166 
L 103.020974 -29.35925 
L 103.895355 -29.337854 
L 104.769736 -29.312351 
L 105.644116 -29.303011 
L 106.518497 -29.308771 
L 107.392878 -29.305159 
L 108.267259 -29.283099 
L 109.14164 -29.262254 
L 110.016021 -29.24608 
L 110.890402 -29.228918 
L 111.764782 -29.222195 
L 112.639163 -29.230768 
L 113.513544 -29.242151 
L 114.387925 -29.239762 
L 115.262306 -29.214477 
L 116.136687 -29.175016 
L 117.011068 -29.149976 
L 117.885448 -29.160556 
L 118.759829 -29.19068 
L 119.63421 -29.205393 
L 120.508591 -29.199569 
L 121.382972 -29.182869 
L 122.257353 -29.158517 
L 123.131734 -29.138528 
L 124.006114 -29.128632 
L 124.880495 -29.12427 
L 125.754876 -29.123363 
L 126.629257 -29.126269 
L 127.503638 -29.139387 
L 128.378019 -29.187255 
L 129.2524 -29.305948 
L 130.12678 -29.434362 
L 131.001161 -29.411998 
L 131.875542 -29.257606 
L 132.749923 -29.138628 
L 132.749923 -29.091554 
L 132.749923 -29.091554 
L 131.875542 -29.091554 
L 131.001161 -29.091554 
L 130.12678 -29.091554 
L 129.2524 -29.091554 
L 128.378019 -29.091554 
L 127.503638 -29.091554 
L 126.629257 -29.091554 
L 125.754876 -29.091554 
L 124.880495 -29.091554 
L 124.006114 -29.091554 
L 123.131734 -29.091554 
L 122.257353 -29.091554 
L 121.382972 -29.091554 
L 120.508591 -29.091554 
L 119.63421 -29.091554 
L 118.759829 -29.091554 
L 117.885448 -29.091554 
L 117.011068 -29.091554 
L 116.136687 -29.091554 
L 115.262306 -29.091554 
L 114.387925 -29.091554 
L 113.513544 -29.091554 
L 112.639163 -29.091554 
L 111.764782 -29.091554 
L 110.890402 -29.091554 
L 110.016021 -29.091554 
L 109.14164 -29.091554 
L 108.267259 -29.091554 
L 107.392878 -29.091554 
L 106.518497 -29.091554 
L 105.644116 -29.091554 
L 104.769736 -29.091554 
L 103.895355 -29.091554 
L 103.020974 -29.091554 
L 102.146593 -29.091554 
L 101.272212 -29.091554 
L 100.397831 -29.091554 
L 99.52345 -29.091554 
L 98.64907 -29.091554 
L 97.774689 -29.091554 
L 96.900308 -29.091554 
L 96.025927 -29.091554 
L 95.151546 -29.091554 
L 94.277165 -29.091554 
L 93.402784 -29.091554 
L 92.528403 -29.091554 
L 91.654023 -29.091554 
L 90.779642 -29.091554 
L 89.905261 -29.091554 
L 89.03088 -29.091554 
L 88.156499 -29.091554 
L 87.282118 -29.091554 
L 86.407737 -29.091554 
L 85.533357 -29.091554 
L 84.658976 -29.091554 
L 83.784595 -29.091554 
L 82.910214 -29.091554 
L 82.035833 -29.091554 
L 81.161452 -29.091554 
L 80.287071 -29.091554 
L 79.412691 -29.091554 
L 78.53831 -29.091554 
L 77.663929 -29.091554 
L 76.789548 -29.091554 
L 75.915167 -29.091554 
L 75.040786 -29.091554 
L 74.166405 -29.091554 
L 73.292025 -29.091554 
L 72.417644 -29.091554 
L 71.543263 -29.091554 
L 70.668882 -29.091554 
L 69.794501 -29.091554 
L 68.92012 -29.091554 
L 68.045739 -29.091554 
L 67.171359 -29.091554 
L 66.296978 -29.091554 
L 65.422597 -29.091554 
L 64.548216 -29.091554 
L 63.673835 -29.091554 
L 62.799454 -29.091554 
L 61.925073 -29.091554 
L 61.050693 -29.091554 
L 60.176312 -29.091554 
L 59.301931 -29.091554 
L 58.42755 -29.091554 
L 57.553169 -29.091554 
L 56.678788 -29.091554 
L 55.804407 -29.091554 
L 54.930027 -29.091554 
L 54.055646 -29.091554 
L 53.181265 -29.091554 
L 52.306884 -29.091554 
L 51.432503 -29.091554 
L 50.558122 -29.091554 
L 49.683741 -29.091554 
L 48.809361 -29.091554 
L 47.93498 -29.091554 
L 47.060599 -29.091554 
L 46.186218 -29.091554 
z
"/>
    </defs>
    <g clip-path="url(#pf005074bea)">
     <use xlink:href="#m5b065554e0" x="0" y="149.289108" style="fill: #b9c1e5; fill-opacity: 0.7"/>
    </g>
   </g>
   <g id="PolyCollection_8">
    <defs>
     <path id="m048f93fb82" d="M 46.535014 -29.091376 
L 46.535014 -29.091554 
L 47.408603 -29.091554 
L 48.282192 -29.091554 
L 49.155781 -29.091554 
L 50.029369 -29.091554 
L 50.902958 -29.091554 
L 51.776547 -29.091554 
L 52.650136 -29.091554 
L 53.523725 -29.091554 
L 54.397314 -29.091554 
L 55.270903 -29.091554 
L 56.144492 -29.091554 
L 57.018081 -29.091554 
L 57.89167 -29.091554 
L 58.765259 -29.091554 
L 59.638848 -29.091554 
L 60.512436 -29.091554 
L 61.386025 -29.091554 
L 62.259614 -29.091554 
L 63.133203 -29.091554 
L 64.006792 -29.091554 
L 64.880381 -29.091554 
L 65.75397 -29.091554 
L 66.627559 -29.091554 
L 67.501148 -29.091554 
L 68.374737 -29.091554 
L 69.248326 -29.091554 
L 70.121915 -29.091554 
L 70.995503 -29.091554 
L 71.869092 -29.091554 
L 72.742681 -29.091554 
L 73.61627 -29.091554 
L 74.489859 -29.091554 
L 75.363448 -29.091554 
L 76.237037 -29.091554 
L 77.110626 -29.091554 
L 77.984215 -29.091554 
L 78.857804 -29.091554 
L 79.731393 -29.091554 
L 80.604982 -29.091554 
L 81.47857 -29.091554 
L 82.352159 -29.091554 
L 83.225748 -29.091554 
L 84.099337 -29.091554 
L 84.972926 -29.091554 
L 85.846515 -29.091554 
L 86.720104 -29.091554 
L 87.593693 -29.091554 
L 88.467282 -29.091554 
L 89.340871 -29.091554 
L 90.21446 -29.091554 
L 91.088049 -29.091554 
L 91.961637 -29.091554 
L 92.835226 -29.091554 
L 93.708815 -29.091554 
L 94.582404 -29.091554 
L 95.455993 -29.091554 
L 96.329582 -29.091554 
L 97.203171 -29.091554 
L 98.07676 -29.091554 
L 98.950349 -29.091554 
L 99.823938 -29.091554 
L 100.697527 -29.091554 
L 101.571116 -29.091554 
L 102.444705 -29.091554 
L 103.318293 -29.091554 
L 104.191882 -29.091554 
L 105.065471 -29.091554 
L 105.93906 -29.091554 
L 106.812649 -29.091554 
L 107.686238 -29.091554 
L 108.559827 -29.091554 
L 109.433416 -29.091554 
L 110.307005 -29.091554 
L 111.180594 -29.091554 
L 112.054183 -29.091554 
L 112.927772 -29.091554 
L 113.80136 -29.091554 
L 114.674949 -29.091554 
L 115.548538 -29.091554 
L 116.422127 -29.091554 
L 117.295716 -29.091554 
L 118.169305 -29.091554 
L 119.042894 -29.091554 
L 119.916483 -29.091554 
L 120.790072 -29.091554 
L 121.663661 -29.091554 
L 122.53725 -29.091554 
L 123.410839 -29.091554 
L 124.284427 -29.091554 
L 125.158016 -29.091554 
L 126.031605 -29.091554 
L 126.905194 -29.091554 
L 127.778783 -29.091554 
L 128.652372 -29.091554 
L 129.525961 -29.091554 
L 130.39955 -29.091554 
L 131.273139 -29.091554 
L 132.146728 -29.091554 
L 133.020317 -29.091554 
L 133.020317 -28.976652 
L 133.020317 -28.976652 
L 132.146728 -28.726155 
L 131.273139 -28.374035 
L 130.39955 -28.219325 
L 129.525961 -28.429178 
L 128.652372 -28.764522 
L 127.778783 -28.965299 
L 126.905194 -29.028675 
L 126.031605 -29.043043 
L 125.158016 -29.049782 
L 124.284427 -29.056568 
L 123.410839 -29.062596 
L 122.53725 -29.064024 
L 121.663661 -29.060262 
L 120.790072 -29.053915 
L 119.916483 -29.044505 
L 119.042894 -29.030029 
L 118.169305 -29.016204 
L 117.295716 -29.011309 
L 116.422127 -29.012987 
L 115.548538 -29.016071 
L 114.674949 -29.021346 
L 113.80136 -29.027138 
L 112.927772 -29.025113 
L 112.054183 -29.007173 
L 111.180594 -28.976062 
L 110.307005 -28.945402 
L 109.433416 -28.920127 
L 108.559827 -28.87975 
L 107.686238 -28.793171 
L 106.812649 -28.677066 
L 105.93906 -28.619549 
L 105.065471 -28.663552 
L 104.191882 -28.722209 
L 103.318293 -28.699182 
L 102.444705 -28.608887 
L 101.571116 -28.524712 
L 100.697527 -28.47459 
L 99.823938 -28.453138 
L 98.950349 -28.469361 
L 98.07676 -28.527138 
L 97.203171 -28.59377 
L 96.329582 -28.596155 
L 95.455993 -28.478207 
L 94.582404 -28.287818 
L 93.708815 -28.131081 
L 92.835226 -28.037396 
L 91.961637 -27.964194 
L 91.088049 -27.857082 
L 90.21446 -27.653889 
L 89.340871 -27.356526 
L 88.467282 -27.099219 
L 87.593693 -26.994075 
L 86.720104 -26.906981 
L 85.846515 -26.563926 
L 84.972926 -25.903019 
L 84.099337 -25.08535 
L 83.225748 -24.203176 
L 82.352159 -23.307541 
L 81.47857 -22.537455 
L 80.604982 -21.927444 
L 79.731393 -21.36987 
L 78.857804 -20.823208 
L 77.984215 -20.324958 
L 77.110626 -19.867281 
L 76.237037 -19.374023 
L 75.363448 -18.838516 
L 74.489859 -18.39411 
L 73.61627 -18.131569 
L 72.742681 -18.036436 
L 71.869092 -18.15218 
L 70.995503 -18.530079 
L 70.121915 -19.120097 
L 69.248326 -19.831794 
L 68.374737 -20.567623 
L 67.501148 -21.302326 
L 66.627559 -22.148623 
L 65.75397 -23.143981 
L 64.880381 -24.111827 
L 64.006792 -24.890243 
L 63.133203 -25.504454 
L 62.259614 -26.091879 
L 61.386025 -26.718962 
L 60.512436 -27.293389 
L 59.638848 -27.724667 
L 58.765259 -28.034747 
L 57.89167 -28.289366 
L 57.018081 -28.5286 
L 56.144492 -28.735846 
L 55.270903 -28.877996 
L 54.397314 -28.961307 
L 53.523725 -29.012615 
L 52.650136 -29.046721 
L 51.776547 -29.067416 
L 50.902958 -29.078537 
L 50.029369 -29.0847 
L 49.155781 -29.088171 
L 48.282192 -29.089986 
L 47.408603 -29.090934 
L 46.535014 -29.091376 
z
"/>
    </defs>
    <g clip-path="url(#pf005074bea)">
     <use xlink:href="#m048f93fb82" x="0" y="149.289108" style="fill: #e3bcb6; fill-opacity: 0.7"/>
    </g>
   </g>
   <g id="line2d_11">
    <defs>
     <path id="mb2565c7b9a" d="M 0 0.81 
C 0.214815 0.81 0.42086 0.724653 0.572756 0.572756 
C 0.724653 0.42086 0.81 0.214815 0.81 0 
C 0.81 -0.214815 0.724653 -0.42086 0.572756 -0.572756 
C 0.42086 -0.724653 0.214815 -0.81 0 -0.81 
C -0.214815 -0.81 -0.42086 -0.724653 -0.572756 -0.572756 
C -0.724653 -0.42086 -0.81 -0.214815 -0.81 0 
C -0.81 0.214815 -0.724653 0.42086 -0.572756 0.572756 
C -0.42086 0.724653 -0.214815 0.81 0 0.81 
z
" style="stroke: #262626; stroke-width: 0.6075"/>
    </defs>
    <g clip-path="url(#pf005074bea)">
     <use xlink:href="#mb2565c7b9a" x="74.715665" y="36.593223" style="fill: #262626; stroke: #262626; stroke-width: 0.6075"/>
     <use xlink:href="#mb2565c7b9a" x="73.186139" y="64.231019" style="fill: #262626; stroke: #262626; stroke-width: 0.6075"/>
     <use xlink:href="#mb2565c7b9a" x="71.945653" y="91.868814" style="fill: #262626; stroke: #262626; stroke-width: 0.6075"/>
     <use xlink:href="#mb2565c7b9a" x="72.846959" y="119.506609" style="fill: #262626; stroke: #262626; stroke-width: 0.6075"/>
    </g>
   </g>
   <g id="line2d_12">
    <path d="M 70.067504 35.211334 
L 70.067504 37.975113 
M 70.067504 36.593223 
L 80.619741 36.593223 
M 80.619741 35.211334 
L 80.619741 37.975113 
" clip-path="url(#pf005074bea)" style="fill: none; stroke: #262626; stroke-width: 0.5; stroke-linecap: round"/>
   </g>
   <g id="line2d_13">
    <path d="M 68.515757 62.849129 
L 68.515757 65.612908 
M 68.515757 64.231019 
L 78.561376 64.231019 
M 78.561376 62.849129 
L 78.561376 65.612908 
" clip-path="url(#pf005074bea)" style="fill: none; stroke: #262626; stroke-width: 0.5; stroke-linecap: round"/>
   </g>
   <g id="line2d_14">
    <path d="M 67.410313 90.486924 
L 67.410313 93.250704 
M 67.410313 91.868814 
L 77.334888 91.868814 
M 77.334888 90.486924 
L 77.334888 93.250704 
" clip-path="url(#pf005074bea)" style="fill: none; stroke: #262626; stroke-width: 0.5; stroke-linecap: round"/>
   </g>
   <g id="line2d_15">
    <path d="M 68.19535 118.124719 
L 68.19535 120.888499 
M 68.19535 119.506609 
L 78.174355 119.506609 
M 78.174355 118.124719 
L 78.174355 120.888499 
" clip-path="url(#pf005074bea)" style="fill: none; stroke: #262626; stroke-width: 0.5; stroke-linecap: round"/>
   </g>
   <g id="line2d_16">
    <defs>
     <path id="m04c1e0288c" d="M 0 0.81 
C 0.214815 0.81 0.42086 0.724653 0.572756 0.572756 
C 0.724653 0.42086 0.81 0.214815 0.81 0 
C 0.81 -0.214815 0.724653 -0.42086 0.572756 -0.572756 
C 0.42086 -0.724653 0.214815 -0.81 0 -0.81 
C -0.214815 -0.81 -0.42086 -0.724653 -0.572756 -0.572756 
C -0.724653 -0.42086 -0.81 -0.214815 -0.81 0 
C -0.81 0.214815 -0.724653 0.42086 -0.572756 0.572756 
C -0.42086 0.724653 -0.214815 0.81 0 0.81 
z
" style="stroke: #000000; stroke-width: 0.6075"/>
    </defs>
    <g clip-path="url(#pf005074bea)">
     <use xlink:href="#m04c1e0288c" x="75.300824" y="37.975113" style="stroke: #000000; stroke-width: 0.6075"/>
     <use xlink:href="#m04c1e0288c" x="74.968571" y="65.612908" style="stroke: #000000; stroke-width: 0.6075"/>
     <use xlink:href="#m04c1e0288c" x="74.769593" y="93.250704" style="stroke: #000000; stroke-width: 0.6075"/>
     <use xlink:href="#m04c1e0288c" x="74.381959" y="120.888499" style="stroke: #000000; stroke-width: 0.6075"/>
    </g>
   </g>
   <g id="line2d_17">
    <path d="M 70.516974 36.593223 
L 70.516974 39.357003 
M 70.516974 37.975113 
L 81.158672 37.975113 
M 81.158672 36.593223 
L 81.158672 39.357003 
" clip-path="url(#pf005074bea)" style="fill: none; stroke: #000000; stroke-width: 0.5; stroke-linecap: round"/>
   </g>
   <g id="line2d_18">
    <path d="M 69.986094 64.231019 
L 69.986094 66.994798 
M 69.986094 65.612908 
L 80.399795 65.612908 
M 80.399795 64.231019 
L 80.399795 66.994798 
" clip-path="url(#pf005074bea)" style="fill: none; stroke: #000000; stroke-width: 0.5; stroke-linecap: round"/>
   </g>
   <g id="line2d_19">
    <path d="M 69.729319 91.868814 
L 69.729319 94.632594 
M 69.729319 93.250704 
L 80.487129 93.250704 
M 80.487129 91.868814 
L 80.487129 94.632594 
" clip-path="url(#pf005074bea)" style="fill: none; stroke: #000000; stroke-width: 0.5; stroke-linecap: round"/>
   </g>
   <g id="line2d_20">
    <path d="M 69.522099 119.506609 
L 69.522099 122.270389 
M 69.522099 120.888499 
L 80.091327 120.888499 
M 80.091327 119.506609 
L 80.091327 122.270389 
" clip-path="url(#pf005074bea)" style="fill: none; stroke: #000000; stroke-width: 0.5; stroke-linecap: round"/>
   </g>
   <g id="patch_3">
    <path d="M 38.382812 134.016452 
L 130.508797 134.016452 
" style="fill: none; stroke: #cccccc; stroke-width: 1.25; stroke-linejoin: miter; stroke-linecap: square"/>
   </g>
  </g>
  <g id="legend_1">
   <g id="patch_4">
    <path d="M 16.167133 13.967812 
L 28.167133 13.967812 
L 28.167133 9.767812 
L 16.167133 9.767812 
z
" style="fill: #b2bdec; fill-opacity: 0.7; stroke: #ffffff; stroke-linejoin: miter"/>
   </g>
   <g id="text_11">
    <!-- ReCellTy -->
    <g style="fill: #262626" transform="translate(32.967133 13.967812) scale(0.06 -0.06)">
     <defs>
      <path id="ArialMT-52" d="M 503 0 
L 503 4581 
L 2534 4581 
Q 3147 4581 3465 4457 
Q 3784 4334 3975 4021 
Q 4166 3709 4166 3331 
Q 4166 2844 3850 2509 
Q 3534 2175 2875 2084 
Q 3116 1969 3241 1856 
Q 3506 1613 3744 1247 
L 4541 0 
L 3778 0 
L 3172 953 
Q 2906 1366 2734 1584 
Q 2563 1803 2427 1890 
Q 2291 1978 2150 2013 
Q 2047 2034 1813 2034 
L 1109 2034 
L 1109 0 
L 503 0 
z
M 1109 2559 
L 2413 2559 
Q 2828 2559 3062 2645 
Q 3297 2731 3419 2920 
Q 3541 3109 3541 3331 
Q 3541 3656 3305 3865 
Q 3069 4075 2559 4075 
L 1109 4075 
L 1109 2559 
z
" transform="scale(0.015625)"/>
      <path id="ArialMT-43" d="M 3763 1606 
L 4369 1453 
Q 4178 706 3683 314 
Q 3188 -78 2472 -78 
Q 1731 -78 1267 223 
Q 803 525 561 1097 
Q 319 1669 319 2325 
Q 319 3041 592 3573 
Q 866 4106 1370 4382 
Q 1875 4659 2481 4659 
Q 3169 4659 3637 4309 
Q 4106 3959 4291 3325 
L 3694 3184 
Q 3534 3684 3231 3912 
Q 2928 4141 2469 4141 
Q 1941 4141 1586 3887 
Q 1231 3634 1087 3207 
Q 944 2781 944 2328 
Q 944 1744 1114 1308 
Q 1284 872 1643 656 
Q 2003 441 2422 441 
Q 2931 441 3284 734 
Q 3638 1028 3763 1606 
z
" transform="scale(0.015625)"/>
      <path id="ArialMT-54" d="M 1659 0 
L 1659 4041 
L 150 4041 
L 150 4581 
L 3781 4581 
L 3781 4041 
L 2266 4041 
L 2266 0 
L 1659 0 
z
" transform="scale(0.015625)"/>
      <path id="ArialMT-79" d="M 397 -1278 
L 334 -750 
Q 519 -800 656 -800 
Q 844 -800 956 -737 
Q 1069 -675 1141 -563 
Q 1194 -478 1313 -144 
Q 1328 -97 1363 -6 
L 103 3319 
L 709 3319 
L 1400 1397 
Q 1534 1031 1641 628 
Q 1738 1016 1872 1384 
L 2581 3319 
L 3144 3319 
L 1881 -56 
Q 1678 -603 1566 -809 
Q 1416 -1088 1222 -1217 
Q 1028 -1347 759 -1347 
Q 597 -1347 397 -1278 
z
" transform="scale(0.015625)"/>
     </defs>
     <use xlink:href="#ArialMT-52"/>
     <use xlink:href="#ArialMT-65" x="72.216797"/>
     <use xlink:href="#ArialMT-43" x="127.832031"/>
     <use xlink:href="#ArialMT-65" x="200.048828"/>
     <use xlink:href="#ArialMT-6c" x="255.664062"/>
     <use xlink:href="#ArialMT-6c" x="277.880859"/>
     <use xlink:href="#ArialMT-54" x="300.097656"/>
     <use xlink:href="#ArialMT-79" x="355.681641"/>
    </g>
   </g>
   <g id="patch_5">
    <path d="M 69.307446 13.967812 
L 81.307446 13.967812 
L 81.307446 9.767812 
L 69.307446 9.767812 
z
" style="fill: #ebb6af; fill-opacity: 0.7; stroke: #ffffff; stroke-linejoin: miter"/>
   </g>
   <g id="text_12">
    <!-- General Purpose -->
    <g style="fill: #262626" transform="translate(86.107446 13.967812) scale(0.06 -0.06)">
     <defs>
      <path id="ArialMT-47" d="M 2638 1797 
L 2638 2334 
L 4578 2338 
L 4578 638 
Q 4131 281 3656 101 
Q 3181 -78 2681 -78 
Q 2006 -78 1454 211 
Q 903 500 622 1047 
Q 341 1594 341 2269 
Q 341 2938 620 3517 
Q 900 4097 1425 4378 
Q 1950 4659 2634 4659 
Q 3131 4659 3532 4498 
Q 3934 4338 4162 4050 
Q 4391 3763 4509 3300 
L 3963 3150 
Q 3859 3500 3706 3700 
Q 3553 3900 3268 4020 
Q 2984 4141 2638 4141 
Q 2222 4141 1919 4014 
Q 1616 3888 1430 3681 
Q 1244 3475 1141 3228 
Q 966 2803 966 2306 
Q 966 1694 1177 1281 
Q 1388 869 1791 669 
Q 2194 469 2647 469 
Q 3041 469 3416 620 
Q 3791 772 3984 944 
L 3984 1797 
L 2638 1797 
z
" transform="scale(0.015625)"/>
      <path id="ArialMT-72" d="M 416 0 
L 416 3319 
L 922 3319 
L 922 2816 
Q 1116 3169 1280 3281 
Q 1444 3394 1641 3394 
Q 1925 3394 2219 3213 
L 2025 2691 
Q 1819 2813 1613 2813 
Q 1428 2813 1281 2702 
Q 1134 2591 1072 2394 
Q 978 2094 978 1738 
L 978 0 
L 416 0 
z
" transform="scale(0.015625)"/>
      <path id="ArialMT-20" transform="scale(0.015625)"/>
      <path id="ArialMT-50" d="M 494 0 
L 494 4581 
L 2222 4581 
Q 2678 4581 2919 4538 
Q 3256 4481 3484 4323 
Q 3713 4166 3852 3881 
Q 3991 3597 3991 3256 
Q 3991 2672 3619 2267 
Q 3247 1863 2275 1863 
L 1100 1863 
L 1100 0 
L 494 0 
z
M 1100 2403 
L 2284 2403 
Q 2872 2403 3119 2622 
Q 3366 2841 3366 3238 
Q 3366 3525 3220 3729 
Q 3075 3934 2838 4000 
Q 2684 4041 2272 4041 
L 1100 4041 
L 1100 2403 
z
" transform="scale(0.015625)"/>
     </defs>
     <use xlink:href="#ArialMT-47"/>
     <use xlink:href="#ArialMT-65" x="77.783203"/>
     <use xlink:href="#ArialMT-6e" x="133.398438"/>
     <use xlink:href="#ArialMT-65" x="189.013672"/>
     <use xlink:href="#ArialMT-72" x="244.628906"/>
     <use xlink:href="#ArialMT-61" x="277.929688"/>
     <use xlink:href="#ArialMT-6c" x="333.544922"/>
     <use xlink:href="#ArialMT-20" x="355.761719"/>
     <use xlink:href="#ArialMT-50" x="383.544922"/>
     <use xlink:href="#ArialMT-75" x="450.244141"/>
     <use xlink:href="#ArialMT-72" x="505.859375"/>
     <use xlink:href="#ArialMT-70" x="539.160156"/>
     <use xlink:href="#ArialMT-6f" x="594.775391"/>
     <use xlink:href="#ArialMT-73" x="650.390625"/>
     <use xlink:href="#ArialMT-65" x="700.390625"/>
    </g>
   </g>
  </g>
 </g>
 <defs>
  <clipPath id="pf005074bea">
   <rect x="38.382812" y="23.465271" width="92.125984" height="110.551181"/>
  </clipPath>
 </defs>
</svg>
