<?xml version="1.0" encoding="utf-8" standalone="no"?>
<!DOCTYPE svg PUBLIC "-//W3C//DTD SVG 1.1//EN"
  "http://www.w3.org/Graphics/SVG/1.1/DTD/svg11.dtd">
<svg xmlns:xlink="http://www.w3.org/1999/xlink" width="170.07874pt" height="170.07874pt" viewBox="0 0 170.07874 170.07874" xmlns="http://www.w3.org/2000/svg" version="1.1">
 <metadata>
  <rdf:RDF xmlns:dc="http://purl.org/dc/elements/1.1/" xmlns:cc="http://creativecommons.org/ns#" xmlns:rdf="http://www.w3.org/1999/02/22-rdf-syntax-ns#">
   <cc:Work>
    <dc:type rdf:resource="http://purl.org/dc/dcmitype/StillImage"/>
    <dc:date>2025-04-17T10:59:12.540488</dc:date>
    <dc:format>image/svg+xml</dc:format>
    <dc:creator>
     <cc:Agent>
      <dc:title>Matplotlib v3.9.4, https://matplotlib.org/</dc:title>
     </cc:Agent>
    </dc:creator>
   </cc:Work>
  </rdf:RDF>
 </metadata>
 <defs>
  <style type="text/css">*{stroke-linejoin: round; stroke-linecap: butt}</style>
 </defs>
 <g id="figure_1">
  <g id="patch_1">
   <path d="M 0 170.07874 
L 170.07874 170.07874 
L 170.07874 0 
L 0 0 
z
" style="fill: #ffffff"/>
  </g>
  <g id="axes_1">
   <g id="patch_2">
    <path d="M 136.062992 102.047244 
C 136.062992 95.346883 134.743167 88.711675 132.17905 82.521349 
C 129.614933 76.331023 125.85639 70.705965 121.118519 65.968095 
C 116.380649 61.230224 110.755591 57.471681 104.565265 54.907564 
C 98.374939 52.343447 91.739731 51.023622 85.03937 51.023622 
C 78.339009 51.023622 71.703801 52.343447 65.513475 54.907564 
C 59.323149 57.471681 53.698091 61.230224 48.960221 65.968095 
C 44.22235 70.705965 40.463807 76.331023 37.89969 82.521349 
C 35.335573 88.711675 34.015748 95.346883 34.015748 102.047244 
C 34.015748 108.747605 35.335573 115.382813 37.89969 121.573139 
C 40.463807 127.763465 44.22235 133.388523 48.960221 138.126393 
C 53.698091 142.864264 59.323149 146.622807 65.513475 149.186924 
C 71.703801 151.751041 78.339009 153.070866 85.03937 153.070866 
C 91.739731 153.070866 98.374939 151.751041 104.565265 149.186924 
C 110.755591 146.622807 116.380649 142.864264 121.118519 138.126393 
C 125.85639 133.388523 129.614933 127.763465 132.17905 121.573139 
C 134.743167 115.382813 136.062992 108.747605 136.062992 102.047244 
M 85.03937 102.047244 
C 85.03937 102.047244 85.03937 102.047244 85.03937 102.047244 
C 85.03937 102.047244 85.03937 102.047244 85.03937 102.047244 
C 85.03937 102.047244 85.03937 102.047244 85.03937 102.047244 
C 85.03937 102.047244 85.03937 102.047244 85.03937 102.047244 
C 85.03937 102.047244 85.03937 102.047244 85.03937 102.047244 
C 85.03937 102.047244 85.03937 102.047244 85.03937 102.047244 
C 85.03937 102.047244 85.03937 102.047244 85.03937 102.047244 
C 85.03937 102.047244 85.03937 102.047244 85.03937 102.047244 
C 85.03937 102.047244 85.03937 102.047244 85.03937 102.047244 
C 85.03937 102.047244 85.03937 102.047244 85.03937 102.047244 
C 85.03937 102.047244 85.03937 102.047244 85.03937 102.047244 
C 85.03937 102.047244 85.03937 102.047244 85.03937 102.047244 
C 85.03937 102.047244 85.03937 102.047244 85.03937 102.047244 
C 85.03937 102.047244 85.03937 102.047244 85.03937 102.047244 
C 85.03937 102.047244 85.03937 102.047244 85.03937 102.047244 
C 85.03937 102.047244 85.03937 102.047244 85.03937 102.047244 
z
" style="fill: #ffffff"/>
   </g>
   <g id="matplotlib.axis_1">
    <g id="xtick_1">
     <g id="line2d_1">
      <path d="M 85.03937 102.047244 
L 136.062992 102.047244 
" clip-path="url(#pf27387ccde)" style="fill: none; stroke: #808080; stroke-opacity: 0.7; stroke-width: 0.2; stroke-linecap: round"/>
     </g>
    </g>
    <g id="xtick_2">
     <g id="line2d_2">
      <path d="M 85.03937 102.047244 
L 85.03937 51.023622 
" clip-path="url(#pf27387ccde)" style="fill: none; stroke: #808080; stroke-opacity: 0.7; stroke-width: 0.2; stroke-linecap: round"/>
     </g>
    </g>
    <g id="xtick_3">
     <g id="line2d_3">
      <path d="M 85.03937 102.047244 
L 34.015748 102.047244 
" clip-path="url(#pf27387ccde)" style="fill: none; stroke: #808080; stroke-opacity: 0.7; stroke-width: 0.2; stroke-linecap: round"/>
     </g>
    </g>
    <g id="xtick_4">
     <g id="line2d_4">
      <path d="M 85.03937 102.047244 
L 85.03937 153.070866 
" clip-path="url(#pf27387ccde)" style="fill: none; stroke: #808080; stroke-opacity: 0.7; stroke-width: 0.2; stroke-linecap: round"/>
     </g>
    </g>
   </g>
   <g id="matplotlib.axis_2">
    <g id="ytick_1">
     <g id="line2d_5">
      <path d="M 85.03937 102.047244 
C 85.03937 102.047244 85.03937 102.047244 85.03937 102.047244 
C 85.03937 102.047244 85.03937 102.047244 85.03937 102.047244 
C 85.03937 102.047244 85.03937 102.047244 85.03937 102.047244 
C 85.03937 102.047244 85.03937 102.047244 85.03937 102.047244 
C 85.03937 102.047244 85.03937 102.047244 85.03937 102.047244 
C 85.03937 102.047244 85.03937 102.047244 85.03937 102.047244 
C 85.03937 102.047244 85.03937 102.047244 85.03937 102.047244 
C 85.03937 102.047244 85.03937 102.047244 85.03937 102.047244 
C 85.03937 102.047244 85.03937 102.047244 85.03937 102.047244 
C 85.03937 102.047244 85.03937 102.047244 85.03937 102.047244 
C 85.03937 102.047244 85.03937 102.047244 85.03937 102.047244 
C 85.03937 102.047244 85.03937 102.047244 85.03937 102.047244 
C 85.03937 102.047244 85.03937 102.047244 85.03937 102.047244 
C 85.03937 102.047244 85.03937 102.047244 85.03937 102.047244 
C 85.03937 102.047244 85.03937 102.047244 85.03937 102.047244 
C 85.03937 102.047244 85.03937 102.047244 85.03937 102.047244 
" clip-path="url(#pf27387ccde)" style="fill: none; stroke: #808080; stroke-opacity: 0.7; stroke-width: 0.2; stroke-linecap: round"/>
     </g>
     <g id="text_1">
      <!-- 0.2 -->
      <g style="fill: #262626" transform="translate(85.03937 101.060525) scale(0.05 -0.05)">
       <defs>
        <path id="Arial-BoldMT-30" d="M 1756 4600 
Q 2422 4600 2797 4125 
Q 3244 3563 3244 2259 
Q 3244 959 2794 391 
Q 2422 -78 1756 -78 
Q 1088 -78 678 436 
Q 269 950 269 2269 
Q 269 3563 719 4131 
Q 1091 4600 1756 4600 
z
M 1756 3872 
Q 1597 3872 1472 3770 
Q 1347 3669 1278 3406 
Q 1188 3066 1188 2259 
Q 1188 1453 1269 1151 
Q 1350 850 1473 750 
Q 1597 650 1756 650 
Q 1916 650 2041 751 
Q 2166 853 2234 1116 
Q 2325 1453 2325 2259 
Q 2325 3066 2244 3367 
Q 2163 3669 2039 3770 
Q 1916 3872 1756 3872 
z
" transform="scale(0.015625)"/>
        <path id="Arial-BoldMT-2e" d="M 459 0 
L 459 878 
L 1338 878 
L 1338 0 
L 459 0 
z
" transform="scale(0.015625)"/>
        <path id="Arial-BoldMT-32" d="M 3238 816 
L 3238 0 
L 159 0 
Q 209 463 459 877 
Q 709 1291 1447 1975 
Q 2041 2528 2175 2725 
Q 2356 2997 2356 3263 
Q 2356 3556 2198 3714 
Q 2041 3872 1763 3872 
Q 1488 3872 1325 3706 
Q 1163 3541 1138 3156 
L 263 3244 
Q 341 3969 753 4284 
Q 1166 4600 1784 4600 
Q 2463 4600 2850 4234 
Q 3238 3869 3238 3325 
Q 3238 3016 3127 2736 
Q 3016 2456 2775 2150 
Q 2616 1947 2200 1565 
Q 1784 1184 1673 1059 
Q 1563 934 1494 816 
L 3238 816 
z
" transform="scale(0.015625)"/>
       </defs>
       <use xlink:href="#Arial-BoldMT-30"/>
       <use xlink:href="#Arial-BoldMT-2e" x="55.615234"/>
       <use xlink:href="#Arial-BoldMT-32" x="83.398438"/>
      </g>
     </g>
    </g>
    <g id="ytick_2">
     <g id="line2d_6">
      <path d="M 110.551181 102.047244 
C 110.551181 98.697064 109.891269 95.37946 108.60921 92.284297 
C 107.327152 89.189134 105.44788 86.376605 103.078945 84.00767 
C 100.710009 81.638734 97.897481 79.759463 94.802317 78.477404 
C 91.707154 77.195346 88.38955 76.535433 85.03937 76.535433 
C 81.68919 76.535433 78.371586 77.195346 75.276423 78.477404 
C 72.18126 79.759463 69.368731 81.638734 66.999796 84.00767 
C 64.63086 86.376605 62.751589 89.189134 61.46953 92.284297 
C 60.187472 95.37946 59.527559 98.697064 59.527559 102.047244 
C 59.527559 105.397424 60.187472 108.715028 61.46953 111.810192 
C 62.751589 114.905355 64.63086 117.717883 66.999796 120.086819 
C 69.368731 122.455754 72.18126 124.335026 75.276423 125.617084 
C 78.371586 126.899143 81.68919 127.559055 85.03937 127.559055 
C 88.38955 127.559055 91.707154 126.899143 94.802317 125.617084 
C 97.897481 124.335026 100.710009 122.455754 103.078945 120.086819 
C 105.44788 117.717883 107.327152 114.905355 108.60921 111.810192 
C 109.891269 108.715028 110.551181 105.397424 110.551181 102.047244 
" clip-path="url(#pf27387ccde)" style="fill: none; stroke: #808080; stroke-opacity: 0.7; stroke-width: 0.2; stroke-linecap: round"/>
     </g>
     <g id="text_2">
      <!-- 0.4 -->
      <g style="fill: #262626" transform="translate(108.60921 91.297578) scale(0.05 -0.05)">
       <defs>
        <path id="Arial-BoldMT-34" d="M 1994 0 
L 1994 922 
L 119 922 
L 119 1691 
L 2106 4600 
L 2844 4600 
L 2844 1694 
L 3413 1694 
L 3413 922 
L 2844 922 
L 2844 0 
L 1994 0 
z
M 1994 1694 
L 1994 3259 
L 941 1694 
L 1994 1694 
z
" transform="scale(0.015625)"/>
       </defs>
       <use xlink:href="#Arial-BoldMT-30"/>
       <use xlink:href="#Arial-BoldMT-2e" x="55.615234"/>
       <use xlink:href="#Arial-BoldMT-34" x="83.398438"/>
      </g>
     </g>
    </g>
    <g id="ytick_3">
     <g id="line2d_7">
      <path d="M 136.062992 102.047244 
C 136.062992 95.346883 134.743167 88.711675 132.17905 82.521349 
C 129.614933 76.331023 125.85639 70.705965 121.118519 65.968095 
C 116.380649 61.230224 110.755591 57.471681 104.565265 54.907564 
C 98.374939 52.343447 91.739731 51.023622 85.03937 51.023622 
C 78.339009 51.023622 71.703801 52.343447 65.513475 54.907564 
C 59.323149 57.471681 53.698091 61.230224 48.960221 65.968095 
C 44.22235 70.705965 40.463807 76.331023 37.89969 82.521349 
C 35.335573 88.711675 34.015748 95.346883 34.015748 102.047244 
C 34.015748 108.747605 35.335573 115.382813 37.89969 121.573139 
C 40.463807 127.763465 44.22235 133.388523 48.960221 138.126393 
C 53.698091 142.864264 59.323149 146.622807 65.513475 149.186924 
C 71.703801 151.751041 78.339009 153.070866 85.03937 153.070866 
C 91.739731 153.070866 98.374939 151.751041 104.565265 149.186924 
C 110.755591 146.622807 116.380649 142.864264 121.118519 138.126393 
C 125.85639 133.388523 129.614933 127.763465 132.17905 121.573139 
C 134.743167 115.382813 136.062992 108.747605 136.062992 102.047244 
" clip-path="url(#pf27387ccde)" style="fill: none; stroke: #808080; stroke-opacity: 0.7; stroke-width: 0.2; stroke-linecap: round"/>
     </g>
     <g id="text_3">
      <!-- 0.6 -->
      <g style="fill: #262626" transform="translate(132.17905 81.534631) scale(0.05 -0.05)">
       <defs>
        <path id="Arial-BoldMT-36" d="M 3247 3459 
L 2397 3366 
Q 2366 3628 2234 3753 
Q 2103 3878 1894 3878 
Q 1616 3878 1423 3628 
Q 1231 3378 1181 2588 
Q 1509 2975 1997 2975 
Q 2547 2975 2939 2556 
Q 3331 2138 3331 1475 
Q 3331 772 2918 347 
Q 2506 -78 1859 -78 
Q 1166 -78 719 461 
Q 272 1000 272 2228 
Q 272 3488 737 4044 
Q 1203 4600 1947 4600 
Q 2469 4600 2811 4308 
Q 3153 4016 3247 3459 
z
M 1256 1544 
Q 1256 1116 1453 883 
Q 1650 650 1903 650 
Q 2147 650 2309 840 
Q 2472 1031 2472 1466 
Q 2472 1913 2297 2120 
Q 2122 2328 1859 2328 
Q 1606 2328 1431 2129 
Q 1256 1931 1256 1544 
z
" transform="scale(0.015625)"/>
       </defs>
       <use xlink:href="#Arial-BoldMT-30"/>
       <use xlink:href="#Arial-BoldMT-2e" x="55.615234"/>
       <use xlink:href="#Arial-BoldMT-36" x="83.398438"/>
      </g>
     </g>
    </g>
   </g>
   <g id="patch_3">
    <path d="M 104.037114 102.047244 
L 104.025298 101.594741 
L 104.004421 101.142636 
L 103.974886 100.690991 
L 103.937094 100.239842 
L 103.891432 99.789201 
L 103.838279 99.339055 
L 103.777997 98.889368 
L 103.710929 98.440081 
L 103.6374 97.991118 
L 103.557711 97.54238 
L 103.472139 97.093753 
L 103.380934 96.645112 
L 103.284316 96.196315 
L 103.182477 95.747216 
L 103.075576 95.297659 
L 102.963742 94.847488 
L 102.847068 94.396545 
L 102.725618 93.944677 
L 102.59942 93.491736 
L 102.468471 93.037584 
L 102.332735 92.582096 
L 102.192146 92.125162 
L 102.046609 91.666694 
L 101.895998 91.206622 
L 101.740165 90.744902 
L 101.578936 90.281517 
L 101.412115 89.816479 
L 101.239489 89.349832 
L 101.060825 88.881652 
L 100.87588 88.412048 
L 100.6844 87.941166 
L 100.48612 87.46919 
L 100.280774 86.996336 
L 100.068093 86.522862 
L 99.847809 86.049061 
L 99.619658 85.575262 
L 99.383384 85.101831 
L 99.138739 84.62917 
L 98.885489 84.157715 
L 98.623414 83.687933 
L 98.352309 83.220325 
L 98.07199 82.755422 
L 97.782294 82.293782 
L 97.483077 81.835989 
L 97.174223 81.382652 
L 96.855639 80.934404 
L 96.527257 80.491895 
L 96.189038 80.055796 
L 95.840971 79.626791 
L 95.483071 79.205581 
L 95.115384 78.792876 
L 94.737984 78.389397 
L 94.350974 77.995872 
L 93.954486 77.613034 
L 93.54868 77.241621 
L 93.133748 76.88237 
L 92.709905 76.536019 
L 92.2774 76.203306 
L 91.836503 75.88496 
L 91.387517 75.58171 
L 90.930768 75.294275 
L 90.466608 75.023364 
L 89.995414 74.769679 
L 89.51759 74.533908 
L 89.033561 74.316726 
L 88.543776 74.118794 
L 88.048709 73.940758 
L 87.548853 73.783243 
L 87.044723 73.64686 
L 86.536857 73.532196 
L 86.025809 73.43982 
L 85.512158 73.370273 
L 84.996497 73.324077 
L 84.479442 73.301521 
L 83.961621 73.30223 
L 83.443642 73.325685 
L 82.926091 73.371342 
L 82.409532 73.43864 
L 81.894504 73.526998 
L 81.381523 73.63582 
L 80.871082 73.764494 
L 80.363647 73.912396 
L 79.85966 74.07889 
L 79.359539 74.263329 
L 78.863675 74.465061 
L 78.372433 74.683425 
L 77.886152 74.917756 
L 77.405143 75.167386 
L 76.929694 75.431646 
L 76.460063 75.709866 
L 75.996481 76.001381 
L 75.539156 76.30553 
L 75.088265 76.621655 
L 74.643961 76.94911 
L 74.206372 77.287256 
L 73.775598 77.635468 
L 73.351718 77.993133 
L 72.934784 78.359656 
L 72.524827 78.734457 
L 72.121855 79.116976 
L 71.725856 79.506674 
L 71.3368 79.903035 
L 70.954639 80.305567 
L 70.579307 80.713802 
L 70.210729 81.127302 
L 69.848814 81.545654 
L 69.493462 81.968475 
L 69.144567 82.39541 
L 68.802018 82.826138 
L 68.465699 83.260363 
L 68.135497 83.697826 
L 67.811298 84.138292 
L 67.492996 84.581562 
L 67.180491 85.027463 
L 66.873692 85.475851 
L 66.572522 85.926611 
L 66.276918 86.379654 
L 65.986833 86.834917 
L 65.702239 87.292357 
L 65.423131 87.751955 
L 65.149525 88.213711 
L 64.88146 88.677641 
L 64.619002 89.143776 
L 64.362243 89.612159 
L 64.111304 90.082844 
L 63.86633 90.555889 
L 63.627499 91.031358 
L 63.395014 91.509318 
L 63.169108 91.989831 
L 62.950042 92.47296 
L 62.738102 92.958759 
L 62.533603 93.447274 
L 62.336885 93.93854 
L 62.14831 94.432579 
L 61.968264 94.929399 
L 61.797154 95.42899 
L 61.635405 95.931322 
L 61.48346 96.436348 
L 61.341777 96.943998 
L 61.210825 97.454176 
L 61.091086 97.966768 
L 60.983048 98.481632 
L 60.887208 98.9986 
L 60.804061 99.517482 
L 60.734108 100.038059 
L 60.677846 100.560087 
L 60.635768 101.083297 
L 60.608359 101.607395 
L 60.596096 102.13206 
L 60.599208 102.656952 
L 60.617322 103.181733 
L 60.649969 103.706091 
L 60.696667 104.229737 
L 60.756932 104.75241 
L 60.830276 105.273874 
L 60.91621 105.793918 
L 61.014247 106.312357 
L 61.123905 106.829033 
L 61.244709 107.343811 
L 61.376195 107.856579 
L 61.517908 108.367252 
L 61.669408 108.875763 
L 61.830272 109.382067 
L 62.000093 109.88614 
L 62.178488 110.387973 
L 62.36509 110.887574 
L 62.559561 111.384963 
L 62.761583 111.880175 
L 62.970866 112.373252 
L 63.187147 112.864241 
L 63.410189 113.353198 
L 63.639783 113.840177 
L 63.87575 114.325233 
L 64.117936 114.808418 
L 64.366218 115.289775 
L 64.620499 115.769343 
L 64.880707 116.247146 
L 65.146798 116.723196 
L 65.418752 117.197488 
L 65.69657 117.67 
L 65.980275 118.140687 
L 66.269911 118.609484 
L 66.565538 119.076301 
L 66.86723 119.541022 
L 67.175076 120.003502 
L 67.489175 120.463572 
L 67.809633 120.92103 
L 68.136564 121.375646 
L 68.470082 121.827159 
L 68.810305 122.275277 
L 69.157347 122.719679 
L 69.511317 123.160013 
L 69.872321 123.595898 
L 70.240452 124.026923 
L 70.615796 124.45265 
L 70.998422 124.872613 
L 71.388388 125.28632 
L 71.785732 125.693255 
L 72.190477 126.092881 
L 72.602624 126.484634 
L 73.022153 126.867936 
L 73.449024 127.242188 
L 73.883171 127.606775 
L 74.324507 127.961066 
L 74.772918 128.304421 
L 75.228267 128.636185 
L 75.690388 128.955696 
L 76.159093 129.262286 
L 76.634165 129.555279 
L 77.115362 129.833997 
L 77.602415 130.09776 
L 78.095029 130.345889 
L 78.592884 130.577704 
L 79.095632 130.792531 
L 79.602902 130.989701 
L 80.114296 131.168549 
L 80.629391 131.328421 
L 81.14774 131.468671 
L 81.668871 131.588667 
L 82.192289 131.687786 
L 82.717475 131.765423 
L 83.243887 131.820987 
L 83.77096 131.853906 
L 84.298107 131.863624 
L 84.824719 131.84961 
L 85.350166 131.811386 
L 85.873818 131.749021 
L 86.395069 131.66302 
L 86.913327 131.553921 
L 87.428024 131.422289 
L 87.938607 131.268708 
L 88.444544 131.093783 
L 88.945326 130.898139 
L 89.440461 130.682417 
L 89.929482 130.447278 
L 90.411942 130.193394 
L 90.887418 129.921455 
L 91.355509 129.63216 
L 91.81584 129.326222 
L 92.26806 129.004362 
L 92.711843 128.667312 
L 93.146888 128.315808 
L 93.572922 127.950592 
L 93.989699 127.572412 
L 94.396999 127.182016 
L 94.794631 126.780154 
L 95.182431 126.367572 
L 95.560266 125.945015 
L 95.928028 125.513222 
L 96.285642 125.072926 
L 96.633057 124.624849 
L 96.970253 124.169704 
L 97.29724 123.708188 
L 97.614052 123.240985 
L 97.920751 122.76876 
L 98.217427 122.292159 
L 98.504194 121.811806 
L 98.781189 121.328301 
L 99.048574 120.842219 
L 99.306529 120.354107 
L 99.555256 119.864483 
L 99.794973 119.373832 
L 100.025914 118.88261 
L 100.248324 118.391235 
L 100.46246 117.900093 
L 100.668587 117.409533 
L 100.866973 116.919868 
L 101.057892 116.431374 
L 101.241613 115.944289 
L 101.418405 115.458816 
L 101.588526 114.975119 
L 101.75223 114.493329 
L 101.909753 114.01354 
L 102.06132 113.535815 
L 102.207135 113.060184 
L 102.347383 112.586647 
L 102.482225 112.115177 
L 102.611797 111.645721 
L 102.736209 111.178206 
L 102.855539 110.712536 
L 102.969839 110.248599 
L 103.079127 109.786271 
L 103.183389 109.325414 
L 103.282579 108.865887 
L 103.376618 108.40754 
L 103.465394 107.950226 
L 103.548763 107.493797 
L 103.626551 107.038112 
L 103.698552 106.583039 
L 103.764532 106.128453 
L 103.82423 105.674246 
L 103.877361 105.220325 
L 103.923614 104.766615 
L 103.96266 104.313059 
L 103.99415 103.859625 
L 104.017722 103.4063 
L 104.032998 102.953099 
L 104.039593 102.500059 
L 104.037114 102.047244 
z
" clip-path="url(#pf27387ccde)" style="fill: #42bca2; opacity: 0.2; stroke: #42bca2; stroke-linejoin: miter"/>
   </g>
   <g id="patch_4">
    <path d="M 111.815105 102.047244 
L 111.782075 101.468156 
L 111.731949 100.890458 
L 111.665224 100.314514 
L 111.582408 99.740661 
L 111.48402 99.169212 
L 111.370584 98.600454 
L 111.242629 98.034647 
L 111.100685 97.472028 
L 110.945282 96.912805 
L 110.776945 96.357161 
L 110.596196 95.805255 
L 110.403547 95.257219 
L 110.1995 94.713162 
L 109.984544 94.17317 
L 109.759154 93.637305 
L 109.523788 93.105609 
L 109.278883 92.578106 
L 109.024857 92.0548 
L 108.762107 91.535681 
L 108.491002 91.020723 
L 108.21189 90.50989 
L 107.925089 90.003135 
L 107.630891 89.500404 
L 107.32956 89.001639 
L 107.021331 88.50678 
L 106.706411 88.015765 
L 106.384976 87.528537 
L 106.057175 87.045046 
L 105.723129 86.565247 
L 105.38293 86.089109 
L 105.036647 85.616612 
L 104.68432 85.147754 
L 104.325968 84.682549 
L 103.961587 84.221033 
L 103.591154 83.763264 
L 103.214627 83.309322 
L 102.831949 82.859315 
L 102.443049 82.413378 
L 102.047845 81.971671 
L 101.646247 81.534387 
L 101.238158 81.101746 
L 100.82348 80.673999 
L 100.402112 80.251426 
L 99.973955 79.834339 
L 99.538915 79.423079 
L 99.096904 79.018014 
L 98.647845 78.619544 
L 98.19167 78.228095 
L 97.728324 77.844117 
L 97.25777 77.468089 
L 96.779987 77.100512 
L 96.294972 76.741906 
L 95.802744 76.392816 
L 95.303342 76.053802 
L 94.79683 75.725442 
L 94.283293 75.408327 
L 93.762845 75.103061 
L 93.235622 74.81026 
L 92.701788 74.530546 
L 92.161532 74.264548 
L 91.615072 74.012899 
L 91.062651 73.776232 
L 90.504539 73.555183 
L 89.941034 73.350384 
L 89.372459 73.162461 
L 88.799165 72.992035 
L 88.221528 72.839719 
L 87.639949 72.706114 
L 87.054854 72.591807 
L 86.466694 72.497374 
L 85.875942 72.42337 
L 85.283094 72.370335 
L 84.68867 72.338752 
L 84.093206 72.328561 
L 83.49723 72.339269 
L 82.901246 72.370354 
L 82.305732 72.421276 
L 81.71114 72.491485 
L 81.117897 72.580417 
L 80.5264 72.687498 
L 79.937024 72.81215 
L 79.350113 72.953788 
L 78.765987 73.111825 
L 78.184937 73.285675 
L 77.607229 73.474753 
L 77.0331 73.678478 
L 76.462764 73.896276 
L 75.896409 74.12758 
L 75.334198 74.371836 
L 74.77627 74.6285 
L 74.222742 74.897045 
L 73.673709 75.176958 
L 73.129247 75.467746 
L 72.589413 75.768936 
L 72.054247 76.080075 
L 71.523775 76.400734 
L 70.998007 76.730509 
L 70.476947 77.06902 
L 69.960585 77.415915 
L 69.448907 77.770866 
L 68.941895 78.133577 
L 68.439529 78.503775 
L 67.941788 78.881219 
L 67.448657 79.265695 
L 66.960124 79.657014 
L 66.476187 80.055016 
L 65.996853 80.459568 
L 65.522142 80.870561 
L 65.052091 81.287908 
L 64.58675 81.711548 
L 64.126193 82.141437 
L 63.670511 82.577553 
L 63.21982 83.01989 
L 62.774258 83.468454 
L 62.33399 83.923268 
L 61.899206 84.384362 
L 61.470123 84.851776 
L 61.046986 85.325553 
L 60.630068 85.805741 
L 60.21967 86.292389 
L 59.816121 86.785542 
L 59.419776 87.285242 
L 59.031019 87.791525 
L 58.650259 88.304417 
L 58.277932 88.823935 
L 57.914496 89.35008 
L 57.560434 89.882842 
L 57.216248 90.422193 
L 56.882462 90.968085 
L 56.559619 91.520453 
L 56.248275 92.079212 
L 55.949005 92.644252 
L 55.662394 93.215442 
L 55.389038 93.792627 
L 55.129543 94.375628 
L 54.884522 94.964241 
L 54.654591 95.558237 
L 54.440369 96.157359 
L 54.242477 96.761329 
L 54.061532 97.369838 
L 53.898151 97.982556 
L 53.752941 98.599124 
L 53.626504 99.219162 
L 53.519432 99.84226 
L 53.432304 100.467989 
L 53.365686 101.095894 
L 53.320126 101.725497 
L 53.296138 102.356297 
L 53.293736 102.987777 
L 53.312428 103.619429 
L 53.35168 104.250767 
L 53.410946 104.88133 
L 53.489666 105.510683 
L 53.587271 106.138414 
L 53.703183 106.764138 
L 53.836819 107.387496 
L 53.987591 108.008155 
L 54.154911 108.625806 
L 54.338191 109.240168 
L 54.536845 109.850985 
L 54.750294 110.458023 
L 54.977964 111.061077 
L 55.21929 111.659964 
L 55.473719 112.254524 
L 55.740712 112.844618 
L 56.019741 113.430131 
L 56.3103 114.010965 
L 56.611896 114.587043 
L 56.924059 115.158301 
L 57.24634 115.724695 
L 57.578312 116.286192 
L 57.919573 116.842769 
L 58.269745 117.394415 
L 58.628474 117.941126 
L 58.995436 118.482901 
L 59.370331 119.019744 
L 59.752886 119.551658 
L 60.142856 120.078645 
L 60.540021 120.600703 
L 60.94419 121.11782 
L 61.355194 121.629979 
L 61.772891 122.13715 
L 62.197161 122.639288 
L 62.627909 123.136335 
L 63.065057 123.628214 
L 63.508549 124.114827 
L 63.958345 124.596056 
L 64.414421 125.071763 
L 64.876764 125.541782 
L 65.345376 126.005923 
L 65.820264 126.46397 
L 66.301444 126.915683 
L 66.788935 127.36079 
L 67.282759 127.798995 
L 67.782935 128.229974 
L 68.289483 128.653374 
L 68.802413 129.068817 
L 69.321733 129.475898 
L 69.847438 129.874185 
L 70.379512 130.263223 
L 70.917928 130.642534 
L 71.462641 131.011614 
L 72.013592 131.369942 
L 72.570702 131.716975 
L 73.133873 132.052153 
L 73.702987 132.374899 
L 74.277902 132.684623 
L 74.858457 132.980719 
L 75.444463 133.262573 
L 76.035711 133.529561 
L 76.631963 133.781052 
L 77.23296 134.016408 
L 77.838414 134.23499 
L 78.448014 134.436157 
L 79.061422 134.619267 
L 79.678273 134.783683 
L 80.298178 134.92877 
L 80.920722 135.053899 
L 81.545466 135.158453 
L 82.171942 135.24182 
L 82.799662 135.303403 
L 83.42811 135.342618 
L 84.056748 135.358898 
L 84.685014 135.351691 
L 85.312323 135.320482 
L 85.938084 135.265223 
L 86.561722 135.186425 
L 87.182686 135.084649 
L 87.800445 134.960477 
L 88.414488 134.814508 
L 89.024328 134.647359 
L 89.6295 134.459662 
L 90.229562 134.252062 
L 90.824098 134.025215 
L 91.412715 133.779788 
L 91.995043 133.516454 
L 92.570742 133.235895 
L 93.139492 132.938796 
L 93.701003 132.625844 
L 94.255009 132.297728 
L 94.801272 131.955136 
L 95.339578 131.598753 
L 95.869739 131.229257 
L 96.391594 130.847322 
L 96.905008 130.453611 
L 97.409869 130.048779 
L 97.90609 129.633467 
L 98.393609 129.2083 
L 98.872383 128.773888 
L 99.342395 128.330824 
L 99.803644 127.879679 
L 100.256153 127.421003 
L 100.699957 126.955324 
L 101.135111 126.483145 
L 101.561682 126.004942 
L 101.979748 125.521165 
L 102.389398 125.032236 
L 102.79073 124.538547 
L 103.183845 124.040464 
L 103.568848 123.538319 
L 103.945845 123.032416 
L 104.314938 122.52303 
L 104.676228 122.010404 
L 105.029805 121.494754 
L 105.375753 120.976267 
L 105.714142 120.455103 
L 106.045029 119.931394 
L 106.368454 119.40525 
L 106.68444 118.876756 
L 106.992987 118.345978 
L 107.294076 117.81296 
L 107.587662 117.277731 
L 107.873676 116.740306 
L 108.152024 116.200686 
L 108.422582 115.658863 
L 108.685202 115.114824 
L 108.939705 114.568548 
L 109.185886 114.020014 
L 109.423511 113.469204 
L 109.652318 112.9161 
L 109.87202 112.360691 
L 110.082301 111.802976 
L 110.282822 111.242963 
L 110.473219 110.680674 
L 110.653106 110.116145 
L 110.822077 109.54943 
L 110.979705 108.980602 
L 111.125548 108.409753 
L 111.259148 107.836997 
L 111.380036 107.262473 
L 111.48773 106.686341 
L 111.581741 106.108788 
L 111.661574 105.530027 
L 111.726734 104.950294 
L 111.77672 104.369855 
L 111.811038 103.789 
L 111.829196 103.208046 
L 111.830709 102.627338 
L 111.815105 102.047244 
z
" clip-path="url(#pf27387ccde)" style="fill: #0175b9; opacity: 0.2; stroke: #0175b9; stroke-linejoin: miter"/>
   </g>
   <g id="line2d_8">
    <path d="M 104.037114 102.047244 
L 103.891432 99.789201 
L 103.472139 97.093753 
L 102.725618 93.944677 
L 101.740165 90.744902 
L 100.48612 87.46919 
L 99.138739 84.62917 
L 97.782294 82.293782 
L 96.189038 80.055796 
L 94.737984 78.389397 
L 93.133748 76.88237 
L 91.387517 75.58171 
L 89.51759 74.533908 
L 88.048709 73.940758 
L 86.536857 73.532196 
L 84.996497 73.324077 
L 83.443642 73.325685 
L 81.894504 73.526998 
L 80.363647 73.912396 
L 78.372433 74.683425 
L 76.460063 75.709866 
L 74.643961 76.94911 
L 72.934784 78.359656 
L 70.954639 80.305567 
L 69.144567 82.39541 
L 67.180491 85.027463 
L 65.423131 87.751955 
L 63.86633 90.555889 
L 62.533603 93.447274 
L 61.635405 95.931322 
L 60.983048 98.481632 
L 60.677846 100.560087 
L 60.599208 102.656952 
L 60.756932 104.75241 
L 61.123905 106.829033 
L 61.830272 109.382067 
L 62.761583 111.880175 
L 64.117936 114.808418 
L 65.69657 117.67 
L 67.489175 120.463572 
L 69.511317 123.160013 
L 71.388388 125.28632 
L 73.449024 127.242188 
L 75.228267 128.636185 
L 77.115362 129.833997 
L 79.095632 130.792531 
L 80.629391 131.328421 
L 82.192289 131.687786 
L 83.77096 131.853906 
L 85.350166 131.811386 
L 86.913327 131.553921 
L 88.444544 131.093783 
L 89.929482 130.447278 
L 91.355509 129.63216 
L 93.146888 128.315808 
L 94.794631 126.780154 
L 96.285642 125.072926 
L 97.614052 123.240985 
L 99.048574 120.842219 
L 100.248324 118.391235 
L 101.418405 115.458816 
L 102.482225 112.115177 
L 103.282579 108.865887 
L 103.82423 105.674246 
L 104.032998 102.953099 
L 104.037114 102.047244 
L 104.037114 102.047244 
" clip-path="url(#pf27387ccde)" style="fill: none; stroke: #42bca2; stroke-width: 0.5; stroke-linecap: round"/>
   </g>
   <g id="line2d_9">
    <path d="M 111.815105 102.047244 
L 111.582408 99.740661 
L 111.100685 97.472028 
L 110.403547 95.257219 
L 109.523788 93.105609 
L 108.21189 90.50989 
L 106.706411 88.015765 
L 104.68432 85.147754 
L 102.443049 82.413378 
L 100.402112 80.251426 
L 98.19167 78.228095 
L 96.294972 76.741906 
L 94.283293 75.408327 
L 92.161532 74.264548 
L 89.941034 73.350384 
L 87.639949 72.706114 
L 85.875942 72.42337 
L 84.093206 72.328561 
L 82.305732 72.421276 
L 79.937024 72.81215 
L 77.607229 73.474753 
L 75.334198 74.371836 
L 73.129247 75.467746 
L 70.476947 77.06902 
L 67.941788 78.881219 
L 65.522142 80.870561 
L 63.21982 83.01989 
L 61.046986 85.325553 
L 59.031019 87.791525 
L 57.216248 90.422193 
L 55.949005 92.644252 
L 54.884522 94.964241 
L 54.061532 97.369838 
L 53.626504 99.219162 
L 53.365686 101.095894 
L 53.293736 102.987777 
L 53.410946 104.88133 
L 53.703183 106.764138 
L 54.338191 109.240168 
L 55.21929 111.659964 
L 56.3103 114.010965 
L 57.578312 116.286192 
L 59.370331 119.019744 
L 61.355194 121.629979 
L 63.508549 124.114827 
L 65.820264 126.46397 
L 68.289483 128.653374 
L 70.917928 130.642534 
L 73.133873 132.052153 
L 75.444463 133.262573 
L 77.838414 134.23499 
L 79.678273 134.783683 
L 81.545466 135.158453 
L 83.42811 135.342618 
L 85.312323 135.320482 
L 87.182686 135.084649 
L 89.024328 134.647359 
L 90.824098 134.025215 
L 92.570742 133.235895 
L 94.801272 131.955136 
L 96.905008 130.453611 
L 98.872383 128.773888 
L 100.699957 126.955324 
L 102.79073 124.538547 
L 104.676228 122.010404 
L 106.368454 119.40525 
L 107.873676 116.740306 
L 109.185886 114.020014 
L 110.282822 111.242963 
L 111.125548 108.409753 
L 111.581741 106.108788 
L 111.811038 103.789 
L 111.815105 102.047244 
L 111.815105 102.047244 
" clip-path="url(#pf27387ccde)" style="fill: none; stroke: #0175b9; stroke-width: 0.5; stroke-linecap: round"/>
   </g>
   <g id="line2d_10">
    <path d="M 104.037114 102.047244 
" clip-path="url(#pf27387ccde)" style="fill: none; stroke: #42bca2; stroke-width: 1.5; stroke-linecap: round"/>
    <defs>
     <path id="m1e788f0cf6" d="M 0 1 
C 0.265203 1 0.51958 0.894634 0.707107 0.707107 
C 0.894634 0.51958 1 0.265203 1 0 
C 1 -0.265203 0.894634 -0.51958 0.707107 -0.707107 
C 0.51958 -0.894634 0.265203 -1 0 -1 
C -0.265203 -1 -0.51958 -0.894634 -0.707107 -0.707107 
C -0.894634 -0.51958 -1 -0.265203 -1 0 
C -1 0.265203 -0.894634 0.51958 -0.707107 0.707107 
C -0.51958 0.894634 -0.265203 1 0 1 
z
" style="stroke: #42bca2"/>
    </defs>
    <g clip-path="url(#pf27387ccde)">
     <use xlink:href="#m1e788f0cf6" x="104.037114" y="102.047244" style="fill: #42bca2; stroke: #42bca2"/>
    </g>
   </g>
   <g id="line2d_11">
    <path d="M 111.815105 102.047244 
" clip-path="url(#pf27387ccde)" style="fill: none; stroke: #0175b9; stroke-width: 1.5; stroke-linecap: round"/>
    <defs>
     <path id="mcd119653b8" d="M 0 1 
C 0.265203 1 0.51958 0.894634 0.707107 0.707107 
C 0.894634 0.51958 1 0.265203 1 0 
C 1 -0.265203 0.894634 -0.51958 0.707107 -0.707107 
C 0.51958 -0.894634 0.265203 -1 0 -1 
C -0.265203 -1 -0.51958 -0.894634 -0.707107 -0.707107 
C -0.894634 -0.51958 -1 -0.265203 -1 0 
C -1 0.265203 -0.894634 0.51958 -0.707107 0.707107 
C -0.51958 0.894634 -0.265203 1 0 1 
z
" style="stroke: #0175b9"/>
    </defs>
    <g clip-path="url(#pf27387ccde)">
     <use xlink:href="#mcd119653b8" x="111.815105" y="102.047244" style="fill: #0175b9; stroke: #0175b9"/>
    </g>
   </g>
   <g id="line2d_12">
    <path d="M 85.03937 73.327012 
" clip-path="url(#pf27387ccde)" style="fill: none; stroke: #42bca2; stroke-width: 1.5; stroke-linecap: round"/>
    <g clip-path="url(#pf27387ccde)">
     <use xlink:href="#m1e788f0cf6" x="85.03937" y="73.327012" style="fill: #42bca2; stroke: #42bca2"/>
    </g>
   </g>
   <g id="line2d_13">
    <path d="M 85.03937 72.354763 
" clip-path="url(#pf27387ccde)" style="fill: none; stroke: #0175b9; stroke-width: 1.5; stroke-linecap: round"/>
    <g clip-path="url(#pf27387ccde)">
     <use xlink:href="#mcd119653b8" x="85.03937" y="72.354763" style="fill: #0175b9; stroke: #0175b9"/>
    </g>
   </g>
   <g id="line2d_14">
    <path d="M 60.597033 102.047244 
" clip-path="url(#pf27387ccde)" style="fill: none; stroke: #42bca2; stroke-width: 1.5; stroke-linecap: round"/>
    <g clip-path="url(#pf27387ccde)">
     <use xlink:href="#m1e788f0cf6" x="60.597033" y="102.047244" style="fill: #42bca2; stroke: #42bca2"/>
    </g>
   </g>
   <g id="line2d_15">
    <path d="M 53.305166 102.047244 
" clip-path="url(#pf27387ccde)" style="fill: none; stroke: #0175b9; stroke-width: 1.5; stroke-linecap: round"/>
    <g clip-path="url(#pf27387ccde)">
     <use xlink:href="#mcd119653b8" x="53.305166" y="102.047244" style="fill: #0175b9; stroke: #0175b9"/>
    </g>
   </g>
   <g id="line2d_16">
    <path d="M 85.03937 131.83695 
" clip-path="url(#pf27387ccde)" style="fill: none; stroke: #42bca2; stroke-width: 1.5; stroke-linecap: round"/>
    <g clip-path="url(#pf27387ccde)">
     <use xlink:href="#m1e788f0cf6" x="85.03937" y="131.83695" style="fill: #42bca2; stroke: #42bca2"/>
    </g>
   </g>
   <g id="line2d_17">
    <path d="M 85.03937 135.337046 
" clip-path="url(#pf27387ccde)" style="fill: none; stroke: #0175b9; stroke-width: 1.5; stroke-linecap: round"/>
    <g clip-path="url(#pf27387ccde)">
     <use xlink:href="#mcd119653b8" x="85.03937" y="135.337046" style="fill: #0175b9; stroke: #0175b9"/>
    </g>
   </g>
   <g id="text_4">
    <!-- gpt-4o -->
    <g style="fill: #262626" transform="translate(138.895851 100.113932) scale(0.07 -0.07)">
     <defs>
      <path id="ArialMT-67" d="M 319 -275 
L 866 -356 
Q 900 -609 1056 -725 
Q 1266 -881 1628 -881 
Q 2019 -881 2231 -725 
Q 2444 -569 2519 -288 
Q 2563 -116 2559 434 
Q 2191 0 1641 0 
Q 956 0 581 494 
Q 206 988 206 1678 
Q 206 2153 378 2554 
Q 550 2956 876 3175 
Q 1203 3394 1644 3394 
Q 2231 3394 2613 2919 
L 2613 3319 
L 3131 3319 
L 3131 450 
Q 3131 -325 2973 -648 
Q 2816 -972 2473 -1159 
Q 2131 -1347 1631 -1347 
Q 1038 -1347 672 -1080 
Q 306 -813 319 -275 
z
M 784 1719 
Q 784 1066 1043 766 
Q 1303 466 1694 466 
Q 2081 466 2343 764 
Q 2606 1063 2606 1700 
Q 2606 2309 2336 2618 
Q 2066 2928 1684 2928 
Q 1309 2928 1046 2623 
Q 784 2319 784 1719 
z
" transform="scale(0.015625)"/>
      <path id="ArialMT-70" d="M 422 -1272 
L 422 3319 
L 934 3319 
L 934 2888 
Q 1116 3141 1344 3267 
Q 1572 3394 1897 3394 
Q 2322 3394 2647 3175 
Q 2972 2956 3137 2557 
Q 3303 2159 3303 1684 
Q 3303 1175 3120 767 
Q 2938 359 2589 142 
Q 2241 -75 1856 -75 
Q 1575 -75 1351 44 
Q 1128 163 984 344 
L 984 -1272 
L 422 -1272 
z
M 931 1641 
Q 931 1000 1190 694 
Q 1450 388 1819 388 
Q 2194 388 2461 705 
Q 2728 1022 2728 1688 
Q 2728 2322 2467 2637 
Q 2206 2953 1844 2953 
Q 1484 2953 1207 2617 
Q 931 2281 931 1641 
z
" transform="scale(0.015625)"/>
      <path id="ArialMT-74" d="M 1650 503 
L 1731 6 
Q 1494 -44 1306 -44 
Q 1000 -44 831 53 
Q 663 150 594 308 
Q 525 466 525 972 
L 525 2881 
L 113 2881 
L 113 3319 
L 525 3319 
L 525 4141 
L 1084 4478 
L 1084 3319 
L 1650 3319 
L 1650 2881 
L 1084 2881 
L 1084 941 
Q 1084 700 1114 631 
Q 1144 563 1211 522 
Q 1278 481 1403 481 
Q 1497 481 1650 503 
z
" transform="scale(0.015625)"/>
      <path id="ArialMT-2d" d="M 203 1375 
L 203 1941 
L 1931 1941 
L 1931 1375 
L 203 1375 
z
" transform="scale(0.015625)"/>
      <path id="ArialMT-34" d="M 2069 0 
L 2069 1097 
L 81 1097 
L 81 1613 
L 2172 4581 
L 2631 4581 
L 2631 1613 
L 3250 1613 
L 3250 1097 
L 2631 1097 
L 2631 0 
L 2069 0 
z
M 2069 1613 
L 2069 3678 
L 634 1613 
L 2069 1613 
z
" transform="scale(0.015625)"/>
      <path id="ArialMT-6f" d="M 213 1659 
Q 213 2581 725 3025 
Q 1153 3394 1769 3394 
Q 2453 3394 2887 2945 
Q 3322 2497 3322 1706 
Q 3322 1066 3130 698 
Q 2938 331 2570 128 
Q 2203 -75 1769 -75 
Q 1072 -75 642 372 
Q 213 819 213 1659 
z
M 791 1659 
Q 791 1022 1069 705 
Q 1347 388 1769 388 
Q 2188 388 2466 706 
Q 2744 1025 2744 1678 
Q 2744 2294 2464 2611 
Q 2184 2928 1769 2928 
Q 1347 2928 1069 2612 
Q 791 2297 791 1659 
z
" transform="scale(0.015625)"/>
     </defs>
     <use xlink:href="#ArialMT-67"/>
     <use xlink:href="#ArialMT-70" x="55.615234"/>
     <use xlink:href="#ArialMT-74" x="111.230469"/>
     <use xlink:href="#ArialMT-2d" x="139.013672"/>
     <use xlink:href="#ArialMT-34" x="172.314453"/>
     <use xlink:href="#ArialMT-6f" x="227.929688"/>
    </g>
    <!-- mini -->
    <g style="fill: #262626" transform="translate(142.401866 107.599775) scale(0.07 -0.07)">
     <defs>
      <path id="ArialMT-6d" d="M 422 0 
L 422 3319 
L 925 3319 
L 925 2853 
Q 1081 3097 1340 3245 
Q 1600 3394 1931 3394 
Q 2300 3394 2536 3241 
Q 2772 3088 2869 2813 
Q 3263 3394 3894 3394 
Q 4388 3394 4653 3120 
Q 4919 2847 4919 2278 
L 4919 0 
L 4359 0 
L 4359 2091 
Q 4359 2428 4304 2576 
Q 4250 2725 4106 2815 
Q 3963 2906 3769 2906 
Q 3419 2906 3187 2673 
Q 2956 2441 2956 1928 
L 2956 0 
L 2394 0 
L 2394 2156 
Q 2394 2531 2256 2718 
Q 2119 2906 1806 2906 
Q 1569 2906 1367 2781 
Q 1166 2656 1075 2415 
Q 984 2175 984 1722 
L 984 0 
L 422 0 
z
" transform="scale(0.015625)"/>
      <path id="ArialMT-69" d="M 425 3934 
L 425 4581 
L 988 4581 
L 988 3934 
L 425 3934 
z
M 425 0 
L 425 3319 
L 988 3319 
L 988 0 
L 425 0 
z
" transform="scale(0.015625)"/>
      <path id="ArialMT-6e" d="M 422 0 
L 422 3319 
L 928 3319 
L 928 2847 
Q 1294 3394 1984 3394 
Q 2284 3394 2536 3286 
Q 2788 3178 2913 3003 
Q 3038 2828 3088 2588 
Q 3119 2431 3119 2041 
L 3119 0 
L 2556 0 
L 2556 2019 
Q 2556 2363 2490 2533 
Q 2425 2703 2258 2804 
Q 2091 2906 1866 2906 
Q 1506 2906 1245 2678 
Q 984 2450 984 1813 
L 984 0 
L 422 0 
z
" transform="scale(0.015625)"/>
     </defs>
     <use xlink:href="#ArialMT-6d"/>
     <use xlink:href="#ArialMT-69" x="83.300781"/>
     <use xlink:href="#ArialMT-6e" x="105.517578"/>
     <use xlink:href="#ArialMT-69" x="161.132812"/>
    </g>
   </g>
   <g id="text_5">
    <!-- gpt-4o -->
    <g style="fill: #262626" transform="translate(75.116323 47.689854) scale(0.07 -0.07)">
     <use xlink:href="#ArialMT-67"/>
     <use xlink:href="#ArialMT-70" x="55.615234"/>
     <use xlink:href="#ArialMT-74" x="111.230469"/>
     <use xlink:href="#ArialMT-2d" x="139.013672"/>
     <use xlink:href="#ArialMT-34" x="172.314453"/>
     <use xlink:href="#ArialMT-6f" x="227.929688"/>
    </g>
   </g>
   <g id="text_6">
    <!-- deepseek -->
    <g style="fill: #262626" transform="translate(2.255102 100.154947) scale(0.07 -0.07)">
     <defs>
      <path id="ArialMT-64" d="M 2575 0 
L 2575 419 
Q 2259 -75 1647 -75 
Q 1250 -75 917 144 
Q 584 363 401 755 
Q 219 1147 219 1656 
Q 219 2153 384 2558 
Q 550 2963 881 3178 
Q 1213 3394 1622 3394 
Q 1922 3394 2156 3267 
Q 2391 3141 2538 2938 
L 2538 4581 
L 3097 4581 
L 3097 0 
L 2575 0 
z
M 797 1656 
Q 797 1019 1065 703 
Q 1334 388 1700 388 
Q 2069 388 2326 689 
Q 2584 991 2584 1609 
Q 2584 2291 2321 2609 
Q 2059 2928 1675 2928 
Q 1300 2928 1048 2622 
Q 797 2316 797 1656 
z
" transform="scale(0.015625)"/>
      <path id="ArialMT-65" d="M 2694 1069 
L 3275 997 
Q 3138 488 2766 206 
Q 2394 -75 1816 -75 
Q 1088 -75 661 373 
Q 234 822 234 1631 
Q 234 2469 665 2931 
Q 1097 3394 1784 3394 
Q 2450 3394 2872 2941 
Q 3294 2488 3294 1666 
Q 3294 1616 3291 1516 
L 816 1516 
Q 847 969 1125 678 
Q 1403 388 1819 388 
Q 2128 388 2347 550 
Q 2566 713 2694 1069 
z
M 847 1978 
L 2700 1978 
Q 2663 2397 2488 2606 
Q 2219 2931 1791 2931 
Q 1403 2931 1139 2672 
Q 875 2413 847 1978 
z
" transform="scale(0.015625)"/>
      <path id="ArialMT-73" d="M 197 991 
L 753 1078 
Q 800 744 1014 566 
Q 1228 388 1613 388 
Q 2000 388 2187 545 
Q 2375 703 2375 916 
Q 2375 1106 2209 1216 
Q 2094 1291 1634 1406 
Q 1016 1563 777 1677 
Q 538 1791 414 1992 
Q 291 2194 291 2438 
Q 291 2659 392 2848 
Q 494 3038 669 3163 
Q 800 3259 1026 3326 
Q 1253 3394 1513 3394 
Q 1903 3394 2198 3281 
Q 2494 3169 2634 2976 
Q 2775 2784 2828 2463 
L 2278 2388 
Q 2241 2644 2061 2787 
Q 1881 2931 1553 2931 
Q 1166 2931 1000 2803 
Q 834 2675 834 2503 
Q 834 2394 903 2306 
Q 972 2216 1119 2156 
Q 1203 2125 1616 2013 
Q 2213 1853 2448 1751 
Q 2684 1650 2818 1456 
Q 2953 1263 2953 975 
Q 2953 694 2789 445 
Q 2625 197 2315 61 
Q 2006 -75 1616 -75 
Q 969 -75 630 194 
Q 291 463 197 991 
z
" transform="scale(0.015625)"/>
      <path id="ArialMT-6b" d="M 425 0 
L 425 4581 
L 988 4581 
L 988 1969 
L 2319 3319 
L 3047 3319 
L 1778 2088 
L 3175 0 
L 2481 0 
L 1384 1697 
L 988 1316 
L 988 0 
L 425 0 
z
" transform="scale(0.015625)"/>
     </defs>
     <use xlink:href="#ArialMT-64"/>
     <use xlink:href="#ArialMT-65" x="55.615234"/>
     <use xlink:href="#ArialMT-65" x="111.230469"/>
     <use xlink:href="#ArialMT-70" x="166.845703"/>
     <use xlink:href="#ArialMT-73" x="222.460938"/>
     <use xlink:href="#ArialMT-65" x="272.460938"/>
     <use xlink:href="#ArialMT-65" x="328.076172"/>
     <use xlink:href="#ArialMT-6b" x="383.691406"/>
    </g>
    <!-- chat -->
    <g style="fill: #262626" transform="translate(10.818071 107.55876) scale(0.07 -0.07)">
     <defs>
      <path id="ArialMT-63" d="M 2588 1216 
L 3141 1144 
Q 3050 572 2676 248 
Q 2303 -75 1759 -75 
Q 1078 -75 664 370 
Q 250 816 250 1647 
Q 250 2184 428 2587 
Q 606 2991 970 3192 
Q 1334 3394 1763 3394 
Q 2303 3394 2647 3120 
Q 2991 2847 3088 2344 
L 2541 2259 
Q 2463 2594 2264 2762 
Q 2066 2931 1784 2931 
Q 1359 2931 1093 2626 
Q 828 2322 828 1663 
Q 828 994 1084 691 
Q 1341 388 1753 388 
Q 2084 388 2306 591 
Q 2528 794 2588 1216 
z
" transform="scale(0.015625)"/>
      <path id="ArialMT-68" d="M 422 0 
L 422 4581 
L 984 4581 
L 984 2938 
Q 1378 3394 1978 3394 
Q 2347 3394 2619 3248 
Q 2891 3103 3008 2847 
Q 3125 2591 3125 2103 
L 3125 0 
L 2563 0 
L 2563 2103 
Q 2563 2525 2380 2717 
Q 2197 2909 1863 2909 
Q 1613 2909 1392 2779 
Q 1172 2650 1078 2428 
Q 984 2206 984 1816 
L 984 0 
L 422 0 
z
" transform="scale(0.015625)"/>
      <path id="ArialMT-61" d="M 2588 409 
Q 2275 144 1986 34 
Q 1697 -75 1366 -75 
Q 819 -75 525 192 
Q 231 459 231 875 
Q 231 1119 342 1320 
Q 453 1522 633 1644 
Q 813 1766 1038 1828 
Q 1203 1872 1538 1913 
Q 2219 1994 2541 2106 
Q 2544 2222 2544 2253 
Q 2544 2597 2384 2738 
Q 2169 2928 1744 2928 
Q 1347 2928 1158 2789 
Q 969 2650 878 2297 
L 328 2372 
Q 403 2725 575 2942 
Q 747 3159 1072 3276 
Q 1397 3394 1825 3394 
Q 2250 3394 2515 3294 
Q 2781 3194 2906 3042 
Q 3031 2891 3081 2659 
Q 3109 2516 3109 2141 
L 3109 1391 
Q 3109 606 3145 398 
Q 3181 191 3288 0 
L 2700 0 
Q 2613 175 2588 409 
z
M 2541 1666 
Q 2234 1541 1622 1453 
Q 1275 1403 1131 1340 
Q 988 1278 909 1158 
Q 831 1038 831 891 
Q 831 666 1001 516 
Q 1172 366 1500 366 
Q 1825 366 2078 508 
Q 2331 650 2450 897 
Q 2541 1088 2541 1459 
L 2541 1666 
z
" transform="scale(0.015625)"/>
     </defs>
     <use xlink:href="#ArialMT-63"/>
     <use xlink:href="#ArialMT-68" x="50"/>
     <use xlink:href="#ArialMT-61" x="105.615234"/>
     <use xlink:href="#ArialMT-74" x="161.230469"/>
    </g>
   </g>
   <g id="text_7">
    <!-- claude-3.7 -->
    <g style="fill: #262626" transform="translate(68.696011 162.534019) scale(0.07 -0.07)">
     <defs>
      <path id="ArialMT-6c" d="M 409 0 
L 409 4581 
L 972 4581 
L 972 0 
L 409 0 
z
" transform="scale(0.015625)"/>
      <path id="ArialMT-75" d="M 2597 0 
L 2597 488 
Q 2209 -75 1544 -75 
Q 1250 -75 995 37 
Q 741 150 617 320 
Q 494 491 444 738 
Q 409 903 409 1263 
L 409 3319 
L 972 3319 
L 972 1478 
Q 972 1038 1006 884 
Q 1059 663 1231 536 
Q 1403 409 1656 409 
Q 1909 409 2131 539 
Q 2353 669 2445 892 
Q 2538 1116 2538 1541 
L 2538 3319 
L 3100 3319 
L 3100 0 
L 2597 0 
z
" transform="scale(0.015625)"/>
      <path id="ArialMT-33" d="M 269 1209 
L 831 1284 
Q 928 806 1161 595 
Q 1394 384 1728 384 
Q 2125 384 2398 659 
Q 2672 934 2672 1341 
Q 2672 1728 2419 1979 
Q 2166 2231 1775 2231 
Q 1616 2231 1378 2169 
L 1441 2663 
Q 1497 2656 1531 2656 
Q 1891 2656 2178 2843 
Q 2466 3031 2466 3422 
Q 2466 3731 2256 3934 
Q 2047 4138 1716 4138 
Q 1388 4138 1169 3931 
Q 950 3725 888 3313 
L 325 3413 
Q 428 3978 793 4289 
Q 1159 4600 1703 4600 
Q 2078 4600 2393 4439 
Q 2709 4278 2876 4000 
Q 3044 3722 3044 3409 
Q 3044 3113 2884 2869 
Q 2725 2625 2413 2481 
Q 2819 2388 3044 2092 
Q 3269 1797 3269 1353 
Q 3269 753 2831 336 
Q 2394 -81 1725 -81 
Q 1122 -81 723 278 
Q 325 638 269 1209 
z
" transform="scale(0.015625)"/>
      <path id="ArialMT-2e" d="M 581 0 
L 581 641 
L 1222 641 
L 1222 0 
L 581 0 
z
" transform="scale(0.015625)"/>
      <path id="ArialMT-37" d="M 303 3981 
L 303 4522 
L 3269 4522 
L 3269 4084 
Q 2831 3619 2401 2847 
Q 1972 2075 1738 1259 
Q 1569 684 1522 0 
L 944 0 
Q 953 541 1156 1306 
Q 1359 2072 1739 2783 
Q 2119 3494 2547 3981 
L 303 3981 
z
" transform="scale(0.015625)"/>
     </defs>
     <use xlink:href="#ArialMT-63"/>
     <use xlink:href="#ArialMT-6c" x="50"/>
     <use xlink:href="#ArialMT-61" x="72.216797"/>
     <use xlink:href="#ArialMT-75" x="127.832031"/>
     <use xlink:href="#ArialMT-64" x="183.447266"/>
     <use xlink:href="#ArialMT-65" x="239.0625"/>
     <use xlink:href="#ArialMT-2d" x="294.677734"/>
     <use xlink:href="#ArialMT-33" x="327.978516"/>
     <use xlink:href="#ArialMT-2e" x="383.59375"/>
     <use xlink:href="#ArialMT-37" x="411.376953"/>
    </g>
   </g>
  </g>
  <g id="legend_1">
   <g id="patch_5">
    <path d="M 38.896089 21.967937 
L 50.896089 21.967937 
L 50.896089 17.767937 
L 38.896089 17.767937 
z
" style="fill: #42bca2; opacity: 0.2; stroke: #42bca2; stroke-linejoin: miter"/>
   </g>
   <g id="text_8">
    <!-- General -->
    <g style="fill: #262626" transform="translate(55.696089 18.198625) scale(0.06 -0.06)">
     <defs>
      <path id="ArialMT-47" d="M 2638 1797 
L 2638 2334 
L 4578 2338 
L 4578 638 
Q 4131 281 3656 101 
Q 3181 -78 2681 -78 
Q 2006 -78 1454 211 
Q 903 500 622 1047 
Q 341 1594 341 2269 
Q 341 2938 620 3517 
Q 900 4097 1425 4378 
Q 1950 4659 2634 4659 
Q 3131 4659 3532 4498 
Q 3934 4338 4162 4050 
Q 4391 3763 4509 3300 
L 3963 3150 
Q 3859 3500 3706 3700 
Q 3553 3900 3268 4020 
Q 2984 4141 2638 4141 
Q 2222 4141 1919 4014 
Q 1616 3888 1430 3681 
Q 1244 3475 1141 3228 
Q 966 2803 966 2306 
Q 966 1694 1177 1281 
Q 1388 869 1791 669 
Q 2194 469 2647 469 
Q 3041 469 3416 620 
Q 3791 772 3984 944 
L 3984 1797 
L 2638 1797 
z
" transform="scale(0.015625)"/>
      <path id="ArialMT-72" d="M 416 0 
L 416 3319 
L 922 3319 
L 922 2816 
Q 1116 3169 1280 3281 
Q 1444 3394 1641 3394 
Q 1925 3394 2219 3213 
L 2025 2691 
Q 1819 2813 1613 2813 
Q 1428 2813 1281 2702 
Q 1134 2591 1072 2394 
Q 978 2094 978 1738 
L 978 0 
L 416 0 
z
" transform="scale(0.015625)"/>
     </defs>
     <use xlink:href="#ArialMT-47"/>
     <use xlink:href="#ArialMT-65" x="77.783203"/>
     <use xlink:href="#ArialMT-6e" x="133.398438"/>
     <use xlink:href="#ArialMT-65" x="189.013672"/>
     <use xlink:href="#ArialMT-72" x="244.628906"/>
     <use xlink:href="#ArialMT-61" x="277.929688"/>
     <use xlink:href="#ArialMT-6c" x="333.544922"/>
    </g>
    <!-- Purpose -->
    <g style="fill: #262626" transform="translate(55.696089 24.54475) scale(0.06 -0.06)">
     <defs>
      <path id="ArialMT-50" d="M 494 0 
L 494 4581 
L 2222 4581 
Q 2678 4581 2919 4538 
Q 3256 4481 3484 4323 
Q 3713 4166 3852 3881 
Q 3991 3597 3991 3256 
Q 3991 2672 3619 2267 
Q 3247 1863 2275 1863 
L 1100 1863 
L 1100 0 
L 494 0 
z
M 1100 2403 
L 2284 2403 
Q 2872 2403 3119 2622 
Q 3366 2841 3366 3238 
Q 3366 3525 3220 3729 
Q 3075 3934 2838 4000 
Q 2684 4041 2272 4041 
L 1100 4041 
L 1100 2403 
z
" transform="scale(0.015625)"/>
     </defs>
     <use xlink:href="#ArialMT-50"/>
     <use xlink:href="#ArialMT-75" x="66.699219"/>
     <use xlink:href="#ArialMT-72" x="122.314453"/>
     <use xlink:href="#ArialMT-70" x="155.615234"/>
     <use xlink:href="#ArialMT-6f" x="211.230469"/>
     <use xlink:href="#ArialMT-73" x="266.845703"/>
     <use xlink:href="#ArialMT-65" x="316.845703"/>
    </g>
   </g>
   <g id="patch_6">
    <path d="M 90.042339 21.967937 
L 102.042339 21.967937 
L 102.042339 17.767937 
L 90.042339 17.767937 
z
" style="fill: #0175b9; opacity: 0.2; stroke: #0175b9; stroke-linejoin: miter"/>
   </g>
   <g id="text_9">
    <!-- ReCellTy -->
    <g style="fill: #262626" transform="translate(106.842339 21.967937) scale(0.06 -0.06)">
     <defs>
      <path id="ArialMT-52" d="M 503 0 
L 503 4581 
L 2534 4581 
Q 3147 4581 3465 4457 
Q 3784 4334 3975 4021 
Q 4166 3709 4166 3331 
Q 4166 2844 3850 2509 
Q 3534 2175 2875 2084 
Q 3116 1969 3241 1856 
Q 3506 1613 3744 1247 
L 4541 0 
L 3778 0 
L 3172 953 
Q 2906 1366 2734 1584 
Q 2563 1803 2427 1890 
Q 2291 1978 2150 2013 
Q 2047 2034 1813 2034 
L 1109 2034 
L 1109 0 
L 503 0 
z
M 1109 2559 
L 2413 2559 
Q 2828 2559 3062 2645 
Q 3297 2731 3419 2920 
Q 3541 3109 3541 3331 
Q 3541 3656 3305 3865 
Q 3069 4075 2559 4075 
L 1109 4075 
L 1109 2559 
z
" transform="scale(0.015625)"/>
      <path id="ArialMT-43" d="M 3763 1606 
L 4369 1453 
Q 4178 706 3683 314 
Q 3188 -78 2472 -78 
Q 1731 -78 1267 223 
Q 803 525 561 1097 
Q 319 1669 319 2325 
Q 319 3041 592 3573 
Q 866 4106 1370 4382 
Q 1875 4659 2481 4659 
Q 3169 4659 3637 4309 
Q 4106 3959 4291 3325 
L 3694 3184 
Q 3534 3684 3231 3912 
Q 2928 4141 2469 4141 
Q 1941 4141 1586 3887 
Q 1231 3634 1087 3207 
Q 944 2781 944 2328 
Q 944 1744 1114 1308 
Q 1284 872 1643 656 
Q 2003 441 2422 441 
Q 2931 441 3284 734 
Q 3638 1028 3763 1606 
z
" transform="scale(0.015625)"/>
      <path id="ArialMT-54" d="M 1659 0 
L 1659 4041 
L 150 4041 
L 150 4581 
L 3781 4581 
L 3781 4041 
L 2266 4041 
L 2266 0 
L 1659 0 
z
" transform="scale(0.015625)"/>
      <path id="ArialMT-79" d="M 397 -1278 
L 334 -750 
Q 519 -800 656 -800 
Q 844 -800 956 -737 
Q 1069 -675 1141 -563 
Q 1194 -478 1313 -144 
Q 1328 -97 1363 -6 
L 103 3319 
L 709 3319 
L 1400 1397 
Q 1534 1031 1641 628 
Q 1738 1016 1872 1384 
L 2581 3319 
L 3144 3319 
L 1881 -56 
Q 1678 -603 1566 -809 
Q 1416 -1088 1222 -1217 
Q 1028 -1347 759 -1347 
Q 597 -1347 397 -1278 
z
" transform="scale(0.015625)"/>
     </defs>
     <use xlink:href="#ArialMT-52"/>
     <use xlink:href="#ArialMT-65" x="72.216797"/>
     <use xlink:href="#ArialMT-43" x="127.832031"/>
     <use xlink:href="#ArialMT-65" x="200.048828"/>
     <use xlink:href="#ArialMT-6c" x="255.664062"/>
     <use xlink:href="#ArialMT-6c" x="277.880859"/>
     <use xlink:href="#ArialMT-54" x="300.097656"/>
     <use xlink:href="#ArialMT-79" x="355.681641"/>
    </g>
   </g>
  </g>
 </g>
 <defs>
  <clipPath id="pf27387ccde">
   <path d="M 136.062992 102.047244 
C 136.062992 95.346883 134.743167 88.711675 132.17905 82.521349 
C 129.614933 76.331023 125.85639 70.705965 121.118519 65.968095 
C 116.380649 61.230224 110.755591 57.471681 104.565265 54.907564 
C 98.374939 52.343447 91.739731 51.023622 85.03937 51.023622 
C 78.339009 51.023622 71.703801 52.343447 65.513475 54.907564 
C 59.323149 57.471681 53.698091 61.230224 48.960221 65.968095 
C 44.22235 70.705965 40.463807 76.331023 37.89969 82.521349 
C 35.335573 88.711675 34.015748 95.346883 34.015748 102.047244 
C 34.015748 108.747605 35.335573 115.382813 37.89969 121.573139 
C 40.463807 127.763465 44.22235 133.388523 48.960221 138.126393 
C 53.698091 142.864264 59.323149 146.622807 65.513475 149.186924 
C 71.703801 151.751041 78.339009 153.070866 85.03937 153.070866 
C 91.739731 153.070866 98.374939 151.751041 104.565265 149.186924 
C 110.755591 146.622807 116.380649 142.864264 121.118519 138.126393 
C 125.85639 133.388523 129.614933 127.763465 132.17905 121.573139 
C 134.743167 115.382813 136.062992 108.747605 136.062992 102.047244 
M 85.03937 102.047244 
C 85.03937 102.047244 85.03937 102.047244 85.03937 102.047244 
C 85.03937 102.047244 85.03937 102.047244 85.03937 102.047244 
C 85.03937 102.047244 85.03937 102.047244 85.03937 102.047244 
C 85.03937 102.047244 85.03937 102.047244 85.03937 102.047244 
C 85.03937 102.047244 85.03937 102.047244 85.03937 102.047244 
C 85.03937 102.047244 85.03937 102.047244 85.03937 102.047244 
C 85.03937 102.047244 85.03937 102.047244 85.03937 102.047244 
C 85.03937 102.047244 85.03937 102.047244 85.03937 102.047244 
C 85.03937 102.047244 85.03937 102.047244 85.03937 102.047244 
C 85.03937 102.047244 85.03937 102.047244 85.03937 102.047244 
C 85.03937 102.047244 85.03937 102.047244 85.03937 102.047244 
C 85.03937 102.047244 85.03937 102.047244 85.03937 102.047244 
C 85.03937 102.047244 85.03937 102.047244 85.03937 102.047244 
C 85.03937 102.047244 85.03937 102.047244 85.03937 102.047244 
C 85.03937 102.047244 85.03937 102.047244 85.03937 102.047244 
C 85.03937 102.047244 85.03937 102.047244 85.03937 102.047244 
z
"/>
  </clipPath>
 </defs>
</svg>
