<?xml version="1.0" encoding="utf-8" standalone="no"?>
<!DOCTYPE svg PUBLIC "-//W3C//DTD SVG 1.1//EN"
  "http://www.w3.org/Graphics/SVG/1.1/DTD/svg11.dtd">
<svg xmlns:xlink="http://www.w3.org/1999/xlink" width="170.07874pt" height="170.07874pt" viewBox="0 0 170.07874 170.07874" xmlns="http://www.w3.org/2000/svg" version="1.1">
 <metadata>
  <rdf:RDF xmlns:dc="http://purl.org/dc/elements/1.1/" xmlns:cc="http://creativecommons.org/ns#" xmlns:rdf="http://www.w3.org/1999/02/22-rdf-syntax-ns#">
   <cc:Work>
    <dc:type rdf:resource="http://purl.org/dc/dcmitype/StillImage"/>
    <dc:date>2025-05-13T10:09:41.452616</dc:date>
    <dc:format>image/svg+xml</dc:format>
    <dc:creator>
     <cc:Agent>
      <dc:title>Matplotlib v3.9.4, https://matplotlib.org/</dc:title>
     </cc:Agent>
    </dc:creator>
   </cc:Work>
  </rdf:RDF>
 </metadata>
 <defs>
  <style type="text/css">*{stroke-linejoin: round; stroke-linecap: butt}</style>
 </defs>
 <g id="figure_1">
  <g id="patch_1">
   <path d="M 0 170.07874 
L 170.07874 170.07874 
L 170.07874 0 
L 0 0 
z
" style="fill: #ffffff"/>
  </g>
  <g id="axes_1">
   <g id="patch_2">
    <path d="M 136.062992 102.047244 
C 136.062992 95.346883 134.743167 88.711675 132.17905 82.521349 
C 129.614933 76.331023 125.85639 70.705965 121.118519 65.968095 
C 116.380649 61.230224 110.755591 57.471681 104.565265 54.907564 
C 98.374939 52.343447 91.739731 51.023622 85.03937 51.023622 
C 78.339009 51.023622 71.703801 52.343447 65.513475 54.907564 
C 59.323149 57.471681 53.698091 61.230224 48.960221 65.968095 
C 44.22235 70.705965 40.463807 76.331023 37.89969 82.521349 
C 35.335573 88.711675 34.015748 95.346883 34.015748 102.047244 
C 34.015748 108.747605 35.335573 115.382813 37.89969 121.573139 
C 40.463807 127.763465 44.22235 133.388523 48.960221 138.126393 
C 53.698091 142.864264 59.323149 146.622807 65.513475 149.186924 
C 71.703801 151.751041 78.339009 153.070866 85.03937 153.070866 
C 91.739731 153.070866 98.374939 151.751041 104.565265 149.186924 
C 110.755591 146.622807 116.380649 142.864264 121.118519 138.126393 
C 125.85639 133.388523 129.614933 127.763465 132.17905 121.573139 
C 134.743167 115.382813 136.062992 108.747605 136.062992 102.047244 
M 85.03937 102.047244 
C 85.03937 102.047244 85.03937 102.047244 85.03937 102.047244 
C 85.03937 102.047244 85.03937 102.047244 85.03937 102.047244 
C 85.03937 102.047244 85.03937 102.047244 85.03937 102.047244 
C 85.03937 102.047244 85.03937 102.047244 85.03937 102.047244 
C 85.03937 102.047244 85.03937 102.047244 85.03937 102.047244 
C 85.03937 102.047244 85.03937 102.047244 85.03937 102.047244 
C 85.03937 102.047244 85.03937 102.047244 85.03937 102.047244 
C 85.03937 102.047244 85.03937 102.047244 85.03937 102.047244 
C 85.03937 102.047244 85.03937 102.047244 85.03937 102.047244 
C 85.03937 102.047244 85.03937 102.047244 85.03937 102.047244 
C 85.03937 102.047244 85.03937 102.047244 85.03937 102.047244 
C 85.03937 102.047244 85.03937 102.047244 85.03937 102.047244 
C 85.03937 102.047244 85.03937 102.047244 85.03937 102.047244 
C 85.03937 102.047244 85.03937 102.047244 85.03937 102.047244 
C 85.03937 102.047244 85.03937 102.047244 85.03937 102.047244 
C 85.03937 102.047244 85.03937 102.047244 85.03937 102.047244 
z
" style="fill: #ffffff"/>
   </g>
   <g id="matplotlib.axis_1">
    <g id="xtick_1">
     <g id="line2d_1">
      <path d="M 85.03937 102.047244 
L 136.062992 102.047244 
" clip-path="url(#p3ec69fa05b)" style="fill: none; stroke: #808080; stroke-opacity: 0.7; stroke-width: 0.2; stroke-linecap: round"/>
     </g>
    </g>
    <g id="xtick_2">
     <g id="line2d_2">
      <path d="M 85.03937 102.047244 
L 85.03937 51.023622 
" clip-path="url(#p3ec69fa05b)" style="fill: none; stroke: #808080; stroke-opacity: 0.7; stroke-width: 0.2; stroke-linecap: round"/>
     </g>
    </g>
    <g id="xtick_3">
     <g id="line2d_3">
      <path d="M 85.03937 102.047244 
L 34.015748 102.047244 
" clip-path="url(#p3ec69fa05b)" style="fill: none; stroke: #808080; stroke-opacity: 0.7; stroke-width: 0.2; stroke-linecap: round"/>
     </g>
    </g>
    <g id="xtick_4">
     <g id="line2d_4">
      <path d="M 85.03937 102.047244 
L 85.03937 153.070866 
" clip-path="url(#p3ec69fa05b)" style="fill: none; stroke: #808080; stroke-opacity: 0.7; stroke-width: 0.2; stroke-linecap: round"/>
     </g>
    </g>
   </g>
   <g id="matplotlib.axis_2">
    <g id="ytick_1">
     <g id="line2d_5">
      <path d="M 85.03937 102.047244 
C 85.03937 102.047244 85.03937 102.047244 85.03937 102.047244 
C 85.03937 102.047244 85.03937 102.047244 85.03937 102.047244 
C 85.03937 102.047244 85.03937 102.047244 85.03937 102.047244 
C 85.03937 102.047244 85.03937 102.047244 85.03937 102.047244 
C 85.03937 102.047244 85.03937 102.047244 85.03937 102.047244 
C 85.03937 102.047244 85.03937 102.047244 85.03937 102.047244 
C 85.03937 102.047244 85.03937 102.047244 85.03937 102.047244 
C 85.03937 102.047244 85.03937 102.047244 85.03937 102.047244 
C 85.03937 102.047244 85.03937 102.047244 85.03937 102.047244 
C 85.03937 102.047244 85.03937 102.047244 85.03937 102.047244 
C 85.03937 102.047244 85.03937 102.047244 85.03937 102.047244 
C 85.03937 102.047244 85.03937 102.047244 85.03937 102.047244 
C 85.03937 102.047244 85.03937 102.047244 85.03937 102.047244 
C 85.03937 102.047244 85.03937 102.047244 85.03937 102.047244 
C 85.03937 102.047244 85.03937 102.047244 85.03937 102.047244 
C 85.03937 102.047244 85.03937 102.047244 85.03937 102.047244 
" clip-path="url(#p3ec69fa05b)" style="fill: none; stroke: #808080; stroke-opacity: 0.7; stroke-width: 0.2; stroke-linecap: round"/>
     </g>
     <g id="text_1">
      <!-- 0.3 -->
      <g style="fill: #262626" transform="translate(85.03937 101.060525) scale(0.05 -0.05)">
       <defs>
        <path id="Arial-BoldMT-30" d="M 1756 4600 
Q 2422 4600 2797 4125 
Q 3244 3563 3244 2259 
Q 3244 959 2794 391 
Q 2422 -78 1756 -78 
Q 1088 -78 678 436 
Q 269 950 269 2269 
Q 269 3563 719 4131 
Q 1091 4600 1756 4600 
z
M 1756 3872 
Q 1597 3872 1472 3770 
Q 1347 3669 1278 3406 
Q 1188 3066 1188 2259 
Q 1188 1453 1269 1151 
Q 1350 850 1473 750 
Q 1597 650 1756 650 
Q 1916 650 2041 751 
Q 2166 853 2234 1116 
Q 2325 1453 2325 2259 
Q 2325 3066 2244 3367 
Q 2163 3669 2039 3770 
Q 1916 3872 1756 3872 
z
" transform="scale(0.015625)"/>
        <path id="Arial-BoldMT-2e" d="M 459 0 
L 459 878 
L 1338 878 
L 1338 0 
L 459 0 
z
" transform="scale(0.015625)"/>
        <path id="Arial-BoldMT-33" d="M 241 1216 
L 1091 1319 
Q 1131 994 1309 822 
Q 1488 650 1741 650 
Q 2013 650 2198 856 
Q 2384 1063 2384 1413 
Q 2384 1744 2206 1937 
Q 2028 2131 1772 2131 
Q 1603 2131 1369 2066 
L 1466 2781 
Q 1822 2772 2009 2936 
Q 2197 3100 2197 3372 
Q 2197 3603 2059 3740 
Q 1922 3878 1694 3878 
Q 1469 3878 1309 3722 
Q 1150 3566 1116 3266 
L 306 3403 
Q 391 3819 561 4067 
Q 731 4316 1036 4458 
Q 1341 4600 1719 4600 
Q 2366 4600 2756 4188 
Q 3078 3850 3078 3425 
Q 3078 2822 2419 2463 
Q 2813 2378 3048 2084 
Q 3284 1791 3284 1375 
Q 3284 772 2843 347 
Q 2403 -78 1747 -78 
Q 1125 -78 715 280 
Q 306 638 241 1216 
z
" transform="scale(0.015625)"/>
       </defs>
       <use xlink:href="#Arial-BoldMT-30"/>
       <use xlink:href="#Arial-BoldMT-2e" x="55.615234"/>
       <use xlink:href="#Arial-BoldMT-33" x="83.398438"/>
      </g>
     </g>
    </g>
    <g id="ytick_2">
     <g id="line2d_6">
      <path d="M 110.551181 102.047244 
C 110.551181 98.697064 109.891269 95.37946 108.60921 92.284297 
C 107.327152 89.189134 105.44788 86.376605 103.078945 84.00767 
C 100.710009 81.638734 97.897481 79.759463 94.802317 78.477404 
C 91.707154 77.195346 88.38955 76.535433 85.03937 76.535433 
C 81.68919 76.535433 78.371586 77.195346 75.276423 78.477404 
C 72.18126 79.759463 69.368731 81.638734 66.999796 84.00767 
C 64.63086 86.376605 62.751589 89.189134 61.46953 92.284297 
C 60.187472 95.37946 59.527559 98.697064 59.527559 102.047244 
C 59.527559 105.397424 60.187472 108.715028 61.46953 111.810192 
C 62.751589 114.905355 64.63086 117.717883 66.999796 120.086819 
C 69.368731 122.455754 72.18126 124.335026 75.276423 125.617084 
C 78.371586 126.899143 81.68919 127.559055 85.03937 127.559055 
C 88.38955 127.559055 91.707154 126.899143 94.802317 125.617084 
C 97.897481 124.335026 100.710009 122.455754 103.078945 120.086819 
C 105.44788 117.717883 107.327152 114.905355 108.60921 111.810192 
C 109.891269 108.715028 110.551181 105.397424 110.551181 102.047244 
" clip-path="url(#p3ec69fa05b)" style="fill: none; stroke: #808080; stroke-opacity: 0.7; stroke-width: 0.2; stroke-linecap: round"/>
     </g>
     <g id="text_2">
      <!-- 0.6 -->
      <g style="fill: #262626" transform="translate(108.60921 91.297578) scale(0.05 -0.05)">
       <defs>
        <path id="Arial-BoldMT-36" d="M 3247 3459 
L 2397 3366 
Q 2366 3628 2234 3753 
Q 2103 3878 1894 3878 
Q 1616 3878 1423 3628 
Q 1231 3378 1181 2588 
Q 1509 2975 1997 2975 
Q 2547 2975 2939 2556 
Q 3331 2138 3331 1475 
Q 3331 772 2918 347 
Q 2506 -78 1859 -78 
Q 1166 -78 719 461 
Q 272 1000 272 2228 
Q 272 3488 737 4044 
Q 1203 4600 1947 4600 
Q 2469 4600 2811 4308 
Q 3153 4016 3247 3459 
z
M 1256 1544 
Q 1256 1116 1453 883 
Q 1650 650 1903 650 
Q 2147 650 2309 840 
Q 2472 1031 2472 1466 
Q 2472 1913 2297 2120 
Q 2122 2328 1859 2328 
Q 1606 2328 1431 2129 
Q 1256 1931 1256 1544 
z
" transform="scale(0.015625)"/>
       </defs>
       <use xlink:href="#Arial-BoldMT-30"/>
       <use xlink:href="#Arial-BoldMT-2e" x="55.615234"/>
       <use xlink:href="#Arial-BoldMT-36" x="83.398438"/>
      </g>
     </g>
    </g>
    <g id="ytick_3">
     <g id="line2d_7">
      <path d="M 136.062992 102.047244 
C 136.062992 95.346883 134.743167 88.711675 132.17905 82.521349 
C 129.614933 76.331023 125.85639 70.705965 121.118519 65.968095 
C 116.380649 61.230224 110.755591 57.471681 104.565265 54.907564 
C 98.374939 52.343447 91.739731 51.023622 85.03937 51.023622 
C 78.339009 51.023622 71.703801 52.343447 65.513475 54.907564 
C 59.323149 57.471681 53.698091 61.230224 48.960221 65.968095 
C 44.22235 70.705965 40.463807 76.331023 37.89969 82.521349 
C 35.335573 88.711675 34.015748 95.346883 34.015748 102.047244 
C 34.015748 108.747605 35.335573 115.382813 37.89969 121.573139 
C 40.463807 127.763465 44.22235 133.388523 48.960221 138.126393 
C 53.698091 142.864264 59.323149 146.622807 65.513475 149.186924 
C 71.703801 151.751041 78.339009 153.070866 85.03937 153.070866 
C 91.739731 153.070866 98.374939 151.751041 104.565265 149.186924 
C 110.755591 146.622807 116.380649 142.864264 121.118519 138.126393 
C 125.85639 133.388523 129.614933 127.763465 132.17905 121.573139 
C 134.743167 115.382813 136.062992 108.747605 136.062992 102.047244 
" clip-path="url(#p3ec69fa05b)" style="fill: none; stroke: #808080; stroke-opacity: 0.7; stroke-width: 0.2; stroke-linecap: round"/>
     </g>
     <g id="text_3">
      <!-- 0.9 -->
      <g style="fill: #262626" transform="translate(132.17905 81.534631) scale(0.05 -0.05)">
       <defs>
        <path id="Arial-BoldMT-39" d="M 291 1059 
L 1141 1153 
Q 1172 894 1303 769 
Q 1434 644 1650 644 
Q 1922 644 2112 894 
Q 2303 1144 2356 1931 
Q 2025 1547 1528 1547 
Q 988 1547 595 1964 
Q 203 2381 203 3050 
Q 203 3747 617 4173 
Q 1031 4600 1672 4600 
Q 2369 4600 2816 4061 
Q 3263 3522 3263 2288 
Q 3263 1031 2797 475 
Q 2331 -81 1584 -81 
Q 1047 -81 715 205 
Q 384 491 291 1059 
z
M 2278 2978 
Q 2278 3403 2083 3637 
Q 1888 3872 1631 3872 
Q 1388 3872 1227 3680 
Q 1066 3488 1066 3050 
Q 1066 2606 1241 2398 
Q 1416 2191 1678 2191 
Q 1931 2191 2104 2391 
Q 2278 2591 2278 2978 
z
" transform="scale(0.015625)"/>
       </defs>
       <use xlink:href="#Arial-BoldMT-30"/>
       <use xlink:href="#Arial-BoldMT-2e" x="55.615234"/>
       <use xlink:href="#Arial-BoldMT-39" x="83.398438"/>
      </g>
     </g>
    </g>
   </g>
   <g id="patch_3">
    <path d="M 102.30651 102.047244 
L 102.305299 101.620691 
L 102.296704 101.194044 
L 102.281009 100.767306 
L 102.258488 100.340464 
L 102.229404 99.913489 
L 102.194002 99.486335 
L 102.152512 99.058945 
L 102.105146 98.63125 
L 102.052094 98.203171 
L 101.993528 97.774619 
L 101.929594 97.3455 
L 101.860418 96.915716 
L 101.7861 96.485166 
L 101.706715 96.053752 
L 101.622316 95.621374 
L 101.532929 95.187943 
L 101.438556 94.753373 
L 101.339175 94.31759 
L 101.234742 93.880534 
L 101.12519 93.442157 
L 101.010431 93.002429 
L 100.890358 92.561338 
L 100.764845 92.118895 
L 100.633753 91.675131 
L 100.496926 91.230101 
L 100.354196 90.783887 
L 100.205388 90.336595 
L 100.050316 89.888359 
L 99.88879 89.439341 
L 99.720618 88.989729 
L 99.545604 88.53974 
L 99.363556 88.089621 
L 99.174284 87.639643 
L 98.977604 87.190107 
L 98.77334 86.741338 
L 98.561323 86.293688 
L 98.341397 85.847534 
L 98.113417 85.403276 
L 97.877255 84.961335 
L 97.632793 84.522155 
L 97.379935 84.086198 
L 97.118599 83.653943 
L 96.848722 83.225889 
L 96.570259 82.802545 
L 96.283187 82.384439 
L 95.987501 81.972105 
L 95.683216 81.566091 
L 95.370369 81.166953 
L 95.049016 80.775254 
L 94.719234 80.391562 
L 94.38112 80.016451 
L 94.034792 79.650496 
L 93.680387 79.294275 
L 93.318064 78.948367 
L 92.947997 78.61335 
L 92.570382 78.289798 
L 92.185434 77.978286 
L 91.793384 77.679381 
L 91.394481 77.393648 
L 90.988992 77.121645 
L 90.5772 76.863923 
L 90.159404 76.621026 
L 89.735918 76.393491 
L 89.307074 76.181842 
L 88.873215 75.986597 
L 88.434701 75.808261 
L 87.991905 75.647329 
L 87.545213 75.504282 
L 87.095025 75.379591 
L 86.641753 75.27371 
L 86.185824 75.187081 
L 85.727673 75.120131 
L 85.26775 75.073269 
L 84.806516 75.046872 
L 84.34445 75.040936 
L 83.88203 75.055082 
L 83.419724 75.088901 
L 82.957983 75.141969 
L 82.497244 75.213848 
L 82.037932 75.304089 
L 81.580455 75.412231 
L 81.125206 75.537801 
L 80.672564 75.680319 
L 80.222893 75.839294 
L 79.776538 76.014229 
L 79.333832 76.204619 
L 78.89509 76.409953 
L 78.460608 76.629716 
L 78.030669 76.863387 
L 77.605537 77.110444 
L 77.185459 77.370362 
L 76.770663 77.642615 
L 76.361361 77.926679 
L 75.957746 78.222027 
L 75.559995 78.52814 
L 75.168264 78.844498 
L 74.782694 79.17059 
L 74.403406 79.505907 
L 74.030504 79.84995 
L 73.664077 80.202229 
L 73.304194 80.562263 
L 72.950909 80.929582 
L 72.60426 81.303728 
L 72.264271 81.68426 
L 71.93095 82.070747 
L 71.604293 82.462777 
L 71.284283 82.859955 
L 70.970893 83.261904 
L 70.664084 83.668266 
L 70.363811 84.0787 
L 70.07002 84.492891 
L 69.782653 84.91054 
L 69.501648 85.331372 
L 69.226938 85.755133 
L 68.95846 86.181592 
L 68.696149 86.610539 
L 68.439944 87.041785 
L 68.189789 87.475163 
L 67.945635 87.910527 
L 67.707439 88.347751 
L 67.475171 88.786727 
L 67.248811 89.227368 
L 67.028351 89.669599 
L 66.8138 90.113366 
L 66.605179 90.558625 
L 66.402529 91.005347 
L 66.205908 91.453512 
L 66.015391 91.903111 
L 65.831072 92.354139 
L 65.653066 92.8066 
L 65.481508 93.2605 
L 65.316551 93.715845 
L 65.158367 94.172644 
L 65.007152 94.6309 
L 64.863114 95.090615 
L 64.726486 95.551784 
L 64.597514 96.014394 
L 64.476461 96.478424 
L 64.363607 96.943843 
L 64.259245 97.410608 
L 64.16368 97.878661 
L 64.077231 98.347933 
L 64.000222 98.818339 
L 63.932991 99.289779 
L 63.875878 99.762134 
L 63.829228 100.235272 
L 63.793392 100.709042 
L 63.768719 101.183275 
L 63.755558 101.657786 
L 63.754255 102.132373 
L 63.764968 102.606818 
L 63.787411 103.08091 
L 63.821234 103.554452 
L 63.866084 104.027267 
L 63.921606 104.499192 
L 63.987449 104.970083 
L 64.063264 105.439815 
L 64.148708 105.908275 
L 64.243444 106.37537 
L 64.347144 106.841021 
L 64.459491 107.305165 
L 64.580178 107.76775 
L 64.708913 108.228739 
L 64.845418 108.688107 
L 64.98943 109.145837 
L 65.140702 109.601921 
L 65.299006 110.056359 
L 65.464134 110.509157 
L 65.635893 110.960322 
L 65.814113 111.409865 
L 65.998643 111.857797 
L 66.18935 112.304126 
L 66.386124 112.748857 
L 66.588872 113.191988 
L 66.797521 113.63351 
L 67.012017 114.073406 
L 67.232321 114.511645 
L 67.458413 114.948186 
L 67.690288 115.382971 
L 67.927955 115.815928 
L 68.171435 116.246967 
L 68.420762 116.67598 
L 68.675977 117.102839 
L 68.937132 117.527396 
L 69.204282 117.949482 
L 69.477489 118.368907 
L 69.756817 118.785459 
L 70.042331 119.198903 
L 70.334093 119.608984 
L 70.632166 120.015423 
L 70.936606 120.417922 
L 71.247464 120.81616 
L 71.564784 121.209797 
L 71.888601 121.598472 
L 72.218938 121.981805 
L 72.55581 122.3594 
L 72.899217 122.730843 
L 73.249145 123.095703 
L 73.605568 123.453536 
L 73.968441 123.803885 
L 74.337707 124.146278 
L 74.713289 124.480236 
L 75.095094 124.805268 
L 75.483014 125.120873 
L 75.876919 125.426548 
L 76.276664 125.721778 
L 76.682086 126.006048 
L 77.093001 126.278839 
L 77.50921 126.539627 
L 77.930495 126.787891 
L 78.35662 127.023108 
L 78.787332 127.244756 
L 79.222358 127.452317 
L 79.661411 127.645275 
L 80.104185 127.823119 
L 80.550358 127.985344 
L 80.999591 128.131451 
L 81.45153 128.260948 
L 81.905804 128.373353 
L 82.362026 128.468191 
L 82.819795 128.544998 
L 83.278694 128.603323 
L 83.738292 128.642725 
L 84.198143 128.662776 
L 84.657786 128.663064 
L 85.116748 128.64319 
L 85.574546 128.602972 
L 86.030715 128.542722 
L 86.484804 128.462846 
L 86.936373 128.363762 
L 87.384992 128.245906 
L 87.830248 128.10973 
L 88.271737 127.955696 
L 88.709072 127.784284 
L 89.141876 127.595982 
L 89.569789 127.391293 
L 89.992463 127.170729 
L 90.409568 126.934813 
L 90.820786 126.684077 
L 91.225817 126.419062 
L 91.624376 126.140316 
L 92.016197 125.848394 
L 92.401028 125.543858 
L 92.778638 125.227273 
L 93.148812 124.89921 
L 93.511354 124.560241 
L 93.866088 124.210942 
L 94.212857 123.851888 
L 94.551522 123.483653 
L 94.881968 123.106812 
L 95.204097 122.721935 
L 95.517832 122.329587 
L 95.823118 121.930327 
L 96.11992 121.52471 
L 96.408222 121.113277 
L 96.688031 120.696562 
L 96.959371 120.275087 
L 97.222289 119.849359 
L 97.476848 119.41987 
L 97.723129 118.987098 
L 97.961234 118.551499 
L 98.191276 118.113511 
L 98.413389 117.673553 
L 98.627715 117.232018 
L 98.834413 116.789278 
L 99.033651 116.34568 
L 99.225605 115.901543 
L 99.41046 115.457161 
L 99.588404 115.012803 
L 99.759631 114.568706 
L 99.924333 114.125083 
L 100.082703 113.682115 
L 100.23493 113.23996 
L 100.381195 112.798743 
L 100.521674 112.358566 
L 100.656531 111.919504 
L 100.785919 111.481606 
L 100.909975 111.0449 
L 101.02882 110.609388 
L 101.142559 110.175054 
L 101.251275 109.741863 
L 101.35503 109.309763 
L 101.453864 108.878689 
L 101.547795 108.448561 
L 101.636815 108.019292 
L 101.720894 107.590786 
L 101.799973 107.162942 
L 101.873972 106.735659 
L 101.942786 106.308832 
L 102.006283 105.882361 
L 102.064312 105.45615 
L 102.116696 105.030108 
L 102.163238 104.604155 
L 102.203722 104.178219 
L 102.237914 103.752242 
L 102.265561 103.326179 
L 102.286397 102.899998 
L 102.300144 102.473686 
L 102.30651 102.047244 
z
" clip-path="url(#p3ec69fa05b)" style="fill: #42bca2; opacity: 0.3; stroke: #42bca2; stroke-linejoin: miter"/>
   </g>
   <g id="patch_4">
    <path d="M 110.603034 102.047244 
L 110.555987 101.410495 
L 110.496975 100.775583 
L 110.42637 100.142578 
L 110.344534 99.51153 
L 110.251815 98.882474 
L 110.148549 98.255432 
L 110.035055 97.630408 
L 109.911633 97.007396 
L 109.778565 96.386376 
L 109.63611 95.76732 
L 109.484507 95.150192 
L 109.32397 94.534949 
L 109.154689 93.921545 
L 108.97683 93.309934 
L 108.790532 92.700067 
L 108.595911 92.091904 
L 108.393055 91.485405 
L 108.182028 90.880542 
L 107.96287 90.277296 
L 107.735597 89.675662 
L 107.500203 89.075649 
L 107.256659 88.477284 
L 107.004918 87.880613 
L 106.744915 87.285704 
L 106.476568 86.692647 
L 106.19978 86.101556 
L 105.914443 85.512571 
L 105.62044 84.925859 
L 105.317644 84.341615 
L 105.005924 83.760059 
L 104.685147 83.181441 
L 104.355177 82.606041 
L 104.015881 82.034163 
L 103.667129 81.466144 
L 103.308799 80.902343 
L 102.940772 80.34315 
L 102.562944 79.788976 
L 102.17522 79.240262 
L 101.777517 78.697468 
L 101.369769 78.161077 
L 100.951925 77.631594 
L 100.523951 77.109541 
L 100.085831 76.59546 
L 99.637568 76.089906 
L 99.179184 75.593452 
L 98.710724 75.10668 
L 98.232251 74.630185 
L 97.74385 74.164571 
L 97.245627 73.710448 
L 96.737711 73.268436 
L 96.22025 72.839156 
L 95.693415 72.423233 
L 95.157396 72.021295 
L 94.612405 71.633966 
L 94.058676 71.261875 
L 93.496461 70.905642 
L 92.926032 70.565888 
L 92.34768 70.243226 
L 91.761715 69.938263 
L 91.168466 69.6516 
L 90.568278 69.383829 
L 89.961513 69.135531 
L 89.348552 68.907278 
L 88.729789 68.699628 
L 88.105635 68.51313 
L 87.476514 68.348315 
L 86.842867 68.205703 
L 86.205146 68.085795 
L 85.563817 67.989078 
L 84.919358 67.916019 
L 84.272272 67.866827 
L 83.623091 67.84114 
L 82.972333 67.838502 
L 82.3205 67.858443 
L 81.668076 67.900483 
L 81.015529 67.964129 
L 80.363305 68.04888 
L 79.711834 68.154228 
L 79.061528 68.279657 
L 78.412778 68.424647 
L 77.76596 68.588674 
L 77.121426 68.771213 
L 76.479514 68.971735 
L 75.840541 69.189715 
L 75.204805 69.424627 
L 74.572587 69.67595 
L 73.944149 69.943168 
L 73.319734 70.22577 
L 72.699571 70.523252 
L 72.083868 70.83512 
L 71.472821 71.160888 
L 70.866608 71.500085 
L 70.265393 71.85225 
L 69.669327 72.216934 
L 69.078547 72.593707 
L 68.493181 72.982152 
L 67.913344 73.381869 
L 67.339145 73.792478 
L 66.770684 74.213613 
L 66.208056 74.644931 
L 65.65135 75.086105 
L 65.100655 75.536831 
L 64.556057 75.996823 
L 64.017644 76.465814 
L 63.485505 76.943559 
L 62.959735 77.429829 
L 62.440433 77.924418 
L 61.927706 78.427136 
L 61.421671 78.937811 
L 60.922454 79.456287 
L 60.430196 79.982423 
L 59.945047 80.516096 
L 59.467174 81.057191 
L 58.996761 81.605609 
L 58.534005 82.161258 
L 58.079125 82.724056 
L 57.632353 83.293927 
L 57.193944 83.870803 
L 56.764169 84.454616 
L 56.34332 85.045302 
L 55.931706 85.642795 
L 55.529658 86.24703 
L 55.137522 86.857937 
L 54.755665 87.475443 
L 54.384471 88.099465 
L 54.02434 88.729917 
L 53.675688 89.366699 
L 53.338948 90.009705 
L 53.014565 90.658814 
L 52.702998 91.313895 
L 52.404717 91.974801 
L 52.120203 92.641372 
L 51.849945 93.313432 
L 51.594441 93.99079 
L 51.354194 94.673239 
L 51.129713 95.360554 
L 50.921509 96.052494 
L 50.730096 96.7488 
L 50.555987 97.449197 
L 50.399695 98.153392 
L 50.261729 98.861075 
L 50.142596 99.57192 
L 50.042794 100.285583 
L 49.962816 101.001705 
L 49.903147 101.71991 
L 49.864235 102.439807 
L 49.846069 103.160989 
L 49.848222 103.883052 
L 49.870247 104.605609 
L 49.911689 105.328289 
L 49.972087 106.050738 
L 50.050977 106.772623 
L 50.147892 107.493623 
L 50.262366 108.213437 
L 50.393933 108.931783 
L 50.542129 109.648393 
L 50.706496 110.363015 
L 50.886578 111.075417 
L 51.081929 111.785378 
L 51.292112 112.492694 
L 51.516696 113.197176 
L 51.755265 113.898644 
L 52.007412 114.596935 
L 52.272745 115.291893 
L 52.550886 115.983374 
L 52.841471 116.671242 
L 53.144155 117.355367 
L 53.458605 118.035627 
L 53.784509 118.7119 
L 54.12157 119.384071 
L 54.46951 120.052023 
L 54.828069 120.71564 
L 55.197004 121.374801 
L 55.576089 122.029384 
L 55.965116 122.679261 
L 56.363894 123.324294 
L 56.772247 123.964339 
L 57.190014 124.599241 
L 57.61705 125.228832 
L 58.053221 125.852934 
L 58.498406 126.471353 
L 58.952494 127.083879 
L 59.415386 127.690287 
L 59.886987 128.290334 
L 60.367211 128.883762 
L 60.855977 129.470291 
L 61.353207 130.049625 
L 61.858824 130.621448 
L 62.372752 131.185426 
L 62.894916 131.741204 
L 63.425234 132.288411 
L 63.963623 132.826654 
L 64.509994 133.355526 
L 65.064251 133.874599 
L 65.62629 134.383429 
L 66.195996 134.881557 
L 66.773247 135.368508 
L 67.357907 135.843791 
L 67.949829 136.306904 
L 68.548852 136.757331 
L 69.154801 137.194544 
L 69.76749 137.618005 
L 70.386713 138.027168 
L 71.012251 138.421476 
L 71.643871 138.800369 
L 72.281321 139.163277 
L 72.924334 139.509627 
L 73.572628 139.838843 
L 74.225901 140.150345 
L 74.883837 140.443552 
L 75.546105 140.717884 
L 76.212354 140.97276 
L 76.882218 141.207599 
L 77.555317 141.421828 
L 78.231252 141.614871 
L 78.909609 141.786162 
L 79.58996 141.935138 
L 80.271858 142.061243 
L 80.954845 142.163928 
L 81.638444 142.242653 
L 82.322165 142.296887 
L 83.005503 142.326109 
L 83.687939 142.32981 
L 84.368938 142.307493 
L 85.047951 142.258673 
L 85.724427 142.183041 
L 86.397848 142.080925 
L 87.067716 141.952818 
L 87.733543 141.79923 
L 88.394851 141.620684 
L 89.051174 141.41772 
L 89.702058 141.190892 
L 90.34706 140.940764 
L 90.985748 140.667915 
L 91.617705 140.372936 
L 92.242525 140.056428 
L 92.859816 139.719003 
L 93.4692 139.361282 
L 94.070312 138.983898 
L 94.662804 138.587489 
L 95.24634 138.172702 
L 95.820602 137.740192 
L 96.385288 137.290619 
L 96.940111 136.824648 
L 97.484803 136.34295 
L 98.019113 135.846199 
L 98.542808 135.33507 
L 99.055673 134.810242 
L 99.557512 134.272393 
L 100.048149 133.7222 
L 100.527427 133.160338 
L 100.99521 132.58748 
L 101.451381 132.004293 
L 101.895844 131.411439 
L 102.328521 130.809572 
L 102.749358 130.199337 
L 103.158318 129.581371 
L 103.555384 128.956295 
L 103.94056 128.32472 
L 104.313868 127.68724 
L 104.675347 127.044434 
L 105.025055 126.396861 
L 105.363065 125.745063 
L 105.689466 125.08956 
L 106.004361 124.430848 
L 106.307865 123.769402 
L 106.600104 123.105671 
L 106.881214 122.440079 
L 107.151337 121.773023 
L 107.410621 121.104873 
L 107.659219 120.435971 
L 107.897284 119.766632 
L 108.124968 119.097141 
L 108.342419 118.427757 
L 108.549782 117.75871 
L 108.747194 117.090204 
L 108.93478 116.422415 
L 109.112655 115.755496 
L 109.28092 115.089574 
L 109.439659 114.424754 
L 109.588941 113.761121 
L 109.728811 113.098741 
L 109.859298 112.437662 
L 109.980407 111.777918 
L 110.09212 111.119531 
L 110.194395 110.462511 
L 110.287167 109.806862 
L 110.370344 109.152582 
L 110.443813 108.499668 
L 110.507435 107.848114 
L 110.561047 107.197917 
L 110.604462 106.549079 
L 110.637475 105.901609 
L 110.659855 105.255522 
L 110.671357 104.610846 
L 110.671713 103.96762 
L 110.660644 103.325897 
L 110.637853 102.685743 
L 110.603034 102.047244 
z
" clip-path="url(#p3ec69fa05b)" style="fill: #0175b9; opacity: 0.3; stroke: #0175b9; stroke-linejoin: miter"/>
   </g>
   <g id="patch_5">
    <path d="M 116.566161 102.047244 
L 116.51474 101.305791 
L 116.446506 100.566357 
L 116.361887 99.829173 
L 116.26131 99.094451 
L 116.145201 98.362387 
L 116.013978 97.63316 
L 115.868056 96.906932 
L 115.707841 96.183849 
L 115.533726 95.464044 
L 115.346097 94.747633 
L 115.145323 94.034718 
L 114.93176 93.325391 
L 114.705747 92.619731 
L 114.467607 91.917809 
L 114.217642 91.219686 
L 113.956138 90.525419 
L 113.683357 89.835057 
L 113.399542 89.148651 
L 113.104915 88.466247 
L 112.799675 87.787894 
L 112.484002 87.113645 
L 112.158051 86.443559 
L 111.82196 85.777699 
L 111.475844 85.11614 
L 111.119799 84.45897 
L 110.753904 83.806286 
L 110.378217 83.158202 
L 109.992784 82.51485 
L 109.597634 81.876378 
L 109.192783 81.242953 
L 108.778237 80.614765 
L 108.353991 79.992024 
L 107.920034 79.374962 
L 107.476347 78.763834 
L 107.02291 78.158919 
L 106.559698 77.56052 
L 106.086689 76.968962 
L 105.603861 76.384595 
L 105.111198 75.807791 
L 104.608687 75.238947 
L 104.096325 74.678479 
L 103.574117 74.126826 
L 103.042077 73.584448 
L 102.500233 73.051822 
L 101.948626 72.529446 
L 101.387311 72.017832 
L 100.816359 71.517511 
L 100.235855 71.029025 
L 99.645905 70.552931 
L 99.04663 70.089796 
L 98.438171 69.640198 
L 97.820686 69.204724 
L 97.194353 68.783966 
L 96.559371 68.378524 
L 95.915955 67.988999 
L 95.264343 67.615997 
L 94.60479 67.260124 
L 93.937571 66.921987 
L 93.262981 66.602189 
L 92.581331 66.301332 
L 91.892954 66.020014 
L 91.1982 65.758826 
L 90.497435 65.518352 
L 89.791044 65.299169 
L 89.079429 65.101845 
L 88.363007 64.926937 
L 87.642211 64.774989 
L 86.917491 64.646533 
L 86.18931 64.542089 
L 85.458145 64.46216 
L 84.724487 64.407219 
L 83.988854 64.377326 
L 83.251777 64.372045 
L 82.51377 64.390897 
L 81.775329 64.433391 
L 81.036936 64.499026 
L 80.29905 64.587289 
L 79.562116 64.697662 
L 78.826559 64.829619 
L 78.092784 64.982631 
L 77.361181 65.156163 
L 76.632117 65.34968 
L 75.905944 65.562645 
L 75.182993 65.794521 
L 74.463579 66.044777 
L 73.747996 66.312881 
L 73.036523 66.59831 
L 72.329421 66.900545 
L 71.626933 67.219077 
L 70.929286 67.553404 
L 70.236694 67.903037 
L 69.549353 68.267496 
L 68.867448 68.646316 
L 68.19115 69.039046 
L 67.520619 69.44525 
L 66.856005 69.864508 
L 66.197449 70.296417 
L 65.545084 70.740591 
L 64.899037 71.196664 
L 64.259432 71.664287 
L 63.626388 72.143131 
L 63.000024 72.632888 
L 62.38046 73.133266 
L 61.767817 73.643995 
L 61.162221 74.164823 
L 60.563803 74.695517 
L 59.972701 75.235861 
L 59.389061 75.785657 
L 58.813042 76.344724 
L 58.244812 76.912895 
L 57.684552 77.490019 
L 57.13246 78.075956 
L 56.588747 78.670578 
L 56.05364 79.273769 
L 55.527385 79.88542 
L 55.010245 80.505428 
L 54.502501 81.133698 
L 54.004452 81.770135 
L 53.516419 82.414651 
L 53.038738 83.067153 
L 52.571766 83.72755 
L 52.115879 84.395747 
L 51.671469 85.071644 
L 51.238948 85.755137 
L 50.818744 86.446111 
L 50.411301 87.144446 
L 50.017078 87.850009 
L 49.636549 88.562656 
L 49.2702 89.282232 
L 48.91853 90.008568 
L 48.582047 90.741481 
L 48.261272 91.480772 
L 47.95673 92.226228 
L 47.668955 92.97762 
L 47.398485 93.734701 
L 47.145863 94.497209 
L 46.911634 95.264862 
L 46.696344 96.037366 
L 46.500537 96.814404 
L 46.324757 97.595647 
L 46.169544 98.380746 
L 46.035432 99.169336 
L 45.92295 99.961037 
L 45.832619 100.755451 
L 45.76495 101.552165 
L 45.720435 102.350753 
L 45.699176 103.150767 
L 45.700746 103.951758 
L 45.724668 104.753294 
L 45.770461 105.554957 
L 45.837633 106.356348 
L 45.925691 107.157084 
L 46.034138 107.956801 
L 46.162473 108.755152 
L 46.310199 109.551805 
L 46.476816 110.346448 
L 46.66183 111.138785 
L 46.864752 111.928534 
L 47.085095 112.715432 
L 47.322383 113.49923 
L 47.576146 114.279694 
L 47.845927 115.056602 
L 48.131277 115.829748 
L 48.431761 116.598935 
L 48.746956 117.363979 
L 49.076456 118.124703 
L 49.419866 118.880941 
L 49.776811 119.632532 
L 50.146931 120.379323 
L 50.529881 121.121161 
L 50.925337 121.857899 
L 51.33299 122.58939 
L 51.75255 123.315485 
L 52.183744 124.036034 
L 52.626317 124.750882 
L 53.08003 125.459869 
L 53.544662 126.162828 
L 54.020006 126.859584 
L 54.505872 127.549949 
L 55.002082 128.233728 
L 55.508472 128.910708 
L 56.024892 129.580667 
L 56.551199 130.243365 
L 57.087261 130.898547 
L 57.632954 131.54594 
L 58.188161 132.185256 
L 58.752768 132.816188 
L 59.326666 133.438409 
L 59.909749 134.051575 
L 60.501907 134.655324 
L 61.103034 135.249273 
L 61.713017 135.833022 
L 62.331742 136.406154 
L 62.959087 136.968231 
L 63.594926 137.518801 
L 64.239122 138.057394 
L 64.89153 138.583523 
L 65.551995 139.096687 
L 66.220351 139.596372 
L 66.896417 140.082049 
L 67.580003 140.553177 
L 68.270902 141.009205 
L 68.968893 141.449571 
L 69.673742 141.873705 
L 70.385197 142.281028 
L 71.102993 142.670954 
L 71.826845 143.042894 
L 72.556455 143.396253 
L 73.291508 143.730433 
L 74.031671 144.044833 
L 74.776595 144.338853 
L 75.525914 144.611892 
L 76.279248 144.863351 
L 77.036197 145.092633 
L 77.796346 145.299143 
L 78.559265 145.482293 
L 79.324506 145.6415 
L 80.091606 145.776186 
L 80.860088 145.885781 
L 81.629457 145.969725 
L 82.399204 146.027466 
L 83.168804 146.058464 
L 83.937719 146.06219 
L 84.705395 146.038127 
L 85.471265 145.985802 
L 86.234777 145.905269 
L 86.995404 145.797032 
L 87.752631 145.66162 
L 88.505956 145.499582 
L 89.254888 145.311477 
L 89.998948 145.097881 
L 90.737673 144.859378 
L 91.47061 144.596567 
L 92.19732 144.310057 
L 92.917379 144.000467 
L 93.630378 143.668423 
L 94.335922 143.314561 
L 95.03363 142.939526 
L 95.723139 142.543967 
L 96.404101 142.12854 
L 97.076183 141.693905 
L 97.739071 141.240726 
L 98.392467 140.76967 
L 99.036091 140.281406 
L 99.669679 139.776602 
L 100.292987 139.255928 
L 100.905789 138.720052 
L 101.507874 138.169636 
L 102.099055 137.605341 
L 102.679158 137.027823 
L 103.248031 136.437729 
L 103.805538 135.8357 
L 104.35156 135.222367 
L 104.885999 134.59835 
L 105.408771 133.964257 
L 105.919808 133.320685 
L 106.419061 132.668212 
L 106.906492 132.007405 
L 107.38208 131.33881 
L 107.845814 130.662957 
L 108.297698 129.980355 
L 108.737744 129.291495 
L 109.165973 128.596846 
L 109.582414 127.896853 
L 109.987103 127.19194 
L 110.380078 126.48251 
L 110.761381 125.768938 
L 111.131054 125.051579 
L 111.489136 124.330764 
L 111.835667 123.606799 
L 112.170677 122.879969 
L 112.494192 122.150535 
L 112.806229 121.418738 
L 113.106794 120.684798 
L 113.395881 119.948913 
L 113.67347 119.211266 
L 113.939526 118.472022 
L 114.193996 117.73133 
L 114.436812 116.989327 
L 114.667885 116.246138 
L 114.887108 115.501877 
L 115.094352 114.756652 
L 115.28947 114.010564 
L 115.472292 113.263711 
L 115.642629 112.51619 
L 115.80027 111.768098 
L 115.944984 111.019533 
L 116.076523 110.270601 
L 116.194618 109.521411 
L 116.298981 108.772082 
L 116.389311 108.022741 
L 116.465291 107.273529 
L 116.526587 106.524596 
L 116.572857 105.776109 
L 116.603747 105.028248 
L 116.618893 104.28121 
L 116.617928 103.535207 
L 116.600476 102.79047 
L 116.566161 102.047244 
z
" clip-path="url(#p3ec69fa05b)" style="fill: #f4b183; opacity: 0.4; stroke: #f4b183; stroke-linejoin: miter"/>
   </g>
   <g id="line2d_8">
    <path d="M 102.30651 102.047244 
L 102.194002 99.486335 
L 101.860418 96.915716 
L 101.234742 93.880534 
L 100.354196 90.783887 
L 99.363556 88.089621 
L 98.113417 85.403276 
L 96.848722 83.225889 
L 95.370369 81.166953 
L 94.034792 79.650496 
L 92.570382 78.289798 
L 90.988992 77.121645 
L 89.307074 76.181842 
L 87.545213 75.504282 
L 86.185824 75.187081 
L 84.806516 75.046872 
L 83.419724 75.088901 
L 82.037932 75.304089 
L 80.222893 75.839294 
L 78.460608 76.629716 
L 76.770663 77.642615 
L 75.168264 78.844498 
L 73.304194 80.562263 
L 71.604293 82.462777 
L 70.07002 84.492891 
L 68.439944 87.041785 
L 67.028351 89.669599 
L 65.831072 92.354139 
L 64.863114 95.090615 
L 64.259245 97.410608 
L 63.875878 99.762134 
L 63.755558 101.657786 
L 63.821234 103.554452 
L 64.148708 105.908275 
L 64.708913 108.228739 
L 65.635893 110.960322 
L 66.797521 113.63351 
L 68.171435 116.246967 
L 69.756817 118.785459 
L 71.564784 121.209797 
L 73.249145 123.095703 
L 75.095094 124.805268 
L 76.682086 126.006048 
L 78.35662 127.023108 
L 80.104185 127.823119 
L 81.905804 128.373353 
L 83.738292 128.642725 
L 85.116748 128.64319 
L 86.484804 128.462846 
L 87.830248 128.10973 
L 89.569789 127.391293 
L 91.225817 126.419062 
L 92.778638 125.227273 
L 94.212857 123.851888 
L 95.517832 122.329587 
L 96.959371 120.275087 
L 98.191276 118.113511 
L 99.41046 115.457161 
L 100.381195 112.798743 
L 101.251275 109.741863 
L 101.873972 106.735659 
L 102.203722 104.178219 
L 102.30651 102.047244 
L 102.30651 102.047244 
" clip-path="url(#p3ec69fa05b)" style="fill: none; stroke: #42bca2; stroke-width: 0.5; stroke-linecap: round"/>
   </g>
   <g id="line2d_9">
    <path d="M 110.603034 102.047244 
L 110.344534 99.51153 
L 109.778565 96.386376 
L 108.97683 93.309934 
L 107.96287 90.277296 
L 106.744915 87.285704 
L 105.317644 84.341615 
L 103.667129 81.466144 
L 101.777517 78.697468 
L 100.085831 76.59546 
L 98.232251 74.630185 
L 96.22025 72.839156 
L 94.058676 71.261875 
L 92.34768 70.243226 
L 90.568278 69.383829 
L 88.729789 68.699628 
L 86.842867 68.205703 
L 84.919358 67.916019 
L 82.972333 67.838502 
L 81.015529 67.964129 
L 79.061528 68.279657 
L 77.121426 68.771213 
L 74.572587 69.67595 
L 72.083868 70.83512 
L 69.669327 72.216934 
L 67.339145 73.792478 
L 65.100655 75.536831 
L 62.440433 77.924418 
L 59.945047 80.516096 
L 57.632353 83.293927 
L 55.931706 85.642795 
L 54.384471 88.099465 
L 53.014565 90.658814 
L 51.849945 93.313432 
L 50.921509 96.052494 
L 50.261729 98.861075 
L 49.962816 101.001705 
L 49.846069 103.160989 
L 49.911689 105.328289 
L 50.262366 108.213437 
L 50.886578 111.075417 
L 51.755265 113.898644 
L 52.841471 116.671242 
L 54.12157 119.384071 
L 55.576089 122.029384 
L 57.61705 125.228832 
L 59.886987 128.290334 
L 61.858824 130.621448 
L 63.963623 132.826654 
L 66.195996 134.881557 
L 68.548852 136.757331 
L 71.012251 138.421476 
L 73.572628 139.838843 
L 75.546105 140.717884 
L 77.555317 141.421828 
L 79.58996 141.935138 
L 81.638444 142.242653 
L 83.687939 142.32981 
L 85.724427 142.183041 
L 87.733543 141.79923 
L 89.702058 141.190892 
L 91.617705 140.372936 
L 93.4692 139.361282 
L 95.24634 138.172702 
L 96.940111 136.824648 
L 99.055673 134.810242 
L 100.99521 132.58748 
L 102.749358 130.199337 
L 104.313868 127.68724 
L 105.689466 125.08956 
L 106.881214 122.440079 
L 108.124968 119.097141 
L 109.112655 115.755496 
L 109.859298 112.437662 
L 110.370344 109.152582 
L 110.637475 105.901609 
L 110.637853 102.685743 
L 110.603034 102.047244 
L 110.603034 102.047244 
" clip-path="url(#p3ec69fa05b)" style="fill: none; stroke: #0175b9; stroke-width: 0.5; stroke-linecap: round"/>
   </g>
   <g id="line2d_10">
    <path d="M 116.566161 102.047244 
L 116.26131 99.094451 
L 115.707841 96.183849 
L 114.93176 93.325391 
L 113.956138 90.525419 
L 112.799675 87.787894 
L 111.119799 84.45897 
L 109.192783 81.242953 
L 107.476347 78.763834 
L 105.603861 76.384595 
L 103.574117 74.126826 
L 101.387311 72.017832 
L 99.04663 70.089796 
L 96.559371 68.378524 
L 94.60479 67.260124 
L 92.581331 66.301332 
L 90.497435 65.518352 
L 88.363007 64.926937 
L 86.18931 64.542089 
L 83.988854 64.377326 
L 81.775329 64.433391 
L 79.562116 64.697662 
L 77.361181 65.156163 
L 75.182993 65.794521 
L 72.329421 66.900545 
L 69.549353 68.267496 
L 66.856005 69.864508 
L 64.259432 71.664287 
L 61.767817 73.643995 
L 59.389061 75.785657 
L 57.13246 78.075956 
L 55.010245 80.505428 
L 53.038738 83.067153 
L 51.238948 85.755137 
L 49.636549 88.562656 
L 48.261272 91.480772 
L 47.145863 94.497209 
L 46.500537 96.814404 
L 46.035432 99.169336 
L 45.76495 101.552165 
L 45.700746 103.951758 
L 45.837633 106.356348 
L 46.162473 108.755152 
L 46.66183 111.138785 
L 47.576146 114.279694 
L 48.746956 117.363979 
L 50.146931 120.379323 
L 51.75255 123.315485 
L 53.544662 126.162828 
L 55.508472 128.910708 
L 57.632954 131.54594 
L 59.909749 134.051575 
L 62.331742 136.406154 
L 64.89153 138.583523 
L 67.580003 140.553177 
L 70.385197 142.281028 
L 72.556455 143.396253 
L 74.776595 144.338853 
L 77.036197 145.092633 
L 79.324506 145.6415 
L 81.629457 145.969725 
L 83.937719 146.06219 
L 86.234777 145.905269 
L 88.505956 145.499582 
L 90.737673 144.859378 
L 92.917379 144.000467 
L 95.03363 142.939526 
L 97.076183 141.693905 
L 99.036091 140.281406 
L 100.905789 138.720052 
L 103.248031 136.437729 
L 105.408771 133.964257 
L 107.38208 131.33881 
L 109.165973 128.596846 
L 110.761381 125.768938 
L 112.170677 122.879969 
L 113.395881 119.948913 
L 114.436812 116.989327 
L 115.28947 114.010564 
L 115.944984 111.019533 
L 116.389311 108.022741 
L 116.603747 105.028248 
L 116.566161 102.047244 
L 116.566161 102.047244 
" clip-path="url(#p3ec69fa05b)" style="fill: none; stroke: #f4b183; stroke-width: 0.5; stroke-linecap: round"/>
   </g>
   <g id="line2d_11">
    <path d="M 102.30651 102.047244 
" clip-path="url(#p3ec69fa05b)" style="fill: none; stroke: #42bca2; stroke-width: 1.5; stroke-linecap: round"/>
    <defs>
     <path id="m67d8ba3550" d="M 0 1 
C 0.265203 1 0.51958 0.894634 0.707107 0.707107 
C 0.894634 0.51958 1 0.265203 1 0 
C 1 -0.265203 0.894634 -0.51958 0.707107 -0.707107 
C 0.51958 -0.894634 0.265203 -1 0 -1 
C -0.265203 -1 -0.51958 -0.894634 -0.707107 -0.707107 
C -0.894634 -0.51958 -1 -0.265203 -1 0 
C -1 0.265203 -0.894634 0.51958 -0.707107 0.707107 
C -0.51958 0.894634 -0.265203 1 0 1 
z
" style="stroke: #42bca2"/>
    </defs>
    <g clip-path="url(#p3ec69fa05b)">
     <use xlink:href="#m67d8ba3550" x="102.30651" y="102.047244" style="fill: #42bca2; stroke: #42bca2"/>
    </g>
   </g>
   <g id="line2d_12">
    <path d="M 110.603034 102.047244 
" clip-path="url(#p3ec69fa05b)" style="fill: none; stroke: #0175b9; stroke-width: 1.5; stroke-linecap: round"/>
    <defs>
     <path id="m1e1e31bd63" d="M 0 1 
C 0.265203 1 0.51958 0.894634 0.707107 0.707107 
C 0.894634 0.51958 1 0.265203 1 0 
C 1 -0.265203 0.894634 -0.51958 0.707107 -0.707107 
C 0.51958 -0.894634 0.265203 -1 0 -1 
C -0.265203 -1 -0.51958 -0.894634 -0.707107 -0.707107 
C -0.894634 -0.51958 -1 -0.265203 -1 0 
C -1 0.265203 -0.894634 0.51958 -0.707107 0.707107 
C -0.51958 0.894634 -0.265203 1 0 1 
z
" style="stroke: #0175b9"/>
    </defs>
    <g clip-path="url(#p3ec69fa05b)">
     <use xlink:href="#m1e1e31bd63" x="110.603034" y="102.047244" style="fill: #0175b9; stroke: #0175b9"/>
    </g>
   </g>
   <g id="line2d_13">
    <path d="M 116.566161 102.047244 
" clip-path="url(#p3ec69fa05b)" style="fill: none; stroke: #f4b183; stroke-width: 1.5; stroke-linecap: round"/>
    <defs>
     <path id="md7fe12e9e7" d="M 0 1 
C 0.265203 1 0.51958 0.894634 0.707107 0.707107 
C 0.894634 0.51958 1 0.265203 1 0 
C 1 -0.265203 0.894634 -0.51958 0.707107 -0.707107 
C 0.51958 -0.894634 0.265203 -1 0 -1 
C -0.265203 -1 -0.51958 -0.894634 -0.707107 -0.707107 
C -0.894634 -0.51958 -1 -0.265203 -1 0 
C -1 0.265203 -0.894634 0.51958 -0.707107 0.707107 
C -0.51958 0.894634 -0.265203 1 0 1 
z
" style="stroke: #f4b183"/>
    </defs>
    <g clip-path="url(#p3ec69fa05b)">
     <use xlink:href="#md7fe12e9e7" x="116.566161" y="102.047244" style="fill: #f4b183; stroke: #f4b183"/>
    </g>
   </g>
   <g id="line2d_14">
    <path d="M 85.03937 75.057615 
" clip-path="url(#p3ec69fa05b)" style="fill: none; stroke: #42bca2; stroke-width: 1.5; stroke-linecap: round"/>
    <g clip-path="url(#p3ec69fa05b)">
     <use xlink:href="#m67d8ba3550" x="85.03937" y="75.057615" style="fill: #42bca2; stroke: #42bca2"/>
    </g>
   </g>
   <g id="line2d_15">
    <path d="M 85.03937 67.92779 
" clip-path="url(#p3ec69fa05b)" style="fill: none; stroke: #0175b9; stroke-width: 1.5; stroke-linecap: round"/>
    <g clip-path="url(#p3ec69fa05b)">
     <use xlink:href="#m1e1e31bd63" x="85.03937" y="67.92779" style="fill: #0175b9; stroke: #0175b9"/>
    </g>
   </g>
   <g id="line2d_16">
    <path d="M 85.03937 64.427693 
" clip-path="url(#p3ec69fa05b)" style="fill: none; stroke: #f4b183; stroke-width: 1.5; stroke-linecap: round"/>
    <g clip-path="url(#p3ec69fa05b)">
     <use xlink:href="#md7fe12e9e7" x="85.03937" y="64.427693" style="fill: #f4b183; stroke: #f4b183"/>
    </g>
   </g>
   <g id="line2d_17">
    <path d="M 63.753601 102.047244 
" clip-path="url(#p3ec69fa05b)" style="fill: none; stroke: #42bca2; stroke-width: 1.5; stroke-linecap: round"/>
    <g clip-path="url(#p3ec69fa05b)">
     <use xlink:href="#m67d8ba3550" x="63.753601" y="102.047244" style="fill: #42bca2; stroke: #42bca2"/>
    </g>
   </g>
   <g id="line2d_18">
    <path d="M 49.88285 102.047244 
" clip-path="url(#p3ec69fa05b)" style="fill: none; stroke: #0175b9; stroke-width: 1.5; stroke-linecap: round"/>
    <g clip-path="url(#p3ec69fa05b)">
     <use xlink:href="#m1e1e31bd63" x="49.88285" y="102.047244" style="fill: #0175b9; stroke: #0175b9"/>
    </g>
   </g>
   <g id="line2d_19">
    <path d="M 45.734588 102.047244 
" clip-path="url(#p3ec69fa05b)" style="fill: none; stroke: #f4b183; stroke-width: 1.5; stroke-linecap: round"/>
    <g clip-path="url(#p3ec69fa05b)">
     <use xlink:href="#md7fe12e9e7" x="45.734588" y="102.047244" style="fill: #f4b183; stroke: #f4b183"/>
    </g>
   </g>
   <g id="line2d_20">
    <path d="M 85.03937 128.647974 
" clip-path="url(#p3ec69fa05b)" style="fill: none; stroke: #42bca2; stroke-width: 1.5; stroke-linecap: round"/>
    <g clip-path="url(#p3ec69fa05b)">
     <use xlink:href="#m67d8ba3550" x="85.03937" y="128.647974" style="fill: #42bca2; stroke: #42bca2"/>
    </g>
   </g>
   <g id="line2d_21">
    <path d="M 85.03937 142.259458 
" clip-path="url(#p3ec69fa05b)" style="fill: none; stroke: #0175b9; stroke-width: 1.5; stroke-linecap: round"/>
    <g clip-path="url(#p3ec69fa05b)">
     <use xlink:href="#m1e1e31bd63" x="85.03937" y="142.259458" style="fill: #0175b9; stroke: #0175b9"/>
    </g>
   </g>
   <g id="line2d_22">
    <path d="M 85.03937 146.018821 
" clip-path="url(#p3ec69fa05b)" style="fill: none; stroke: #f4b183; stroke-width: 1.5; stroke-linecap: round"/>
    <g clip-path="url(#p3ec69fa05b)">
     <use xlink:href="#md7fe12e9e7" x="85.03937" y="146.018821" style="fill: #f4b183; stroke: #f4b183"/>
    </g>
   </g>
   <g id="text_4">
    <!-- gpt-4o -->
    <g style="fill: #262626" transform="translate(138.895851 100.113932) scale(0.07 -0.07)">
     <defs>
      <path id="ArialMT-67" d="M 319 -275 
L 866 -356 
Q 900 -609 1056 -725 
Q 1266 -881 1628 -881 
Q 2019 -881 2231 -725 
Q 2444 -569 2519 -288 
Q 2563 -116 2559 434 
Q 2191 0 1641 0 
Q 956 0 581 494 
Q 206 988 206 1678 
Q 206 2153 378 2554 
Q 550 2956 876 3175 
Q 1203 3394 1644 3394 
Q 2231 3394 2613 2919 
L 2613 3319 
L 3131 3319 
L 3131 450 
Q 3131 -325 2973 -648 
Q 2816 -972 2473 -1159 
Q 2131 -1347 1631 -1347 
Q 1038 -1347 672 -1080 
Q 306 -813 319 -275 
z
M 784 1719 
Q 784 1066 1043 766 
Q 1303 466 1694 466 
Q 2081 466 2343 764 
Q 2606 1063 2606 1700 
Q 2606 2309 2336 2618 
Q 2066 2928 1684 2928 
Q 1309 2928 1046 2623 
Q 784 2319 784 1719 
z
" transform="scale(0.015625)"/>
      <path id="ArialMT-70" d="M 422 -1272 
L 422 3319 
L 934 3319 
L 934 2888 
Q 1116 3141 1344 3267 
Q 1572 3394 1897 3394 
Q 2322 3394 2647 3175 
Q 2972 2956 3137 2557 
Q 3303 2159 3303 1684 
Q 3303 1175 3120 767 
Q 2938 359 2589 142 
Q 2241 -75 1856 -75 
Q 1575 -75 1351 44 
Q 1128 163 984 344 
L 984 -1272 
L 422 -1272 
z
M 931 1641 
Q 931 1000 1190 694 
Q 1450 388 1819 388 
Q 2194 388 2461 705 
Q 2728 1022 2728 1688 
Q 2728 2322 2467 2637 
Q 2206 2953 1844 2953 
Q 1484 2953 1207 2617 
Q 931 2281 931 1641 
z
" transform="scale(0.015625)"/>
      <path id="ArialMT-74" d="M 1650 503 
L 1731 6 
Q 1494 -44 1306 -44 
Q 1000 -44 831 53 
Q 663 150 594 308 
Q 525 466 525 972 
L 525 2881 
L 113 2881 
L 113 3319 
L 525 3319 
L 525 4141 
L 1084 4478 
L 1084 3319 
L 1650 3319 
L 1650 2881 
L 1084 2881 
L 1084 941 
Q 1084 700 1114 631 
Q 1144 563 1211 522 
Q 1278 481 1403 481 
Q 1497 481 1650 503 
z
" transform="scale(0.015625)"/>
      <path id="ArialMT-2d" d="M 203 1375 
L 203 1941 
L 1931 1941 
L 1931 1375 
L 203 1375 
z
" transform="scale(0.015625)"/>
      <path id="ArialMT-34" d="M 2069 0 
L 2069 1097 
L 81 1097 
L 81 1613 
L 2172 4581 
L 2631 4581 
L 2631 1613 
L 3250 1613 
L 3250 1097 
L 2631 1097 
L 2631 0 
L 2069 0 
z
M 2069 1613 
L 2069 3678 
L 634 1613 
L 2069 1613 
z
" transform="scale(0.015625)"/>
      <path id="ArialMT-6f" d="M 213 1659 
Q 213 2581 725 3025 
Q 1153 3394 1769 3394 
Q 2453 3394 2887 2945 
Q 3322 2497 3322 1706 
Q 3322 1066 3130 698 
Q 2938 331 2570 128 
Q 2203 -75 1769 -75 
Q 1072 -75 642 372 
Q 213 819 213 1659 
z
M 791 1659 
Q 791 1022 1069 705 
Q 1347 388 1769 388 
Q 2188 388 2466 706 
Q 2744 1025 2744 1678 
Q 2744 2294 2464 2611 
Q 2184 2928 1769 2928 
Q 1347 2928 1069 2612 
Q 791 2297 791 1659 
z
" transform="scale(0.015625)"/>
     </defs>
     <use xlink:href="#ArialMT-67"/>
     <use xlink:href="#ArialMT-70" x="55.615234"/>
     <use xlink:href="#ArialMT-74" x="111.230469"/>
     <use xlink:href="#ArialMT-2d" x="139.013672"/>
     <use xlink:href="#ArialMT-34" x="172.314453"/>
     <use xlink:href="#ArialMT-6f" x="227.929688"/>
    </g>
    <!-- mini -->
    <g style="fill: #262626" transform="translate(142.401866 107.599775) scale(0.07 -0.07)">
     <defs>
      <path id="ArialMT-6d" d="M 422 0 
L 422 3319 
L 925 3319 
L 925 2853 
Q 1081 3097 1340 3245 
Q 1600 3394 1931 3394 
Q 2300 3394 2536 3241 
Q 2772 3088 2869 2813 
Q 3263 3394 3894 3394 
Q 4388 3394 4653 3120 
Q 4919 2847 4919 2278 
L 4919 0 
L 4359 0 
L 4359 2091 
Q 4359 2428 4304 2576 
Q 4250 2725 4106 2815 
Q 3963 2906 3769 2906 
Q 3419 2906 3187 2673 
Q 2956 2441 2956 1928 
L 2956 0 
L 2394 0 
L 2394 2156 
Q 2394 2531 2256 2718 
Q 2119 2906 1806 2906 
Q 1569 2906 1367 2781 
Q 1166 2656 1075 2415 
Q 984 2175 984 1722 
L 984 0 
L 422 0 
z
" transform="scale(0.015625)"/>
      <path id="ArialMT-69" d="M 425 3934 
L 425 4581 
L 988 4581 
L 988 3934 
L 425 3934 
z
M 425 0 
L 425 3319 
L 988 3319 
L 988 0 
L 425 0 
z
" transform="scale(0.015625)"/>
      <path id="ArialMT-6e" d="M 422 0 
L 422 3319 
L 928 3319 
L 928 2847 
Q 1294 3394 1984 3394 
Q 2284 3394 2536 3286 
Q 2788 3178 2913 3003 
Q 3038 2828 3088 2588 
Q 3119 2431 3119 2041 
L 3119 0 
L 2556 0 
L 2556 2019 
Q 2556 2363 2490 2533 
Q 2425 2703 2258 2804 
Q 2091 2906 1866 2906 
Q 1506 2906 1245 2678 
Q 984 2450 984 1813 
L 984 0 
L 422 0 
z
" transform="scale(0.015625)"/>
     </defs>
     <use xlink:href="#ArialMT-6d"/>
     <use xlink:href="#ArialMT-69" x="83.300781"/>
     <use xlink:href="#ArialMT-6e" x="105.517578"/>
     <use xlink:href="#ArialMT-69" x="161.132812"/>
    </g>
   </g>
   <g id="text_5">
    <!-- gpt-4o -->
    <g style="fill: #262626" transform="translate(75.116323 44.288279) scale(0.07 -0.07)">
     <use xlink:href="#ArialMT-67"/>
     <use xlink:href="#ArialMT-70" x="55.615234"/>
     <use xlink:href="#ArialMT-74" x="111.230469"/>
     <use xlink:href="#ArialMT-2d" x="139.013672"/>
     <use xlink:href="#ArialMT-34" x="172.314453"/>
     <use xlink:href="#ArialMT-6f" x="227.929688"/>
    </g>
   </g>
   <g id="text_6">
    <!-- deepseek -->
    <g style="fill: #262626" transform="translate(1.829905 100.154947) scale(0.07 -0.07)">
     <defs>
      <path id="ArialMT-64" d="M 2575 0 
L 2575 419 
Q 2259 -75 1647 -75 
Q 1250 -75 917 144 
Q 584 363 401 755 
Q 219 1147 219 1656 
Q 219 2153 384 2558 
Q 550 2963 881 3178 
Q 1213 3394 1622 3394 
Q 1922 3394 2156 3267 
Q 2391 3141 2538 2938 
L 2538 4581 
L 3097 4581 
L 3097 0 
L 2575 0 
z
M 797 1656 
Q 797 1019 1065 703 
Q 1334 388 1700 388 
Q 2069 388 2326 689 
Q 2584 991 2584 1609 
Q 2584 2291 2321 2609 
Q 2059 2928 1675 2928 
Q 1300 2928 1048 2622 
Q 797 2316 797 1656 
z
" transform="scale(0.015625)"/>
      <path id="ArialMT-65" d="M 2694 1069 
L 3275 997 
Q 3138 488 2766 206 
Q 2394 -75 1816 -75 
Q 1088 -75 661 373 
Q 234 822 234 1631 
Q 234 2469 665 2931 
Q 1097 3394 1784 3394 
Q 2450 3394 2872 2941 
Q 3294 2488 3294 1666 
Q 3294 1616 3291 1516 
L 816 1516 
Q 847 969 1125 678 
Q 1403 388 1819 388 
Q 2128 388 2347 550 
Q 2566 713 2694 1069 
z
M 847 1978 
L 2700 1978 
Q 2663 2397 2488 2606 
Q 2219 2931 1791 2931 
Q 1403 2931 1139 2672 
Q 875 2413 847 1978 
z
" transform="scale(0.015625)"/>
      <path id="ArialMT-73" d="M 197 991 
L 753 1078 
Q 800 744 1014 566 
Q 1228 388 1613 388 
Q 2000 388 2187 545 
Q 2375 703 2375 916 
Q 2375 1106 2209 1216 
Q 2094 1291 1634 1406 
Q 1016 1563 777 1677 
Q 538 1791 414 1992 
Q 291 2194 291 2438 
Q 291 2659 392 2848 
Q 494 3038 669 3163 
Q 800 3259 1026 3326 
Q 1253 3394 1513 3394 
Q 1903 3394 2198 3281 
Q 2494 3169 2634 2976 
Q 2775 2784 2828 2463 
L 2278 2388 
Q 2241 2644 2061 2787 
Q 1881 2931 1553 2931 
Q 1166 2931 1000 2803 
Q 834 2675 834 2503 
Q 834 2394 903 2306 
Q 972 2216 1119 2156 
Q 1203 2125 1616 2013 
Q 2213 1853 2448 1751 
Q 2684 1650 2818 1456 
Q 2953 1263 2953 975 
Q 2953 694 2789 445 
Q 2625 197 2315 61 
Q 2006 -75 1616 -75 
Q 969 -75 630 194 
Q 291 463 197 991 
z
" transform="scale(0.015625)"/>
      <path id="ArialMT-6b" d="M 425 0 
L 425 4581 
L 988 4581 
L 988 1969 
L 2319 3319 
L 3047 3319 
L 1778 2088 
L 3175 0 
L 2481 0 
L 1384 1697 
L 988 1316 
L 988 0 
L 425 0 
z
" transform="scale(0.015625)"/>
     </defs>
     <use xlink:href="#ArialMT-64"/>
     <use xlink:href="#ArialMT-65" x="55.615234"/>
     <use xlink:href="#ArialMT-65" x="111.230469"/>
     <use xlink:href="#ArialMT-70" x="166.845703"/>
     <use xlink:href="#ArialMT-73" x="222.460938"/>
     <use xlink:href="#ArialMT-65" x="272.460938"/>
     <use xlink:href="#ArialMT-65" x="328.076172"/>
     <use xlink:href="#ArialMT-6b" x="383.691406"/>
    </g>
    <!-- chat -->
    <g style="fill: #262626" transform="translate(10.392874 107.55876) scale(0.07 -0.07)">
     <defs>
      <path id="ArialMT-63" d="M 2588 1216 
L 3141 1144 
Q 3050 572 2676 248 
Q 2303 -75 1759 -75 
Q 1078 -75 664 370 
Q 250 816 250 1647 
Q 250 2184 428 2587 
Q 606 2991 970 3192 
Q 1334 3394 1763 3394 
Q 2303 3394 2647 3120 
Q 2991 2847 3088 2344 
L 2541 2259 
Q 2463 2594 2264 2762 
Q 2066 2931 1784 2931 
Q 1359 2931 1093 2626 
Q 828 2322 828 1663 
Q 828 994 1084 691 
Q 1341 388 1753 388 
Q 2084 388 2306 591 
Q 2528 794 2588 1216 
z
" transform="scale(0.015625)"/>
      <path id="ArialMT-68" d="M 422 0 
L 422 4581 
L 984 4581 
L 984 2938 
Q 1378 3394 1978 3394 
Q 2347 3394 2619 3248 
Q 2891 3103 3008 2847 
Q 3125 2591 3125 2103 
L 3125 0 
L 2563 0 
L 2563 2103 
Q 2563 2525 2380 2717 
Q 2197 2909 1863 2909 
Q 1613 2909 1392 2779 
Q 1172 2650 1078 2428 
Q 984 2206 984 1816 
L 984 0 
L 422 0 
z
" transform="scale(0.015625)"/>
      <path id="ArialMT-61" d="M 2588 409 
Q 2275 144 1986 34 
Q 1697 -75 1366 -75 
Q 819 -75 525 192 
Q 231 459 231 875 
Q 231 1119 342 1320 
Q 453 1522 633 1644 
Q 813 1766 1038 1828 
Q 1203 1872 1538 1913 
Q 2219 1994 2541 2106 
Q 2544 2222 2544 2253 
Q 2544 2597 2384 2738 
Q 2169 2928 1744 2928 
Q 1347 2928 1158 2789 
Q 969 2650 878 2297 
L 328 2372 
Q 403 2725 575 2942 
Q 747 3159 1072 3276 
Q 1397 3394 1825 3394 
Q 2250 3394 2515 3294 
Q 2781 3194 2906 3042 
Q 3031 2891 3081 2659 
Q 3109 2516 3109 2141 
L 3109 1391 
Q 3109 606 3145 398 
Q 3181 191 3288 0 
L 2700 0 
Q 2613 175 2588 409 
z
M 2541 1666 
Q 2234 1541 1622 1453 
Q 1275 1403 1131 1340 
Q 988 1278 909 1158 
Q 831 1038 831 891 
Q 831 666 1001 516 
Q 1172 366 1500 366 
Q 1825 366 2078 508 
Q 2331 650 2450 897 
Q 2541 1088 2541 1459 
L 2541 1666 
z
" transform="scale(0.015625)"/>
     </defs>
     <use xlink:href="#ArialMT-63"/>
     <use xlink:href="#ArialMT-68" x="50"/>
     <use xlink:href="#ArialMT-61" x="105.615234"/>
     <use xlink:href="#ArialMT-74" x="161.230469"/>
    </g>
   </g>
   <g id="text_7">
    <!-- claude-3.7 -->
    <g style="fill: #262626" transform="translate(68.696011 163.384413) scale(0.07 -0.07)">
     <defs>
      <path id="ArialMT-6c" d="M 409 0 
L 409 4581 
L 972 4581 
L 972 0 
L 409 0 
z
" transform="scale(0.015625)"/>
      <path id="ArialMT-75" d="M 2597 0 
L 2597 488 
Q 2209 -75 1544 -75 
Q 1250 -75 995 37 
Q 741 150 617 320 
Q 494 491 444 738 
Q 409 903 409 1263 
L 409 3319 
L 972 3319 
L 972 1478 
Q 972 1038 1006 884 
Q 1059 663 1231 536 
Q 1403 409 1656 409 
Q 1909 409 2131 539 
Q 2353 669 2445 892 
Q 2538 1116 2538 1541 
L 2538 3319 
L 3100 3319 
L 3100 0 
L 2597 0 
z
" transform="scale(0.015625)"/>
      <path id="ArialMT-33" d="M 269 1209 
L 831 1284 
Q 928 806 1161 595 
Q 1394 384 1728 384 
Q 2125 384 2398 659 
Q 2672 934 2672 1341 
Q 2672 1728 2419 1979 
Q 2166 2231 1775 2231 
Q 1616 2231 1378 2169 
L 1441 2663 
Q 1497 2656 1531 2656 
Q 1891 2656 2178 2843 
Q 2466 3031 2466 3422 
Q 2466 3731 2256 3934 
Q 2047 4138 1716 4138 
Q 1388 4138 1169 3931 
Q 950 3725 888 3313 
L 325 3413 
Q 428 3978 793 4289 
Q 1159 4600 1703 4600 
Q 2078 4600 2393 4439 
Q 2709 4278 2876 4000 
Q 3044 3722 3044 3409 
Q 3044 3113 2884 2869 
Q 2725 2625 2413 2481 
Q 2819 2388 3044 2092 
Q 3269 1797 3269 1353 
Q 3269 753 2831 336 
Q 2394 -81 1725 -81 
Q 1122 -81 723 278 
Q 325 638 269 1209 
z
" transform="scale(0.015625)"/>
      <path id="ArialMT-2e" d="M 581 0 
L 581 641 
L 1222 641 
L 1222 0 
L 581 0 
z
" transform="scale(0.015625)"/>
      <path id="ArialMT-37" d="M 303 3981 
L 303 4522 
L 3269 4522 
L 3269 4084 
Q 2831 3619 2401 2847 
Q 1972 2075 1738 1259 
Q 1569 684 1522 0 
L 944 0 
Q 953 541 1156 1306 
Q 1359 2072 1739 2783 
Q 2119 3494 2547 3981 
L 303 3981 
z
" transform="scale(0.015625)"/>
     </defs>
     <use xlink:href="#ArialMT-63"/>
     <use xlink:href="#ArialMT-6c" x="50"/>
     <use xlink:href="#ArialMT-61" x="72.216797"/>
     <use xlink:href="#ArialMT-75" x="127.832031"/>
     <use xlink:href="#ArialMT-64" x="183.447266"/>
     <use xlink:href="#ArialMT-65" x="239.0625"/>
     <use xlink:href="#ArialMT-2d" x="294.677734"/>
     <use xlink:href="#ArialMT-33" x="327.978516"/>
     <use xlink:href="#ArialMT-2e" x="383.59375"/>
     <use xlink:href="#ArialMT-37" x="411.376953"/>
    </g>
   </g>
  </g>
  <g id="legend_1">
   <g id="patch_6">
    <path d="M 9.489526 22.074812 
L 21.489526 22.074812 
L 21.489526 17.874812 
L 9.489526 17.874812 
z
" style="fill: #42bca2; stroke: #ffffff; stroke-linejoin: miter"/>
   </g>
   <g id="text_8">
    <!-- General -->
    <g style="fill: #262626" transform="translate(26.289526 18.3055) scale(0.06 -0.06)">
     <defs>
      <path id="ArialMT-47" d="M 2638 1797 
L 2638 2334 
L 4578 2338 
L 4578 638 
Q 4131 281 3656 101 
Q 3181 -78 2681 -78 
Q 2006 -78 1454 211 
Q 903 500 622 1047 
Q 341 1594 341 2269 
Q 341 2938 620 3517 
Q 900 4097 1425 4378 
Q 1950 4659 2634 4659 
Q 3131 4659 3532 4498 
Q 3934 4338 4162 4050 
Q 4391 3763 4509 3300 
L 3963 3150 
Q 3859 3500 3706 3700 
Q 3553 3900 3268 4020 
Q 2984 4141 2638 4141 
Q 2222 4141 1919 4014 
Q 1616 3888 1430 3681 
Q 1244 3475 1141 3228 
Q 966 2803 966 2306 
Q 966 1694 1177 1281 
Q 1388 869 1791 669 
Q 2194 469 2647 469 
Q 3041 469 3416 620 
Q 3791 772 3984 944 
L 3984 1797 
L 2638 1797 
z
" transform="scale(0.015625)"/>
      <path id="ArialMT-72" d="M 416 0 
L 416 3319 
L 922 3319 
L 922 2816 
Q 1116 3169 1280 3281 
Q 1444 3394 1641 3394 
Q 1925 3394 2219 3213 
L 2025 2691 
Q 1819 2813 1613 2813 
Q 1428 2813 1281 2702 
Q 1134 2591 1072 2394 
Q 978 2094 978 1738 
L 978 0 
L 416 0 
z
" transform="scale(0.015625)"/>
     </defs>
     <use xlink:href="#ArialMT-47"/>
     <use xlink:href="#ArialMT-65" x="77.783203"/>
     <use xlink:href="#ArialMT-6e" x="133.398438"/>
     <use xlink:href="#ArialMT-65" x="189.013672"/>
     <use xlink:href="#ArialMT-72" x="244.628906"/>
     <use xlink:href="#ArialMT-61" x="277.929688"/>
     <use xlink:href="#ArialMT-6c" x="333.544922"/>
    </g>
    <!-- Purpose -->
    <g style="fill: #262626" transform="translate(26.289526 24.651625) scale(0.06 -0.06)">
     <defs>
      <path id="ArialMT-50" d="M 494 0 
L 494 4581 
L 2222 4581 
Q 2678 4581 2919 4538 
Q 3256 4481 3484 4323 
Q 3713 4166 3852 3881 
Q 3991 3597 3991 3256 
Q 3991 2672 3619 2267 
Q 3247 1863 2275 1863 
L 1100 1863 
L 1100 0 
L 494 0 
z
M 1100 2403 
L 2284 2403 
Q 2872 2403 3119 2622 
Q 3366 2841 3366 3238 
Q 3366 3525 3220 3729 
Q 3075 3934 2838 4000 
Q 2684 4041 2272 4041 
L 1100 4041 
L 1100 2403 
z
" transform="scale(0.015625)"/>
     </defs>
     <use xlink:href="#ArialMT-50"/>
     <use xlink:href="#ArialMT-75" x="66.699219"/>
     <use xlink:href="#ArialMT-72" x="122.314453"/>
     <use xlink:href="#ArialMT-70" x="155.615234"/>
     <use xlink:href="#ArialMT-6f" x="211.230469"/>
     <use xlink:href="#ArialMT-73" x="266.845703"/>
     <use xlink:href="#ArialMT-65" x="316.845703"/>
    </g>
   </g>
   <g id="patch_7">
    <path d="M 60.635776 22.074812 
L 72.635776 22.074812 
L 72.635776 17.874812 
L 60.635776 17.874812 
z
" style="fill: #0175b9; stroke: #ffffff; stroke-linejoin: miter"/>
   </g>
   <g id="text_9">
    <!-- ReCellTy -->
    <g style="fill: #262626" transform="translate(77.435776 22.074812) scale(0.06 -0.06)">
     <defs>
      <path id="ArialMT-52" d="M 503 0 
L 503 4581 
L 2534 4581 
Q 3147 4581 3465 4457 
Q 3784 4334 3975 4021 
Q 4166 3709 4166 3331 
Q 4166 2844 3850 2509 
Q 3534 2175 2875 2084 
Q 3116 1969 3241 1856 
Q 3506 1613 3744 1247 
L 4541 0 
L 3778 0 
L 3172 953 
Q 2906 1366 2734 1584 
Q 2563 1803 2427 1890 
Q 2291 1978 2150 2013 
Q 2047 2034 1813 2034 
L 1109 2034 
L 1109 0 
L 503 0 
z
M 1109 2559 
L 2413 2559 
Q 2828 2559 3062 2645 
Q 3297 2731 3419 2920 
Q 3541 3109 3541 3331 
Q 3541 3656 3305 3865 
Q 3069 4075 2559 4075 
L 1109 4075 
L 1109 2559 
z
" transform="scale(0.015625)"/>
      <path id="ArialMT-43" d="M 3763 1606 
L 4369 1453 
Q 4178 706 3683 314 
Q 3188 -78 2472 -78 
Q 1731 -78 1267 223 
Q 803 525 561 1097 
Q 319 1669 319 2325 
Q 319 3041 592 3573 
Q 866 4106 1370 4382 
Q 1875 4659 2481 4659 
Q 3169 4659 3637 4309 
Q 4106 3959 4291 3325 
L 3694 3184 
Q 3534 3684 3231 3912 
Q 2928 4141 2469 4141 
Q 1941 4141 1586 3887 
Q 1231 3634 1087 3207 
Q 944 2781 944 2328 
Q 944 1744 1114 1308 
Q 1284 872 1643 656 
Q 2003 441 2422 441 
Q 2931 441 3284 734 
Q 3638 1028 3763 1606 
z
" transform="scale(0.015625)"/>
      <path id="ArialMT-54" d="M 1659 0 
L 1659 4041 
L 150 4041 
L 150 4581 
L 3781 4581 
L 3781 4041 
L 2266 4041 
L 2266 0 
L 1659 0 
z
" transform="scale(0.015625)"/>
      <path id="ArialMT-79" d="M 397 -1278 
L 334 -750 
Q 519 -800 656 -800 
Q 844 -800 956 -737 
Q 1069 -675 1141 -563 
Q 1194 -478 1313 -144 
Q 1328 -97 1363 -6 
L 103 3319 
L 709 3319 
L 1400 1397 
Q 1534 1031 1641 628 
Q 1738 1016 1872 1384 
L 2581 3319 
L 3144 3319 
L 1881 -56 
Q 1678 -603 1566 -809 
Q 1416 -1088 1222 -1217 
Q 1028 -1347 759 -1347 
Q 597 -1347 397 -1278 
z
" transform="scale(0.015625)"/>
     </defs>
     <use xlink:href="#ArialMT-52"/>
     <use xlink:href="#ArialMT-65" x="72.216797"/>
     <use xlink:href="#ArialMT-43" x="127.832031"/>
     <use xlink:href="#ArialMT-65" x="200.048828"/>
     <use xlink:href="#ArialMT-6c" x="255.664062"/>
     <use xlink:href="#ArialMT-6c" x="277.880859"/>
     <use xlink:href="#ArialMT-54" x="300.097656"/>
     <use xlink:href="#ArialMT-79" x="355.681641"/>
    </g>
   </g>
   <g id="patch_8">
    <path d="M 113.776089 22.074812 
L 125.776089 22.074812 
L 125.776089 17.874812 
L 113.776089 17.874812 
z
" style="fill: #f4b183; stroke: #ffffff; stroke-linejoin: miter"/>
   </g>
   <g id="text_10">
    <!-- ReCellTy -->
    <g style="fill: #262626" transform="translate(130.576089 18.27175) scale(0.06 -0.06)">
     <use xlink:href="#ArialMT-52"/>
     <use xlink:href="#ArialMT-65" x="72.216797"/>
     <use xlink:href="#ArialMT-43" x="127.832031"/>
     <use xlink:href="#ArialMT-65" x="200.048828"/>
     <use xlink:href="#ArialMT-6c" x="255.664062"/>
     <use xlink:href="#ArialMT-6c" x="277.880859"/>
     <use xlink:href="#ArialMT-54" x="300.097656"/>
     <use xlink:href="#ArialMT-79" x="355.681641"/>
    </g>
    <!-- Adjustment -->
    <g style="fill: #262626" transform="translate(130.576089 24.688187) scale(0.06 -0.06)">
     <defs>
      <path id="ArialMT-41" d="M -9 0 
L 1750 4581 
L 2403 4581 
L 4278 0 
L 3588 0 
L 3053 1388 
L 1138 1388 
L 634 0 
L -9 0 
z
M 1313 1881 
L 2866 1881 
L 2388 3150 
Q 2169 3728 2063 4100 
Q 1975 3659 1816 3225 
L 1313 1881 
z
" transform="scale(0.015625)"/>
      <path id="ArialMT-6a" d="M 419 3928 
L 419 4581 
L 981 4581 
L 981 3928 
L 419 3928 
z
M -294 -1288 
L -188 -809 
Q -19 -853 78 -853 
Q 250 -853 334 -739 
Q 419 -625 419 -169 
L 419 3319 
L 981 3319 
L 981 -181 
Q 981 -794 822 -1034 
Q 619 -1347 147 -1347 
Q -81 -1347 -294 -1288 
z
" transform="scale(0.015625)"/>
     </defs>
     <use xlink:href="#ArialMT-41"/>
     <use xlink:href="#ArialMT-64" x="66.699219"/>
     <use xlink:href="#ArialMT-6a" x="122.314453"/>
     <use xlink:href="#ArialMT-75" x="144.53125"/>
     <use xlink:href="#ArialMT-73" x="200.146484"/>
     <use xlink:href="#ArialMT-74" x="250.146484"/>
     <use xlink:href="#ArialMT-6d" x="277.929688"/>
     <use xlink:href="#ArialMT-65" x="361.230469"/>
     <use xlink:href="#ArialMT-6e" x="416.845703"/>
     <use xlink:href="#ArialMT-74" x="472.460938"/>
    </g>
   </g>
  </g>
 </g>
 <defs>
  <clipPath id="p3ec69fa05b">
   <path d="M 136.062992 102.047244 
C 136.062992 95.346883 134.743167 88.711675 132.17905 82.521349 
C 129.614933 76.331023 125.85639 70.705965 121.118519 65.968095 
C 116.380649 61.230224 110.755591 57.471681 104.565265 54.907564 
C 98.374939 52.343447 91.739731 51.023622 85.03937 51.023622 
C 78.339009 51.023622 71.703801 52.343447 65.513475 54.907564 
C 59.323149 57.471681 53.698091 61.230224 48.960221 65.968095 
C 44.22235 70.705965 40.463807 76.331023 37.89969 82.521349 
C 35.335573 88.711675 34.015748 95.346883 34.015748 102.047244 
C 34.015748 108.747605 35.335573 115.382813 37.89969 121.573139 
C 40.463807 127.763465 44.22235 133.388523 48.960221 138.126393 
C 53.698091 142.864264 59.323149 146.622807 65.513475 149.186924 
C 71.703801 151.751041 78.339009 153.070866 85.03937 153.070866 
C 91.739731 153.070866 98.374939 151.751041 104.565265 149.186924 
C 110.755591 146.622807 116.380649 142.864264 121.118519 138.126393 
C 125.85639 133.388523 129.614933 127.763465 132.17905 121.573139 
C 134.743167 115.382813 136.062992 108.747605 136.062992 102.047244 
M 85.03937 102.047244 
C 85.03937 102.047244 85.03937 102.047244 85.03937 102.047244 
C 85.03937 102.047244 85.03937 102.047244 85.03937 102.047244 
C 85.03937 102.047244 85.03937 102.047244 85.03937 102.047244 
C 85.03937 102.047244 85.03937 102.047244 85.03937 102.047244 
C 85.03937 102.047244 85.03937 102.047244 85.03937 102.047244 
C 85.03937 102.047244 85.03937 102.047244 85.03937 102.047244 
C 85.03937 102.047244 85.03937 102.047244 85.03937 102.047244 
C 85.03937 102.047244 85.03937 102.047244 85.03937 102.047244 
C 85.03937 102.047244 85.03937 102.047244 85.03937 102.047244 
C 85.03937 102.047244 85.03937 102.047244 85.03937 102.047244 
C 85.03937 102.047244 85.03937 102.047244 85.03937 102.047244 
C 85.03937 102.047244 85.03937 102.047244 85.03937 102.047244 
C 85.03937 102.047244 85.03937 102.047244 85.03937 102.047244 
C 85.03937 102.047244 85.03937 102.047244 85.03937 102.047244 
C 85.03937 102.047244 85.03937 102.047244 85.03937 102.047244 
C 85.03937 102.047244 85.03937 102.047244 85.03937 102.047244 
z
"/>
  </clipPath>
 </defs>
</svg>
